<svg width="33" height="33" viewBox="0 0 33 33" fill="none" xmlns="http://www.w3.org/2000/svg">
<g clip-path="url(#clip0_314_1900)">
<path fill-rule="evenodd" clip-rule="evenodd" d="M7.38333 13.2463C7.38225 13.2494 6.48629 12.4347 5.43579 11.173C3.9808 9.42559 3.09085 6.36168 5.71261 4.02593C8.22675 1.78601 11.3099 3.59917 12.4049 4.83442C13.0595 5.57286 13.4417 6.03181 13.8811 6.53502C13.8811 6.53502 14.1773 6.13819 14.6233 5.04862C14.7265 4.79657 14.8416 4.52723 14.9684 4.24609C15.9035 2.17343 18.2697 0.0331765 21.5168 1.36943C24.6307 2.65087 24.3485 6.2165 23.7165 7.74144C23.3387 8.65305 23.1647 8.98586 22.9044 9.60108C22.9044 9.60108 24.1593 9.40687 25.7942 9.25706C28.0586 9.04957 31.0869 10.0541 31.5241 13.538C31.9431 16.8791 28.7013 18.3903 27.063 18.5919C26.0835 18.7122 25.7082 18.7248 25.0445 18.8013C25.0445 18.8013 25.896 19.6471 26.7867 21.0263C28.0202 22.9365 28.534 26.0854 25.6497 28.0879C22.8836 30.008 20.0417 27.8362 19.1038 26.4779C18.543 25.6658 17.9823 24.7866 17.9154 24.8319C17.9186 24.8311 17.6323 26.0079 17.0277 27.5343C16.1902 29.6482 13.9266 31.8966 10.6206 30.7132C7.45034 29.5785 7.5659 26.0036 8.12601 24.4507C8.46089 23.5225 8.85479 22.5831 9.06335 22.418C9.06532 22.4206 7.90644 22.7632 6.27283 22.9266C4.01031 23.1531 0.973684 22.1741 0.507369 18.6939C0.0601745 15.3565 3.28922 13.8181 4.92582 13.6029C5.90423 13.4743 7.38333 13.2463 7.38333 13.2463Z" fill="#DC7851" stroke="#6FBFB9" stroke-width="0.576456" stroke-miterlimit="1.5" stroke-linecap="round" stroke-linejoin="round"/>
<path d="M17.106 20.7211C19.6562 20.1405 21.2528 17.6025 20.6722 15.0523C20.0916 12.5021 17.5536 10.9054 15.0034 11.4861C12.4532 12.0667 10.8565 14.6047 11.4372 17.1549C12.0178 19.7051 14.5558 21.3017 17.106 20.7211Z" fill="#F5B45D" stroke="#6FBFB9" stroke-width="0.576338" stroke-miterlimit="1.5" stroke-linecap="round" stroke-linejoin="round"/>
</g>
<defs>
<clipPath id="clip0_314_1900">
<rect width="32" height="32" fill="white" transform="translate(0.0215912 0.0216064)"/>
</clipPath>
</defs>
</svg>
