<svg width="117" height="32" viewBox="0 0 117 32" fill="none" xmlns="http://www.w3.org/2000/svg">
<g clip-path="url(#clip0_31_440)">
<path fill-rule="evenodd" clip-rule="evenodd" d="M5.28292 11.6444C6.30794 12.8755 7.18218 13.6705 7.18323 13.6675C7.18323 13.6675 5.74 13.89 4.78532 14.0155C3.1884 14.2254 0.0376459 15.7265 0.473997 18.983C0.929005 22.3788 3.892 23.3341 6.09967 23.1131C7.69366 22.9536 8.82445 22.6194 8.82252 22.6168C8.61901 22.7779 8.23467 23.6945 7.9079 24.6002C7.36138 26.1155 7.24862 29.6037 10.342 30.7109C13.5678 31.8656 15.7766 29.6716 16.5938 27.609C17.1837 26.1196 17.4631 24.9714 17.4599 24.9721C17.5084 24.9393 17.8227 25.4042 18.2054 25.9702C18.338 26.1662 18.4787 26.3744 18.6195 26.5783C19.5347 27.9036 22.3077 30.0228 25.0067 28.1492C27.8211 26.1953 27.3197 23.1227 26.1161 21.2588C25.247 19.913 24.4162 19.0878 24.4162 19.0878C24.6866 19.0566 24.9079 19.0363 25.1435 19.0147C25.4723 18.9846 25.829 18.9519 26.3857 18.8835C27.2696 18.7747 28.6319 18.2753 29.6041 17.2993L29.6041 11.3283C28.439 10.0337 26.6264 9.63947 25.1477 9.77497C23.5525 9.92115 22.3279 10.1106 22.3279 10.1106C22.4339 9.86024 22.5252 9.65777 22.6224 9.44226C22.7582 9.14115 22.9055 8.81455 23.1204 8.2961C23.737 6.80814 24.0124 3.32896 20.974 2.0786C17.8057 0.774744 15.4969 2.8631 14.5844 4.8855C14.4606 5.15982 14.3484 5.42264 14.2477 5.66858C13.8124 6.73173 13.5235 7.11893 13.5235 7.11893C13.3637 6.936 13.2118 6.75907 13.0509 6.57179C12.78 6.25639 12.4838 5.91166 12.0831 5.45957C11.0146 4.25427 8.00621 2.48508 5.55302 4.67068C2.99484 6.9498 3.8632 9.93942 5.28292 11.6444Z" fill="#DC7851"/>
<path d="M7.18323 13.6675L7.45042 13.7597C7.48275 13.6661 7.4637 13.5623 7.40021 13.4863C7.33673 13.4103 7.23807 13.373 7.14017 13.3881L7.18323 13.6675ZM5.28292 11.6444L5.50014 11.4636L5.50014 11.4636L5.28292 11.6444ZM4.78532 14.0155L4.82216 14.2957L4.82216 14.2957L4.78532 14.0155ZM0.473997 18.983L0.754155 18.9454L0.754155 18.9454L0.473997 18.983ZM6.09967 23.1131L6.07152 22.8318L6.07151 22.8318L6.09967 23.1131ZM8.82252 22.6168L9.04988 22.4488C9.00436 22.3872 8.93578 22.3467 8.85983 22.3366C8.78389 22.3264 8.7071 22.3476 8.64704 22.3952L8.82252 22.6168ZM7.9079 24.6002L7.64202 24.5042L7.64201 24.5043L7.9079 24.6002ZM10.342 30.7109L10.4373 30.4447L10.4373 30.4447L10.342 30.7109ZM16.5938 27.609L16.8566 27.7131L16.8566 27.7131L16.5938 27.609ZM17.4599 24.9721L17.3015 24.738C17.1889 24.8143 17.1465 24.9599 17.2006 25.0846C17.2547 25.2094 17.3901 25.2779 17.5227 25.2477L17.4599 24.9721ZM18.2054 25.9702L18.4396 25.8119L18.4396 25.8119L18.2054 25.9702ZM18.6195 26.5783L18.3869 26.7389L18.3869 26.7389L18.6195 26.5783ZM25.0067 28.1492L25.1679 28.3814L25.1679 28.3814L25.0067 28.1492ZM26.1161 21.2588L26.3535 21.1055L26.3535 21.1055L26.1161 21.2588ZM24.4162 19.0878L24.3838 18.807C24.2759 18.8195 24.1847 18.8926 24.1491 18.9953C24.1135 19.0979 24.1399 19.2118 24.217 19.2884L24.4162 19.0878ZM25.1435 19.0147L25.1694 19.2962L25.1694 19.2962L25.1435 19.0147ZM26.3857 18.8835L26.4202 19.164L26.4202 19.164L26.3857 18.8835ZM29.6041 17.2993L29.8044 17.4988C29.8572 17.4459 29.8868 17.3741 29.8868 17.2993L29.6041 17.2993ZM29.6041 11.3283L29.8868 11.3283C29.8868 11.2585 29.8609 11.1911 29.8142 11.1392L29.6041 11.3283ZM25.1477 9.77497L25.1735 10.0565L25.1735 10.0565L25.1477 9.77497ZM22.3279 10.1106L22.0676 10.0005C22.0277 10.0949 22.0419 10.2035 22.105 10.2844C22.168 10.3653 22.2698 10.4057 22.3711 10.39L22.3279 10.1106ZM22.6224 9.44226L22.3647 9.32606L22.3647 9.32606L22.6224 9.44226ZM23.1204 8.2961L23.3815 8.40432L23.3815 8.40432L23.1204 8.2961ZM20.974 2.0786L21.0816 1.8172L21.0816 1.8172L20.974 2.0786ZM14.5844 4.8855L14.8421 5.00177L14.8421 5.00175L14.5844 4.8855ZM14.2477 5.66858L13.9861 5.56148L13.9861 5.56148L14.2477 5.66858ZM13.5235 7.11893L13.3106 7.30485C13.3667 7.36918 13.449 7.40466 13.5343 7.40139C13.6197 7.39811 13.6989 7.35643 13.75 7.28799L13.5235 7.11893ZM13.0509 6.57179L13.2653 6.38761L13.2653 6.38761L13.0509 6.57179ZM12.0831 5.45957L12.2946 5.27207L12.2946 5.27207L12.0831 5.45957ZM5.55302 4.67068L5.74105 4.88174L5.74105 4.88173L5.55302 4.67068ZM6.91605 13.5752C6.96754 13.4848 7.11534 13.3931 7.18681 13.3848C7.22107 13.3874 7.27198 13.3991 7.28883 13.4053C7.31449 13.4156 7.3328 13.4276 7.33552 13.4294C7.34644 13.4364 7.35442 13.4426 7.35551 13.4435C7.35823 13.4456 7.36025 13.4472 7.36111 13.4479C7.36212 13.4487 7.36285 13.4494 7.36316 13.4496C7.36399 13.4503 7.3634 13.4498 7.36059 13.4473C7.35545 13.4428 7.34674 13.4349 7.33436 13.4236C7.30981 13.4011 7.27283 13.3666 7.22482 13.321C7.12886 13.2297 6.98965 13.0943 6.81848 12.9204C6.47603 12.5726 6.00669 12.072 5.50014 11.4636L5.0657 11.8253C5.58418 12.448 6.06446 12.9604 6.41565 13.3171C6.59129 13.4955 6.73491 13.6352 6.83519 13.7306C6.8853 13.7782 6.92481 13.815 6.95228 13.8402C6.9659 13.8527 6.97708 13.8628 6.98537 13.8702C6.98927 13.8737 6.99377 13.8776 6.99803 13.8812C6.99963 13.8826 7.0041 13.8863 7.00958 13.8906C7.01112 13.8918 7.01943 13.8983 7.03058 13.9054C7.03341 13.9072 7.05181 13.9193 7.07754 13.9296C7.09441 13.9358 7.14535 13.9476 7.17963 13.9501C7.25111 13.9419 7.39892 13.8502 7.45042 13.7597L6.91605 13.5752ZM4.82216 14.2957C5.30194 14.2326 5.90333 14.1453 6.38381 14.074C6.62425 14.0383 6.83481 14.0065 6.98526 13.9836C7.06049 13.9722 7.12071 13.963 7.16214 13.9567C7.18286 13.9535 7.19888 13.951 7.20973 13.9494C7.21515 13.9485 7.21928 13.9479 7.22207 13.9475C7.22346 13.9473 7.22451 13.9471 7.22522 13.947C7.22557 13.9469 7.22584 13.9469 7.22602 13.9469C7.22611 13.9468 7.22618 13.9468 7.22623 13.9468C7.22625 13.9468 7.22627 13.9468 7.22628 13.9468C7.22629 13.9468 7.2263 13.9468 7.18323 13.6675C7.14017 13.3881 7.14016 13.3881 7.14015 13.3881C7.14014 13.3881 7.14013 13.3881 7.14011 13.3881C7.14007 13.3881 7.14 13.3881 7.13992 13.3881C7.13975 13.3882 7.13949 13.3882 7.13915 13.3883C7.13846 13.3884 7.13743 13.3885 7.13606 13.3887C7.13332 13.3891 7.12924 13.3898 7.12386 13.3906C7.1131 13.3923 7.09718 13.3947 7.07657 13.3979C7.03534 13.4042 6.97535 13.4133 6.90036 13.4247C6.75037 13.4475 6.54045 13.4792 6.30075 13.5148C5.82094 13.5861 5.22337 13.6728 4.74847 13.7352L4.82216 14.2957ZM0.754155 18.9454C0.551055 17.4297 1.17649 16.3296 2.05233 15.5703C2.93874 14.8019 4.07237 14.3943 4.82216 14.2957L4.74847 13.7352C3.90135 13.8466 2.66114 14.2944 1.68203 15.1432C0.692353 16.0011 -0.0394117 17.2798 0.193839 19.0205L0.754155 18.9454ZM6.07151 22.8318C5.01432 22.9377 3.78486 22.7599 2.7736 22.1611C1.77308 21.5687 0.969947 20.5559 0.754155 18.9454L0.193839 19.0205C0.433055 20.8058 1.33892 21.9686 2.48557 22.6476C3.62147 23.3201 4.97734 23.5095 6.12782 23.3944L6.07151 22.8318ZM8.59516 22.7847C8.55044 22.6934 8.55494 22.5257 8.58437 22.4645C8.60372 22.4378 8.63904 22.4018 8.65273 22.3908C8.67467 22.3743 8.69421 22.3649 8.69731 22.3634C8.70909 22.3576 8.71867 22.3539 8.72005 22.3534C8.72335 22.3521 8.72587 22.3512 8.72698 22.3508C8.72828 22.3504 8.72922 22.3501 8.72965 22.3499C8.73086 22.3495 8.73027 22.3497 8.7268 22.3508C8.72049 22.3527 8.70948 22.356 8.69358 22.3606C8.66207 22.3696 8.61394 22.3829 8.55047 22.3995C8.42362 22.4327 8.23665 22.4788 8.00001 22.5298C7.52652 22.6318 6.85598 22.7533 6.07152 22.8318L6.12781 23.3944C6.93735 23.3133 7.62919 23.188 8.11912 23.0824C8.36418 23.0296 8.55917 22.9816 8.69361 22.9464C8.76079 22.9288 8.81314 22.9144 8.84932 22.904C8.86728 22.8989 8.88192 22.8945 8.89274 22.8912C8.89784 22.8896 8.90368 22.8878 8.90915 22.886C8.91121 22.8853 8.91688 22.8834 8.92351 22.8808C8.92542 22.8801 8.93538 22.8763 8.9474 22.8704C8.95063 22.8688 8.97025 22.8593 8.99225 22.8428C9.00597 22.8318 9.0413 22.7957 9.06066 22.769C9.0901 22.7079 9.09461 22.5402 9.04988 22.4488L8.59516 22.7847ZM8.17379 24.6961C8.33588 24.2469 8.51099 23.7985 8.6694 23.4448C8.74879 23.2676 8.82197 23.1187 8.88546 23.007C8.91722 22.9511 8.94455 22.908 8.96707 22.877C8.99161 22.8431 9.00216 22.8351 8.998 22.8383L8.64704 22.3952C8.54828 22.4734 8.4629 22.6063 8.39396 22.7276C8.31794 22.8614 8.23645 23.0285 8.15347 23.2137C7.98713 23.5851 7.80669 24.0479 7.64202 24.5042L8.17379 24.6961ZM10.4373 30.4447C8.99745 29.9294 8.3072 28.8688 8.03473 27.7421C7.75898 26.6019 7.91719 25.4076 8.1738 24.6961L7.64201 24.5043C7.3521 25.3081 7.18066 26.6155 7.48525 27.875C7.79313 29.1481 8.5932 30.3852 10.2468 30.977L10.4373 30.4447ZM16.331 27.5049C15.9397 28.4926 15.2173 29.5033 14.2212 30.1269C13.2356 30.7438 11.9672 30.9924 10.4373 30.4447L10.2468 30.977C11.9427 31.5841 13.3916 31.3131 14.5211 30.606C15.6401 29.9056 16.4307 28.788 16.8566 27.7131L16.331 27.5049ZM17.5227 25.2477C17.4179 25.2516 17.2584 25.1704 17.2127 25.1092C17.1972 25.0765 17.1821 25.0239 17.1793 25.0055C17.1759 24.9775 17.1778 24.9552 17.178 24.9521C17.1789 24.9392 17.1806 24.9292 17.1808 24.9279C17.1814 24.9245 17.1818 24.922 17.182 24.9209C17.1823 24.9196 17.1825 24.9187 17.1825 24.9183C17.1828 24.9173 17.1826 24.918 17.1818 24.9217C17.1802 24.9284 17.1775 24.9398 17.1734 24.9561C17.1654 24.9885 17.1529 25.0374 17.1358 25.1014C17.1016 25.2293 17.0494 25.4164 16.9787 25.6499C16.8373 26.1171 16.6225 26.7689 16.331 27.5049L16.8566 27.7131C17.155 26.9597 17.3748 26.2927 17.5198 25.8136C17.5923 25.574 17.6462 25.3811 17.682 25.2474C17.6998 25.1806 17.7132 25.1283 17.7222 25.0921C17.7266 25.0742 17.7301 25.0596 17.7326 25.0488C17.7338 25.0437 17.7351 25.0379 17.7362 25.0325C17.7366 25.0305 17.7378 25.0248 17.7389 25.018C17.7392 25.0161 17.7409 25.0057 17.7419 24.9925C17.7421 24.9893 17.744 24.9669 17.7406 24.9388C17.7378 24.9204 17.7226 24.8678 17.7071 24.8351C17.6614 24.7739 17.502 24.6926 17.3972 24.6965L17.5227 25.2477ZM18.4396 25.8119C18.2493 25.5304 18.0721 25.2682 17.9363 25.0808C17.8692 24.9882 17.8067 24.9061 17.7548 24.8474C17.7305 24.82 17.6981 24.7855 17.6617 24.7577C17.6448 24.7448 17.6107 24.7205 17.5639 24.7044C17.5183 24.6887 17.4093 24.6651 17.3015 24.738L17.6183 25.2062C17.5166 25.2751 17.4157 25.2512 17.3802 25.239C17.3436 25.2264 17.3216 25.2093 17.3187 25.2071C17.3102 25.2006 17.3133 25.2015 17.3313 25.2219C17.3639 25.2588 17.4131 25.3222 17.4784 25.4124C17.6076 25.5907 17.7788 25.8439 17.9713 26.1285L18.4396 25.8119ZM18.8521 26.4176C18.7122 26.2151 18.5723 26.0081 18.4396 25.8119L17.9713 26.1285C18.1037 26.3244 18.2452 26.5337 18.3869 26.7389L18.8521 26.4176ZM24.8455 27.917C23.5892 28.7891 22.3249 28.7343 21.2498 28.3012C20.1617 27.8628 19.2818 27.0399 18.8521 26.4176L18.3869 26.7389C18.8724 27.4419 19.8366 28.3413 21.0385 28.8255C22.2534 29.3149 23.7251 29.3829 25.1679 28.3814L24.8455 27.917ZM25.8786 21.4122C26.455 22.3047 26.8576 23.48 26.786 24.653C26.7152 25.8137 26.1802 26.9904 24.8455 27.917L25.1679 28.3814C26.6475 27.3542 27.2691 26.0176 27.3503 24.6875C27.4307 23.3698 26.9808 22.0768 26.3535 21.1055L25.8786 21.4122ZM24.4162 19.0878C24.217 19.2884 24.217 19.2883 24.2169 19.2883C24.2169 19.2883 24.2169 19.2883 24.2169 19.2883C24.2169 19.2883 24.2169 19.2883 24.2169 19.2883C24.2169 19.2883 24.217 19.2884 24.2171 19.2885C24.2174 19.2888 24.2178 19.2892 24.2185 19.2899C24.2198 19.2911 24.2218 19.2932 24.2247 19.2961C24.2303 19.3018 24.239 19.3107 24.2506 19.3226C24.2737 19.3465 24.3082 19.3825 24.3526 19.4302C24.4413 19.5257 24.5693 19.6675 24.7243 19.851C25.0345 20.2183 25.4519 20.7513 25.8786 21.4122L26.3535 21.1055C25.9112 20.4205 25.4786 19.868 25.1562 19.4863C24.9949 19.2953 24.8608 19.1467 24.7666 19.0453C24.7195 18.9946 24.6823 18.9557 24.6566 18.9292C24.6437 18.9159 24.6337 18.9057 24.6268 18.8987C24.6233 18.8952 24.6206 18.8925 24.6187 18.8906C24.6178 18.8896 24.617 18.8889 24.6164 18.8883C24.6162 18.8881 24.6159 18.8878 24.6158 18.8877C24.6157 18.8876 24.6156 18.8875 24.6155 18.8874C24.6155 18.8874 24.6155 18.8874 24.6154 18.8873C24.6154 18.8873 24.6154 18.8873 24.4162 19.0878ZM25.1177 18.7333C24.8822 18.7549 24.6578 18.7754 24.3838 18.807L24.4486 19.3686C24.7153 19.3379 24.9336 19.3178 25.1694 19.2962L25.1177 18.7333ZM26.3512 18.6029C25.7989 18.6708 25.4456 18.7032 25.1177 18.7333L25.1694 19.2962C25.499 19.266 25.8591 19.233 26.4202 19.164L26.3512 18.6029ZM29.4039 17.0999C28.4838 18.0234 27.1839 18.5005 26.3512 18.6029L26.4202 19.164C27.3554 19.049 28.7799 18.5271 29.8044 17.4988L29.4039 17.0999ZM29.8868 17.2993L29.8868 11.3283L29.3215 11.3283L29.3215 17.2993L29.8868 17.2993ZM25.1735 10.0565C26.5958 9.92612 28.3074 10.31 29.394 11.5174L29.8142 11.1392C28.5706 9.75735 26.657 9.35282 25.1219 9.49349L25.1735 10.0565ZM22.3279 10.1106C22.3711 10.39 22.3711 10.39 22.3711 10.39C22.3711 10.39 22.3711 10.39 22.3712 10.39C22.3712 10.39 22.3712 10.39 22.3713 10.39C22.3714 10.3899 22.3716 10.3899 22.3719 10.3899C22.3724 10.3898 22.3732 10.3897 22.3744 10.3895C22.3766 10.3891 22.38 10.3886 22.3846 10.3879C22.3937 10.3865 22.4074 10.3845 22.4254 10.3818C22.4615 10.3764 22.515 10.3685 22.5843 10.3586C22.7229 10.3387 22.9246 10.3106 23.176 10.2779C23.6789 10.2126 24.3802 10.1291 25.1735 10.0565L25.1219 9.49349C24.32 9.56698 23.6114 9.65133 23.1032 9.71732C22.849 9.75032 22.6449 9.77875 22.504 9.79896C22.4336 9.80906 22.379 9.81712 22.3419 9.82266C22.3233 9.82543 22.3092 9.82758 22.2995 9.82904C22.2947 9.82977 22.2911 9.83033 22.2886 9.83071C22.2874 9.8309 22.2864 9.83104 22.2858 9.83115C22.2854 9.8312 22.2852 9.83123 22.285 9.83126C22.2849 9.83128 22.2848 9.83129 22.2848 9.8313C22.2848 9.8313 22.2847 9.8313 22.2847 9.83131C22.2847 9.83131 22.2847 9.83131 22.3279 10.1106ZM22.3647 9.32606C22.2676 9.54148 22.175 9.74668 22.0676 10.0005L22.5882 10.2208C22.6928 9.97379 22.7828 9.77407 22.8801 9.55847L22.3647 9.32606ZM22.8592 8.18788C22.6461 8.70228 22.5002 9.02574 22.3647 9.32606L22.8801 9.55847C23.0162 9.25655 23.1649 8.92683 23.3815 8.40432L22.8592 8.18788ZM20.8665 2.33999C22.2807 2.92197 22.9207 4.01368 23.1403 5.1518C23.3625 6.30366 23.1488 7.48925 22.8592 8.18789L23.3815 8.40432C23.7086 7.61499 23.9409 6.31701 23.6954 5.0447C23.4472 3.75865 22.7058 2.48558 21.0816 1.8172L20.8665 2.33999ZM14.8421 5.00175C15.279 4.03328 16.0477 3.05742 17.0719 2.48104C18.0852 1.91077 19.3638 1.72163 20.8665 2.33999L21.0816 1.8172C19.4159 1.13172 17.9559 1.33482 16.7946 1.98837C15.6442 2.6358 14.8023 3.71532 14.3268 4.76926L14.8421 5.00175ZM14.5093 5.77568C14.6088 5.53254 14.7197 5.2728 14.8421 5.00177L14.3268 4.76923C14.2015 5.04685 14.0879 5.31274 13.9861 5.56148L14.5093 5.77568ZM13.5235 7.11893C13.75 7.28799 13.7501 7.28792 13.7501 7.28785C13.7501 7.28783 13.7502 7.28776 13.7502 7.28771C13.7503 7.28761 13.7504 7.2875 13.7505 7.28739C13.7506 7.28717 13.7508 7.28692 13.751 7.28665C13.7514 7.28611 13.7519 7.28547 13.7524 7.28474C13.7535 7.28328 13.7548 7.28143 13.7564 7.27918C13.7597 7.27469 13.7639 7.26863 13.7693 7.26091C13.7799 7.24548 13.7948 7.22345 13.8134 7.19427C13.8508 7.13592 13.9037 7.04896 13.9699 6.92892C14.1022 6.68886 14.2879 6.31637 14.5093 5.77567L13.9861 5.56148C13.7722 6.08394 13.5958 6.43662 13.4748 6.65596C13.4144 6.76561 13.3678 6.84189 13.3374 6.88936C13.3222 6.9131 13.311 6.92963 13.3042 6.93953C13.3008 6.94447 13.2984 6.94776 13.2972 6.94946C13.2966 6.95031 13.2963 6.95077 13.2962 6.95083C13.2962 6.95087 13.2963 6.9508 13.2964 6.95064C13.2964 6.95056 13.2965 6.95046 13.2966 6.95033C13.2966 6.95027 13.2967 6.9502 13.2968 6.95012C13.2968 6.95008 13.2968 6.95002 13.2968 6.95C13.2969 6.94994 13.2969 6.94988 13.5235 7.11893ZM12.8365 6.75597C12.9972 6.94312 13.1499 7.12092 13.3106 7.30485L13.7364 6.93301C13.5775 6.75109 13.4263 6.57502 13.2653 6.38761L12.8365 6.75597ZM11.8715 5.64707C12.2707 6.0974 12.5656 6.4407 12.8365 6.75598L13.2653 6.38761C12.9943 6.07208 12.6969 5.72593 12.2946 5.27207L11.8715 5.64707ZM5.74105 4.88173C6.88289 3.86444 8.14455 3.7663 9.2641 4.06655C10.3972 4.37042 11.3699 5.08116 11.8715 5.64707L12.2946 5.27207C11.7278 4.63268 10.6621 3.85617 9.41054 3.52052C8.14547 3.18125 6.67634 3.29132 5.36499 4.45963L5.74105 4.88173ZM5.50014 11.4636C4.82028 10.6471 4.27886 9.52904 4.20841 8.35591C4.13872 7.19524 4.52781 5.96263 5.74105 4.88174L5.36499 4.45963C4.02005 5.65785 3.56423 7.05961 3.64411 8.38979C3.72323 9.70751 4.32585 10.9368 5.0657 11.8253L5.50014 11.4636Z" fill="#CFEAE8"/>
<path d="M17.019 22.4933C20.3536 21.7341 22.4414 18.4154 21.6822 15.0808C20.923 11.7462 17.6043 9.65838 14.2697 10.4176C10.935 11.1768 8.84726 14.4955 9.60647 17.8301C10.3657 21.1648 13.6844 23.2525 17.019 22.4933Z" fill="#F5B45D" stroke="#CFEAE8" stroke-width="0.565207" stroke-miterlimit="1.5" stroke-linecap="round" stroke-linejoin="round"/>
<path fill-rule="evenodd" clip-rule="evenodd" d="M18.1341 15.0631C18.1411 15.058 18.1551 15.0477 18.1642 15.0384C18.1795 15.0227 18.2126 14.9968 18.2262 14.9689C18.2521 14.9163 18.3044 14.8066 18.3194 14.7225C18.3603 14.4938 18.3202 14.2796 18.2653 14.0581C18.2352 13.9368 18.2106 13.7996 18.166 13.6758C18.1059 13.5085 18.0271 13.241 17.9043 13.0543C17.7725 12.8541 17.3177 12.3626 17.1061 12.744C16.9659 12.9966 17.0112 13.2794 17.0624 13.5498C17.0999 13.748 17.1294 13.9478 17.1649 14.1463C17.1876 14.2735 17.2031 14.4032 17.2461 14.5257C17.2766 14.6126 17.3239 14.6935 17.374 14.7705C17.4426 14.876 17.5243 14.9932 17.634 15.0599C17.7065 15.1039 17.7919 15.1259 17.8755 15.1363C17.9708 15.1481 18.0796 15.0915 18.1341 15.0631Z" fill="#211F1F"/>
<path fill-rule="evenodd" clip-rule="evenodd" d="M12.6858 16.2065C12.6772 16.2049 12.6601 16.2017 12.6479 16.1972C12.6273 16.1897 12.5863 16.1807 12.5619 16.1614C12.5157 16.1252 12.4211 16.049 12.3712 15.9797C12.2353 15.7912 12.1787 15.5807 12.1324 15.3573C12.107 15.2349 12.0698 15.1007 12.0563 14.9697C12.0381 14.7929 11.9933 14.5176 12.0232 14.2961C12.0553 14.0587 12.2526 13.4187 12.6084 13.6709C12.8441 13.8379 12.9257 14.1125 12.9967 14.3784C13.0487 14.5733 13.1085 14.7661 13.1625 14.9605C13.1971 15.0849 13.2393 15.2086 13.2535 15.3376C13.2636 15.4292 13.256 15.5225 13.2442 15.6136C13.228 15.7385 13.2051 15.8795 13.1351 15.9871C13.0888 16.0581 13.0213 16.115 12.9505 16.1605C12.8697 16.2123 12.7471 16.2085 12.6858 16.2065Z" fill="#211F1F"/>
<path d="M19.5388 16.6869C19.4298 16.9265 19.3862 17.1953 19.2822 17.4394C19.1105 17.8424 18.8298 18.2243 18.5055 18.5175C18.3647 18.6447 18.2171 18.7622 18.0521 18.8567C17.5396 19.1503 16.9456 19.2653 16.3786 19.4052C15.3574 19.6573 14.3688 19.8186 13.3932 19.3153C13.0806 19.1541 12.7874 18.957 12.4978 18.7582C12.3712 18.6713 12.1886 18.5597 12.1205 18.4151C12.1071 18.3866 12.1877 18.2608 12.1988 18.2241" stroke="#211F1F" stroke-width="0.565324" stroke-miterlimit="1.5" stroke-linecap="round" stroke-linejoin="round"/>
<path d="M11.7082 18.5169C11.7088 18.5159 11.7706 18.5231 11.775 18.523C11.8418 18.5204 11.9118 18.5024 11.9713 18.4724C12.1563 18.3791 12.272 18.1688 12.303 17.9705" stroke="#211F1F" stroke-width="0.565324" stroke-miterlimit="1.5" stroke-linecap="round" stroke-linejoin="round"/>
<path d="M19.2214 16.3663C19.2339 16.4241 19.3087 16.4864 19.348 16.5245C19.4075 16.5822 19.4761 16.6292 19.5497 16.6608C19.6779 16.7159 19.8215 16.7244 19.9591 16.662" stroke="#211F1F" stroke-width="0.565324" stroke-miterlimit="1.5" stroke-linecap="round" stroke-linejoin="round"/>
</g>
<mask id="path-9-outside-1_31_440" maskUnits="userSpaceOnUse" x="25.3037" y="0.719696" width="47" height="29" fill="black">
<rect fill="white" x="25.3037" y="0.719696" width="47" height="29"/>
<path d="M37.058 8.76082C36.7279 11.7313 36.5629 14.7568 36.5629 17.8373C36.5629 20.8994 36.3978 23.0998 36.0678 24.4383C35.7561 25.7769 35.1326 26.877 34.1975 27.7388C33.2807 28.6006 32.1805 29.0315 30.897 29.0315C30.1452 29.0315 29.4942 28.8207 28.9442 28.3989C28.3941 27.9955 28.119 27.4271 28.119 26.6937C28.119 26.2353 28.2382 25.8685 28.4766 25.5935C28.7333 25.3368 28.99 25.1809 29.2467 25.1259L29.6318 25.0709C30.2919 25.0342 30.842 24.86 31.282 24.5483C31.7404 24.2366 32.0613 23.8515 32.2447 23.3931C32.5381 22.6597 32.6848 21.9537 32.6848 21.2753V21.0553C32.6664 20.9269 32.6022 20.8627 32.4922 20.8627L32.2172 21.0003C31.9788 21.3486 31.6763 21.6237 31.3095 21.8254C30.9611 22.0088 30.6586 22.1188 30.4019 22.1554L30.0443 22.1829C29.2559 22.1829 28.5866 21.9813 28.0365 21.5779C27.4864 21.1561 27.1014 20.6152 26.8813 19.9551C26.4963 18.7999 26.3037 17.7272 26.3037 16.7371C26.3037 15.7469 26.3954 14.8209 26.5788 13.9591C26.7621 13.079 27.0464 12.2264 27.4314 11.4012C27.8348 10.5761 28.4032 9.90683 29.1367 9.39342C29.8701 8.88 30.6403 8.62329 31.4471 8.62329C32.2539 8.62329 32.8681 8.80666 33.2899 9.17338C33.3449 9.2834 33.4274 9.33841 33.5374 9.33841C33.6474 9.33841 33.7391 9.2834 33.8124 9.17338C34.4909 8.31158 35.2885 7.88067 36.2053 7.88067C36.7737 7.88067 37.058 8.17406 37.058 8.76082ZM31.6396 17.5072C32.098 17.5072 32.4647 17.2688 32.7398 16.7921C33.0331 16.3154 33.1707 15.6736 33.1523 14.8668C33.1523 14.06 32.9873 13.3632 32.6573 12.7765C32.3455 12.1897 31.9696 11.8963 31.5296 11.8963C31.0895 11.8963 30.7228 12.1439 30.4294 12.6389C30.1544 13.1157 30.0168 13.7483 30.0168 14.5367C30.0168 15.3069 30.1727 15.9945 30.4844 16.5996C30.8145 17.2047 31.1995 17.5072 31.6396 17.5072Z"/>
<path d="M42.9987 8.43076C44.5939 8.43076 45.8041 9.12754 46.6293 10.5211C47.4727 11.9147 47.8945 13.6199 47.8945 15.6369C47.8945 18.2957 47.1335 20.3127 45.6116 21.6879C44.7681 22.4397 43.833 22.8155 42.8062 22.8155C41.7793 22.8155 40.9267 22.6047 40.2482 22.1829C39.5881 21.7612 39.0839 21.202 38.7355 20.5052C38.0204 19.1483 37.6628 17.6997 37.6628 16.1595C37.6628 14.3625 38.0754 12.6756 38.9005 11.0987C39.3039 10.3102 39.8632 9.66846 40.5783 9.17338C41.2934 8.6783 42.1002 8.43076 42.9987 8.43076ZM44.5939 14.2892C44.5939 13.7391 44.4839 13.244 44.2639 12.804C44.0438 12.3639 43.6771 12.1439 43.1637 12.1439C42.6686 12.1439 42.1827 12.5014 41.706 13.2165C41.2476 13.9133 41.0184 14.7659 41.0184 15.7744C41.0184 17.1863 41.4859 17.8923 42.4211 17.8923C42.9345 17.8923 43.4204 17.5714 43.8788 16.9296C44.3556 16.2878 44.5939 15.4077 44.5939 14.2892Z"/>
<path d="M53.7963 8.43076C55.3916 8.43076 56.6017 9.12754 57.4269 10.5211C58.2703 11.9147 58.6921 13.6199 58.6921 15.6369C58.6921 18.2957 57.9311 20.3127 56.4092 21.6879C55.5657 22.4397 54.6306 22.8155 53.6038 22.8155C52.5769 22.8155 51.7243 22.6047 51.0459 22.1829C50.3858 21.7612 49.8815 21.202 49.5331 20.5052C48.818 19.1483 48.4604 17.6997 48.4604 16.1595C48.4604 14.3625 48.873 12.6756 49.6981 11.0987C50.1015 10.3102 50.6608 9.66846 51.3759 9.17338C52.091 8.6783 52.8978 8.43076 53.7963 8.43076ZM55.3916 14.2892C55.3916 13.7391 55.2815 13.244 55.0615 12.804C54.8415 12.3639 54.4747 12.1439 53.9613 12.1439C53.4662 12.1439 52.9803 12.5014 52.5036 13.2165C52.0452 13.9133 51.816 14.7659 51.816 15.7744C51.816 17.1863 52.2836 17.8923 53.2187 17.8923C53.7321 17.8923 54.218 17.5714 54.6764 16.9296C55.1532 16.2878 55.3916 15.4077 55.3916 14.2892Z"/>
<path d="M69.7922 16.3795L69.8197 17.0396V17.1496C69.8197 18.1215 70.1131 18.8091 70.6999 19.2125C70.9749 19.4325 71.1124 19.6709 71.1124 19.9276C71.1124 20.1843 71.0483 20.4043 70.9199 20.5877C70.5165 21.1745 70.0123 21.642 69.4072 21.9904C68.6004 22.4672 67.8944 22.7055 67.2893 22.7055C66.6842 22.7055 66.3542 22.4122 66.2992 21.8254C66.2625 21.367 66.1708 21.1378 66.0241 21.1378L65.8316 21.2478C65.2082 22.1096 64.383 22.5405 63.3562 22.5405C62.6044 22.5405 61.9535 22.348 61.4034 21.9629C60.8717 21.5779 60.4683 21.0553 60.1932 20.3952C59.6615 19.1483 59.3956 17.7456 59.3956 16.187C59.3956 14.5184 59.8173 12.914 60.6608 11.3737C61.0825 10.6403 61.6509 10.0444 62.3661 9.58595C63.0812 9.1092 63.8696 8.87083 64.7314 8.87083C65.1348 8.87083 65.4649 8.92584 65.7216 9.03586L66.1067 9.20089C66.235 9.20089 66.3084 9.0542 66.3267 8.76082C66.3634 8.46744 66.3817 8.09154 66.3817 7.63314C66.3817 7.15639 66.3634 6.77133 66.3267 6.47795C66.29 6.16624 66.2442 5.93703 66.1892 5.79034C66.1342 5.64365 66.07 5.52447 65.9966 5.43279C65.8866 5.2861 65.7033 5.13024 65.4465 4.96521C65.2082 4.80019 65.089 4.57098 65.089 4.2776C65.089 3.67251 65.6024 3.09491 66.6292 2.54483C67.6744 1.99474 68.5362 1.7197 69.2146 1.7197C69.7281 1.7197 70.0123 1.9489 70.0673 2.4073C70.104 2.59067 70.1223 2.95739 70.1223 3.50748C70.1223 4.05757 70.0581 5.17608 69.9298 6.86301C69.8197 8.54995 69.7647 10.1635 69.7647 11.7038V14.4542L69.7922 15.8569V16.3795ZM64.0713 17.6447C64.7498 17.6447 65.2907 17.2597 65.6941 16.4895C66.1158 15.7194 66.3267 15.0318 66.3267 14.4267C66.3267 12.9965 65.9325 12.2814 65.144 12.2814C64.5022 12.2814 63.9613 12.6939 63.5212 13.5191C63.0995 14.3259 62.8886 15.096 62.8886 15.8294C62.8886 16.9663 63.2829 17.5714 64.0713 17.6447Z"/>
</mask>
<path d="M37.058 8.76082C36.7279 11.7313 36.5629 14.7568 36.5629 17.8373C36.5629 20.8994 36.3978 23.0998 36.0678 24.4383C35.7561 25.7769 35.1326 26.877 34.1975 27.7388C33.2807 28.6006 32.1805 29.0315 30.897 29.0315C30.1452 29.0315 29.4942 28.8207 28.9442 28.3989C28.3941 27.9955 28.119 27.4271 28.119 26.6937C28.119 26.2353 28.2382 25.8685 28.4766 25.5935C28.7333 25.3368 28.99 25.1809 29.2467 25.1259L29.6318 25.0709C30.2919 25.0342 30.842 24.86 31.282 24.5483C31.7404 24.2366 32.0613 23.8515 32.2447 23.3931C32.5381 22.6597 32.6848 21.9537 32.6848 21.2753V21.0553C32.6664 20.9269 32.6022 20.8627 32.4922 20.8627L32.2172 21.0003C31.9788 21.3486 31.6763 21.6237 31.3095 21.8254C30.9611 22.0088 30.6586 22.1188 30.4019 22.1554L30.0443 22.1829C29.2559 22.1829 28.5866 21.9813 28.0365 21.5779C27.4864 21.1561 27.1014 20.6152 26.8813 19.9551C26.4963 18.7999 26.3037 17.7272 26.3037 16.7371C26.3037 15.7469 26.3954 14.8209 26.5788 13.9591C26.7621 13.079 27.0464 12.2264 27.4314 11.4012C27.8348 10.5761 28.4032 9.90683 29.1367 9.39342C29.8701 8.88 30.6403 8.62329 31.4471 8.62329C32.2539 8.62329 32.8681 8.80666 33.2899 9.17338C33.3449 9.2834 33.4274 9.33841 33.5374 9.33841C33.6474 9.33841 33.7391 9.2834 33.8124 9.17338C34.4909 8.31158 35.2885 7.88067 36.2053 7.88067C36.7737 7.88067 37.058 8.17406 37.058 8.76082ZM31.6396 17.5072C32.098 17.5072 32.4647 17.2688 32.7398 16.7921C33.0331 16.3154 33.1707 15.6736 33.1523 14.8668C33.1523 14.06 32.9873 13.3632 32.6573 12.7765C32.3455 12.1897 31.9696 11.8963 31.5296 11.8963C31.0895 11.8963 30.7228 12.1439 30.4294 12.6389C30.1544 13.1157 30.0168 13.7483 30.0168 14.5367C30.0168 15.3069 30.1727 15.9945 30.4844 16.5996C30.8145 17.2047 31.1995 17.5072 31.6396 17.5072Z" fill="#433E3E"/>
<path d="M42.9987 8.43076C44.5939 8.43076 45.8041 9.12754 46.6293 10.5211C47.4727 11.9147 47.8945 13.6199 47.8945 15.6369C47.8945 18.2957 47.1335 20.3127 45.6116 21.6879C44.7681 22.4397 43.833 22.8155 42.8062 22.8155C41.7793 22.8155 40.9267 22.6047 40.2482 22.1829C39.5881 21.7612 39.0839 21.202 38.7355 20.5052C38.0204 19.1483 37.6628 17.6997 37.6628 16.1595C37.6628 14.3625 38.0754 12.6756 38.9005 11.0987C39.3039 10.3102 39.8632 9.66846 40.5783 9.17338C41.2934 8.6783 42.1002 8.43076 42.9987 8.43076ZM44.5939 14.2892C44.5939 13.7391 44.4839 13.244 44.2639 12.804C44.0438 12.3639 43.6771 12.1439 43.1637 12.1439C42.6686 12.1439 42.1827 12.5014 41.706 13.2165C41.2476 13.9133 41.0184 14.7659 41.0184 15.7744C41.0184 17.1863 41.4859 17.8923 42.4211 17.8923C42.9345 17.8923 43.4204 17.5714 43.8788 16.9296C44.3556 16.2878 44.5939 15.4077 44.5939 14.2892Z" fill="#433E3E"/>
<path d="M53.7963 8.43076C55.3916 8.43076 56.6017 9.12754 57.4269 10.5211C58.2703 11.9147 58.6921 13.6199 58.6921 15.6369C58.6921 18.2957 57.9311 20.3127 56.4092 21.6879C55.5657 22.4397 54.6306 22.8155 53.6038 22.8155C52.5769 22.8155 51.7243 22.6047 51.0459 22.1829C50.3858 21.7612 49.8815 21.202 49.5331 20.5052C48.818 19.1483 48.4604 17.6997 48.4604 16.1595C48.4604 14.3625 48.873 12.6756 49.6981 11.0987C50.1015 10.3102 50.6608 9.66846 51.3759 9.17338C52.091 8.6783 52.8978 8.43076 53.7963 8.43076ZM55.3916 14.2892C55.3916 13.7391 55.2815 13.244 55.0615 12.804C54.8415 12.3639 54.4747 12.1439 53.9613 12.1439C53.4662 12.1439 52.9803 12.5014 52.5036 13.2165C52.0452 13.9133 51.816 14.7659 51.816 15.7744C51.816 17.1863 52.2836 17.8923 53.2187 17.8923C53.7321 17.8923 54.218 17.5714 54.6764 16.9296C55.1532 16.2878 55.3916 15.4077 55.3916 14.2892Z" fill="#433E3E"/>
<path d="M69.7922 16.3795L69.8197 17.0396V17.1496C69.8197 18.1215 70.1131 18.8091 70.6999 19.2125C70.9749 19.4325 71.1124 19.6709 71.1124 19.9276C71.1124 20.1843 71.0483 20.4043 70.9199 20.5877C70.5165 21.1745 70.0123 21.642 69.4072 21.9904C68.6004 22.4672 67.8944 22.7055 67.2893 22.7055C66.6842 22.7055 66.3542 22.4122 66.2992 21.8254C66.2625 21.367 66.1708 21.1378 66.0241 21.1378L65.8316 21.2478C65.2082 22.1096 64.383 22.5405 63.3562 22.5405C62.6044 22.5405 61.9535 22.348 61.4034 21.9629C60.8717 21.5779 60.4683 21.0553 60.1932 20.3952C59.6615 19.1483 59.3956 17.7456 59.3956 16.187C59.3956 14.5184 59.8173 12.914 60.6608 11.3737C61.0825 10.6403 61.6509 10.0444 62.3661 9.58595C63.0812 9.1092 63.8696 8.87083 64.7314 8.87083C65.1348 8.87083 65.4649 8.92584 65.7216 9.03586L66.1067 9.20089C66.235 9.20089 66.3084 9.0542 66.3267 8.76082C66.3634 8.46744 66.3817 8.09154 66.3817 7.63314C66.3817 7.15639 66.3634 6.77133 66.3267 6.47795C66.29 6.16624 66.2442 5.93703 66.1892 5.79034C66.1342 5.64365 66.07 5.52447 65.9966 5.43279C65.8866 5.2861 65.7033 5.13024 65.4465 4.96521C65.2082 4.80019 65.089 4.57098 65.089 4.2776C65.089 3.67251 65.6024 3.09491 66.6292 2.54483C67.6744 1.99474 68.5362 1.7197 69.2146 1.7197C69.7281 1.7197 70.0123 1.9489 70.0673 2.4073C70.104 2.59067 70.1223 2.95739 70.1223 3.50748C70.1223 4.05757 70.0581 5.17608 69.9298 6.86301C69.8197 8.54995 69.7647 10.1635 69.7647 11.7038V14.4542L69.7922 15.8569V16.3795ZM64.0713 17.6447C64.7498 17.6447 65.2907 17.2597 65.6941 16.4895C66.1158 15.7194 66.3267 15.0318 66.3267 14.4267C66.3267 12.9965 65.9325 12.2814 65.144 12.2814C64.5022 12.2814 63.9613 12.6939 63.5212 13.5191C63.0995 14.3259 62.8886 15.096 62.8886 15.8294C62.8886 16.9663 63.2829 17.5714 64.0713 17.6447Z" fill="#433E3E"/>
<path d="M37.058 8.76082C36.7279 11.7313 36.5629 14.7568 36.5629 17.8373C36.5629 20.8994 36.3978 23.0998 36.0678 24.4383C35.7561 25.7769 35.1326 26.877 34.1975 27.7388C33.2807 28.6006 32.1805 29.0315 30.897 29.0315C30.1452 29.0315 29.4942 28.8207 28.9442 28.3989C28.3941 27.9955 28.119 27.4271 28.119 26.6937C28.119 26.2353 28.2382 25.8685 28.4766 25.5935C28.7333 25.3368 28.99 25.1809 29.2467 25.1259L29.6318 25.0709C30.2919 25.0342 30.842 24.86 31.282 24.5483C31.7404 24.2366 32.0613 23.8515 32.2447 23.3931C32.5381 22.6597 32.6848 21.9537 32.6848 21.2753V21.0553C32.6664 20.9269 32.6022 20.8627 32.4922 20.8627L32.2172 21.0003C31.9788 21.3486 31.6763 21.6237 31.3095 21.8254C30.9611 22.0088 30.6586 22.1188 30.4019 22.1554L30.0443 22.1829C29.2559 22.1829 28.5866 21.9813 28.0365 21.5779C27.4864 21.1561 27.1014 20.6152 26.8813 19.9551C26.4963 18.7999 26.3037 17.7272 26.3037 16.7371C26.3037 15.7469 26.3954 14.8209 26.5788 13.9591C26.7621 13.079 27.0464 12.2264 27.4314 11.4012C27.8348 10.5761 28.4032 9.90683 29.1367 9.39342C29.8701 8.88 30.6403 8.62329 31.4471 8.62329C32.2539 8.62329 32.8681 8.80666 33.2899 9.17338C33.3449 9.2834 33.4274 9.33841 33.5374 9.33841C33.6474 9.33841 33.7391 9.2834 33.8124 9.17338C34.4909 8.31158 35.2885 7.88067 36.2053 7.88067C36.7737 7.88067 37.058 8.17406 37.058 8.76082ZM31.6396 17.5072C32.098 17.5072 32.4647 17.2688 32.7398 16.7921C33.0331 16.3154 33.1707 15.6736 33.1523 14.8668C33.1523 14.06 32.9873 13.3632 32.6573 12.7765C32.3455 12.1897 31.9696 11.8963 31.5296 11.8963C31.0895 11.8963 30.7228 12.1439 30.4294 12.6389C30.1544 13.1157 30.0168 13.7483 30.0168 14.5367C30.0168 15.3069 30.1727 15.9945 30.4844 16.5996C30.8145 17.2047 31.1995 17.5072 31.6396 17.5072Z" stroke="#F7F7F7" stroke-width="1.37522" mask="url(#path-9-outside-1_31_440)"/>
<path d="M42.9987 8.43076C44.5939 8.43076 45.8041 9.12754 46.6293 10.5211C47.4727 11.9147 47.8945 13.6199 47.8945 15.6369C47.8945 18.2957 47.1335 20.3127 45.6116 21.6879C44.7681 22.4397 43.833 22.8155 42.8062 22.8155C41.7793 22.8155 40.9267 22.6047 40.2482 22.1829C39.5881 21.7612 39.0839 21.202 38.7355 20.5052C38.0204 19.1483 37.6628 17.6997 37.6628 16.1595C37.6628 14.3625 38.0754 12.6756 38.9005 11.0987C39.3039 10.3102 39.8632 9.66846 40.5783 9.17338C41.2934 8.6783 42.1002 8.43076 42.9987 8.43076ZM44.5939 14.2892C44.5939 13.7391 44.4839 13.244 44.2639 12.804C44.0438 12.3639 43.6771 12.1439 43.1637 12.1439C42.6686 12.1439 42.1827 12.5014 41.706 13.2165C41.2476 13.9133 41.0184 14.7659 41.0184 15.7744C41.0184 17.1863 41.4859 17.8923 42.4211 17.8923C42.9345 17.8923 43.4204 17.5714 43.8788 16.9296C44.3556 16.2878 44.5939 15.4077 44.5939 14.2892Z" stroke="#F7F7F7" stroke-width="1.37522" mask="url(#path-9-outside-1_31_440)"/>
<path d="M53.7963 8.43076C55.3916 8.43076 56.6017 9.12754 57.4269 10.5211C58.2703 11.9147 58.6921 13.6199 58.6921 15.6369C58.6921 18.2957 57.9311 20.3127 56.4092 21.6879C55.5657 22.4397 54.6306 22.8155 53.6038 22.8155C52.5769 22.8155 51.7243 22.6047 51.0459 22.1829C50.3858 21.7612 49.8815 21.202 49.5331 20.5052C48.818 19.1483 48.4604 17.6997 48.4604 16.1595C48.4604 14.3625 48.873 12.6756 49.6981 11.0987C50.1015 10.3102 50.6608 9.66846 51.3759 9.17338C52.091 8.6783 52.8978 8.43076 53.7963 8.43076ZM55.3916 14.2892C55.3916 13.7391 55.2815 13.244 55.0615 12.804C54.8415 12.3639 54.4747 12.1439 53.9613 12.1439C53.4662 12.1439 52.9803 12.5014 52.5036 13.2165C52.0452 13.9133 51.816 14.7659 51.816 15.7744C51.816 17.1863 52.2836 17.8923 53.2187 17.8923C53.7321 17.8923 54.218 17.5714 54.6764 16.9296C55.1532 16.2878 55.3916 15.4077 55.3916 14.2892Z" stroke="#F7F7F7" stroke-width="1.37522" mask="url(#path-9-outside-1_31_440)"/>
<path d="M69.7922 16.3795L69.8197 17.0396V17.1496C69.8197 18.1215 70.1131 18.8091 70.6999 19.2125C70.9749 19.4325 71.1124 19.6709 71.1124 19.9276C71.1124 20.1843 71.0483 20.4043 70.9199 20.5877C70.5165 21.1745 70.0123 21.642 69.4072 21.9904C68.6004 22.4672 67.8944 22.7055 67.2893 22.7055C66.6842 22.7055 66.3542 22.4122 66.2992 21.8254C66.2625 21.367 66.1708 21.1378 66.0241 21.1378L65.8316 21.2478C65.2082 22.1096 64.383 22.5405 63.3562 22.5405C62.6044 22.5405 61.9535 22.348 61.4034 21.9629C60.8717 21.5779 60.4683 21.0553 60.1932 20.3952C59.6615 19.1483 59.3956 17.7456 59.3956 16.187C59.3956 14.5184 59.8173 12.914 60.6608 11.3737C61.0825 10.6403 61.6509 10.0444 62.3661 9.58595C63.0812 9.1092 63.8696 8.87083 64.7314 8.87083C65.1348 8.87083 65.4649 8.92584 65.7216 9.03586L66.1067 9.20089C66.235 9.20089 66.3084 9.0542 66.3267 8.76082C66.3634 8.46744 66.3817 8.09154 66.3817 7.63314C66.3817 7.15639 66.3634 6.77133 66.3267 6.47795C66.29 6.16624 66.2442 5.93703 66.1892 5.79034C66.1342 5.64365 66.07 5.52447 65.9966 5.43279C65.8866 5.2861 65.7033 5.13024 65.4465 4.96521C65.2082 4.80019 65.089 4.57098 65.089 4.2776C65.089 3.67251 65.6024 3.09491 66.6292 2.54483C67.6744 1.99474 68.5362 1.7197 69.2146 1.7197C69.7281 1.7197 70.0123 1.9489 70.0673 2.4073C70.104 2.59067 70.1223 2.95739 70.1223 3.50748C70.1223 4.05757 70.0581 5.17608 69.9298 6.86301C69.8197 8.54995 69.7647 10.1635 69.7647 11.7038V14.4542L69.7922 15.8569V16.3795ZM64.0713 17.6447C64.7498 17.6447 65.2907 17.2597 65.6941 16.4895C66.1158 15.7194 66.3267 15.0318 66.3267 14.4267C66.3267 12.9965 65.9325 12.2814 65.144 12.2814C64.5022 12.2814 63.9613 12.6939 63.5212 13.5191C63.0995 14.3259 62.8886 15.096 62.8886 15.8294C62.8886 16.9663 63.2829 17.5714 64.0713 17.6447Z" stroke="#F7F7F7" stroke-width="1.37522" mask="url(#path-9-outside-1_31_440)"/>
<mask id="path-10-outside-2_31_440" maskUnits="userSpaceOnUse" x="70.1125" y="0.719696" width="45" height="23" fill="black">
<rect fill="white" x="70.1125" y="0.719696" width="45" height="23"/>
<path d="M76.5839 3.49502L76.5257 4.89199C76.5257 5.39645 76.6324 5.67779 76.8459 5.736C77.0787 5.7942 77.3018 5.82331 77.5153 5.82331C77.7287 5.82331 78.0488 5.80391 78.4757 5.7651C78.8831 5.7651 79.0869 6.02703 79.0869 6.5509C79.0869 7.54042 78.3787 8.30682 76.9623 8.85008C76.7683 8.92769 76.6324 9.10232 76.5548 9.37395C76.4384 10.5575 76.3802 11.9448 76.3802 13.5358C76.3802 15.1268 76.4384 16.1745 76.5548 16.679C76.6518 17.1446 77.0011 17.426 77.6026 17.523C77.7384 17.523 77.8645 17.5909 77.9809 17.7267C78.1943 17.9789 78.3011 18.2312 78.3011 18.4834C78.3011 18.7162 78.2817 18.949 78.2428 19.1819C78.204 19.3953 78.107 19.7057 77.9518 20.1132C77.816 20.5012 77.6317 20.8699 77.3988 21.2191C77.1854 21.549 76.8556 21.84 76.4093 22.0922C75.9631 22.3445 75.4586 22.4706 74.8959 22.4706C73.9258 22.4706 73.2273 21.8982 72.8005 20.7535C72.6452 20.3072 72.5676 19.7736 72.5676 19.1528L72.8005 11.3239C72.8005 10.3732 72.7423 9.59708 72.6258 8.9956C72.5288 8.39413 72.1602 7.83146 71.5199 7.30759C71.2483 7.11357 71.1125 6.84193 71.1125 6.49269C71.1125 6.14345 71.2871 5.7942 71.6363 5.44496C72.7035 4.78528 73.6833 3.74725 74.5758 2.33087C74.8474 1.96223 75.187 1.7779 75.5944 1.7779C76.2541 1.7779 76.5839 2.35027 76.5839 3.49502Z"/>
<path d="M80.1123 12.4007C80.1123 12.0903 80.0347 11.7993 79.8795 11.5276C79.7437 11.256 79.5593 11.0135 79.3265 10.8C79.0937 10.5866 78.9773 10.3538 78.9773 10.1015C78.9773 9.44186 79.4817 8.85979 80.4906 8.35532C81.4996 7.83146 82.3436 7.56952 83.0227 7.56952C83.7212 7.56952 84.0801 7.91877 84.0995 8.61726C84.0995 9.10232 84.051 9.97543 83.954 11.2366C83.8764 12.4783 83.8376 13.6328 83.8376 14.6999C83.8376 17.2804 84.0704 18.9005 84.5361 19.5602C84.8077 19.7154 84.9435 19.958 84.9435 20.2878C84.9435 20.9281 84.5846 21.4326 83.8667 21.8012C83.1682 22.1698 82.3727 22.3542 81.4802 22.3542C80.2966 22.3542 79.7048 21.9564 79.7048 21.1609C79.7048 21.1221 79.734 20.899 79.7922 20.4915C80.0638 18.9393 80.1996 17.2028 80.1996 15.282L80.1123 12.4007ZM84.3905 3.14577C84.3905 3.86366 84.0413 4.44573 83.3428 4.89199C82.6637 5.31884 82.004 5.53227 81.3638 5.53227C80.7235 5.53227 80.219 5.41586 79.8504 5.18303C79.5011 4.9308 79.3265 4.60096 79.3265 4.1935C79.3265 3.45621 79.6757 2.86444 80.3742 2.41818C81.0727 1.95252 81.7324 1.7197 82.3533 1.7197C82.9936 1.7197 83.4883 1.84581 83.8376 2.09804C84.2062 2.35027 84.3905 2.69952 84.3905 3.14577Z"/>
<path d="M89.9441 14.4962L89.8859 16.679C89.8859 18.0371 89.915 18.9878 89.9732 19.5311C90.0314 20.055 90.0605 20.3848 90.0605 20.5206C90.0605 21.1609 89.8374 21.6363 89.3911 21.9467C88.6538 22.4512 87.7322 22.7034 86.6263 22.7034C85.8308 22.7034 85.433 22.3639 85.433 21.6848L85.4912 21.2191C85.9957 18.852 86.2479 15.8835 86.2479 12.3134C86.2479 12.003 86.18 11.7216 86.0442 11.4694C85.9084 11.2172 85.695 10.9844 85.4039 10.7709C85.1905 10.5769 85.0838 10.3635 85.0838 10.1306C85.0838 9.50977 85.598 8.90829 86.6263 8.32622C87.6546 7.74415 88.4598 7.45311 89.0419 7.45311C89.6434 7.45311 89.9635 7.77325 90.0023 8.41353C90.0411 8.68516 90.0702 8.9665 90.0896 9.25754C90.1284 9.39335 90.1963 9.46126 90.2933 9.46126C90.3127 9.46126 90.371 9.43216 90.468 9.37395C90.7202 8.9859 91.147 8.62696 91.7485 8.29712C92.3694 7.96727 92.9709 7.80235 93.5529 7.80235C94.8529 7.80235 95.6969 8.44263 96.085 9.72319C96.1238 9.7814 96.1723 9.8105 96.2305 9.8105C96.2887 9.8105 96.3566 9.762 96.4342 9.66499C97.1715 8.42323 98.2871 7.80235 99.7811 7.80235C101.003 7.80235 101.77 8.43293 102.08 9.69409C102.313 10.6254 102.43 11.7313 102.43 13.0119L102.284 16.7081C102.284 18.2021 102.614 19.1237 103.274 19.4729C103.603 19.6475 103.768 19.8998 103.768 20.2296C103.768 20.7923 103.371 21.3064 102.575 21.7721C101.799 22.2184 100.974 22.4415 100.101 22.4415C99.2282 22.4415 98.7237 22.1116 98.5879 21.452C98.5491 21.2773 98.5297 20.8311 98.5297 20.1132L98.7043 15.4857C98.7237 15.2917 98.7334 15.0298 98.7334 14.6999C98.7334 12.9925 98.3744 12.1388 97.6566 12.1388C97.1909 12.1388 96.832 12.4201 96.5797 12.9828C96.3469 13.5261 96.2208 14.0402 96.2014 14.5253C96.182 15.0104 96.1723 15.6312 96.1723 16.3879C96.1723 17.1446 96.182 17.8043 96.2014 18.367C96.2402 18.9296 96.279 19.3856 96.3178 19.7348C96.3566 20.0647 96.376 20.2684 96.376 20.346C96.376 20.9281 96.1238 21.4132 95.6193 21.8012C95.1342 22.1892 94.4067 22.3833 93.4365 22.3833C92.4858 22.3833 92.0105 22.0728 92.0105 21.452L92.1269 20.7826C92.3985 19.5214 92.5343 17.4648 92.5343 14.6126C92.5343 12.9052 92.1657 12.0515 91.4284 12.0515C90.9433 12.0515 90.5747 12.3231 90.3224 12.8664C90.0702 13.4097 89.9441 13.9529 89.9441 14.4962Z"/>
<path d="M107.608 13.1865C107.608 13.3029 107.647 13.4 107.724 13.4776C107.802 13.5746 107.899 13.6231 108.015 13.6231C109.121 13.5261 109.859 13.0022 110.227 12.0515C110.324 11.8381 110.392 11.5858 110.431 11.2948C110.412 10.6157 110.14 10.2762 109.616 10.2762C109.015 10.2762 108.549 10.5672 108.219 11.1493C107.909 11.7313 107.705 12.4104 107.608 13.1865ZM109.587 7.59863C110.887 7.59863 111.896 7.92847 112.614 8.58815C113.351 9.24783 113.72 10.2471 113.72 11.5858C113.72 12.9246 113.186 14.0305 112.119 14.9036C111.071 15.7767 109.742 16.2133 108.132 16.2133C107.899 16.2133 107.783 16.3297 107.783 16.5625C107.783 17.0282 107.947 17.4357 108.277 17.7849C108.627 18.1147 109.092 18.2797 109.674 18.2797C110.276 18.2797 110.809 18.008 111.275 17.4648C111.76 16.9215 112.177 16.6499 112.526 16.6499C112.895 16.6499 113.186 16.8051 113.4 17.1155C113.613 17.426 113.72 17.8722 113.72 18.4543C113.72 19.017 113.574 19.5893 113.283 20.1714C113.012 20.7341 112.682 21.1609 112.294 21.452C111.906 21.743 111.469 21.9758 110.984 22.1504C110.266 22.4221 109.5 22.5579 108.685 22.5579C107.889 22.5579 107.142 22.3639 106.444 21.9758C105.745 21.5878 105.202 21.0639 104.814 20.4042C104.057 19.0849 103.679 17.6297 103.679 16.0387C103.679 14.4283 103.873 13.0313 104.261 11.8478C104.649 10.6642 105.309 9.66499 106.24 8.85008C107.191 8.01578 108.306 7.59863 109.587 7.59863Z"/>
</mask>
<path d="M76.5839 3.49502L76.5257 4.89199C76.5257 5.39645 76.6324 5.67779 76.8459 5.736C77.0787 5.7942 77.3018 5.82331 77.5153 5.82331C77.7287 5.82331 78.0488 5.80391 78.4757 5.7651C78.8831 5.7651 79.0869 6.02703 79.0869 6.5509C79.0869 7.54042 78.3787 8.30682 76.9623 8.85008C76.7683 8.92769 76.6324 9.10232 76.5548 9.37395C76.4384 10.5575 76.3802 11.9448 76.3802 13.5358C76.3802 15.1268 76.4384 16.1745 76.5548 16.679C76.6518 17.1446 77.0011 17.426 77.6026 17.523C77.7384 17.523 77.8645 17.5909 77.9809 17.7267C78.1943 17.9789 78.3011 18.2312 78.3011 18.4834C78.3011 18.7162 78.2817 18.949 78.2428 19.1819C78.204 19.3953 78.107 19.7057 77.9518 20.1132C77.816 20.5012 77.6317 20.8699 77.3988 21.2191C77.1854 21.549 76.8556 21.84 76.4093 22.0922C75.9631 22.3445 75.4586 22.4706 74.8959 22.4706C73.9258 22.4706 73.2273 21.8982 72.8005 20.7535C72.6452 20.3072 72.5676 19.7736 72.5676 19.1528L72.8005 11.3239C72.8005 10.3732 72.7423 9.59708 72.6258 8.9956C72.5288 8.39413 72.1602 7.83146 71.5199 7.30759C71.2483 7.11357 71.1125 6.84193 71.1125 6.49269C71.1125 6.14345 71.2871 5.7942 71.6363 5.44496C72.7035 4.78528 73.6833 3.74725 74.5758 2.33087C74.8474 1.96223 75.187 1.7779 75.5944 1.7779C76.2541 1.7779 76.5839 2.35027 76.5839 3.49502Z" fill="#433E3E"/>
<path d="M80.1123 12.4007C80.1123 12.0903 80.0347 11.7993 79.8795 11.5276C79.7437 11.256 79.5593 11.0135 79.3265 10.8C79.0937 10.5866 78.9773 10.3538 78.9773 10.1015C78.9773 9.44186 79.4817 8.85979 80.4906 8.35532C81.4996 7.83146 82.3436 7.56952 83.0227 7.56952C83.7212 7.56952 84.0801 7.91877 84.0995 8.61726C84.0995 9.10232 84.051 9.97543 83.954 11.2366C83.8764 12.4783 83.8376 13.6328 83.8376 14.6999C83.8376 17.2804 84.0704 18.9005 84.5361 19.5602C84.8077 19.7154 84.9435 19.958 84.9435 20.2878C84.9435 20.9281 84.5846 21.4326 83.8667 21.8012C83.1682 22.1698 82.3727 22.3542 81.4802 22.3542C80.2966 22.3542 79.7048 21.9564 79.7048 21.1609C79.7048 21.1221 79.734 20.899 79.7922 20.4915C80.0638 18.9393 80.1996 17.2028 80.1996 15.282L80.1123 12.4007ZM84.3905 3.14577C84.3905 3.86366 84.0413 4.44573 83.3428 4.89199C82.6637 5.31884 82.004 5.53227 81.3638 5.53227C80.7235 5.53227 80.219 5.41586 79.8504 5.18303C79.5011 4.9308 79.3265 4.60096 79.3265 4.1935C79.3265 3.45621 79.6757 2.86444 80.3742 2.41818C81.0727 1.95252 81.7324 1.7197 82.3533 1.7197C82.9936 1.7197 83.4883 1.84581 83.8376 2.09804C84.2062 2.35027 84.3905 2.69952 84.3905 3.14577Z" fill="#433E3E"/>
<path d="M89.9441 14.4962L89.8859 16.679C89.8859 18.0371 89.915 18.9878 89.9732 19.5311C90.0314 20.055 90.0605 20.3848 90.0605 20.5206C90.0605 21.1609 89.8374 21.6363 89.3911 21.9467C88.6538 22.4512 87.7322 22.7034 86.6263 22.7034C85.8308 22.7034 85.433 22.3639 85.433 21.6848L85.4912 21.2191C85.9957 18.852 86.2479 15.8835 86.2479 12.3134C86.2479 12.003 86.18 11.7216 86.0442 11.4694C85.9084 11.2172 85.695 10.9844 85.4039 10.7709C85.1905 10.5769 85.0838 10.3635 85.0838 10.1306C85.0838 9.50977 85.598 8.90829 86.6263 8.32622C87.6546 7.74415 88.4598 7.45311 89.0419 7.45311C89.6434 7.45311 89.9635 7.77325 90.0023 8.41353C90.0411 8.68516 90.0702 8.9665 90.0896 9.25754C90.1284 9.39335 90.1963 9.46126 90.2933 9.46126C90.3127 9.46126 90.371 9.43216 90.468 9.37395C90.7202 8.9859 91.147 8.62696 91.7485 8.29712C92.3694 7.96727 92.9709 7.80235 93.5529 7.80235C94.8529 7.80235 95.6969 8.44263 96.085 9.72319C96.1238 9.7814 96.1723 9.8105 96.2305 9.8105C96.2887 9.8105 96.3566 9.762 96.4342 9.66499C97.1715 8.42323 98.2871 7.80235 99.7811 7.80235C101.003 7.80235 101.77 8.43293 102.08 9.69409C102.313 10.6254 102.43 11.7313 102.43 13.0119L102.284 16.7081C102.284 18.2021 102.614 19.1237 103.274 19.4729C103.603 19.6475 103.768 19.8998 103.768 20.2296C103.768 20.7923 103.371 21.3064 102.575 21.7721C101.799 22.2184 100.974 22.4415 100.101 22.4415C99.2282 22.4415 98.7237 22.1116 98.5879 21.452C98.5491 21.2773 98.5297 20.8311 98.5297 20.1132L98.7043 15.4857C98.7237 15.2917 98.7334 15.0298 98.7334 14.6999C98.7334 12.9925 98.3744 12.1388 97.6566 12.1388C97.1909 12.1388 96.832 12.4201 96.5797 12.9828C96.3469 13.5261 96.2208 14.0402 96.2014 14.5253C96.182 15.0104 96.1723 15.6312 96.1723 16.3879C96.1723 17.1446 96.182 17.8043 96.2014 18.367C96.2402 18.9296 96.279 19.3856 96.3178 19.7348C96.3566 20.0647 96.376 20.2684 96.376 20.346C96.376 20.9281 96.1238 21.4132 95.6193 21.8012C95.1342 22.1892 94.4067 22.3833 93.4365 22.3833C92.4858 22.3833 92.0105 22.0728 92.0105 21.452L92.1269 20.7826C92.3985 19.5214 92.5343 17.4648 92.5343 14.6126C92.5343 12.9052 92.1657 12.0515 91.4284 12.0515C90.9433 12.0515 90.5747 12.3231 90.3224 12.8664C90.0702 13.4097 89.9441 13.9529 89.9441 14.4962Z" fill="#433E3E"/>
<path d="M107.608 13.1865C107.608 13.3029 107.647 13.4 107.724 13.4776C107.802 13.5746 107.899 13.6231 108.015 13.6231C109.121 13.5261 109.859 13.0022 110.227 12.0515C110.324 11.8381 110.392 11.5858 110.431 11.2948C110.412 10.6157 110.14 10.2762 109.616 10.2762C109.015 10.2762 108.549 10.5672 108.219 11.1493C107.909 11.7313 107.705 12.4104 107.608 13.1865ZM109.587 7.59863C110.887 7.59863 111.896 7.92847 112.614 8.58815C113.351 9.24783 113.72 10.2471 113.72 11.5858C113.72 12.9246 113.186 14.0305 112.119 14.9036C111.071 15.7767 109.742 16.2133 108.132 16.2133C107.899 16.2133 107.783 16.3297 107.783 16.5625C107.783 17.0282 107.947 17.4357 108.277 17.7849C108.627 18.1147 109.092 18.2797 109.674 18.2797C110.276 18.2797 110.809 18.008 111.275 17.4648C111.76 16.9215 112.177 16.6499 112.526 16.6499C112.895 16.6499 113.186 16.8051 113.4 17.1155C113.613 17.426 113.72 17.8722 113.72 18.4543C113.72 19.017 113.574 19.5893 113.283 20.1714C113.012 20.7341 112.682 21.1609 112.294 21.452C111.906 21.743 111.469 21.9758 110.984 22.1504C110.266 22.4221 109.5 22.5579 108.685 22.5579C107.889 22.5579 107.142 22.3639 106.444 21.9758C105.745 21.5878 105.202 21.0639 104.814 20.4042C104.057 19.0849 103.679 17.6297 103.679 16.0387C103.679 14.4283 103.873 13.0313 104.261 11.8478C104.649 10.6642 105.309 9.66499 106.24 8.85008C107.191 8.01578 108.306 7.59863 109.587 7.59863Z" fill="#433E3E"/>
<path d="M76.5839 3.49502L76.5257 4.89199C76.5257 5.39645 76.6324 5.67779 76.8459 5.736C77.0787 5.7942 77.3018 5.82331 77.5153 5.82331C77.7287 5.82331 78.0488 5.80391 78.4757 5.7651C78.8831 5.7651 79.0869 6.02703 79.0869 6.5509C79.0869 7.54042 78.3787 8.30682 76.9623 8.85008C76.7683 8.92769 76.6324 9.10232 76.5548 9.37395C76.4384 10.5575 76.3802 11.9448 76.3802 13.5358C76.3802 15.1268 76.4384 16.1745 76.5548 16.679C76.6518 17.1446 77.0011 17.426 77.6026 17.523C77.7384 17.523 77.8645 17.5909 77.9809 17.7267C78.1943 17.9789 78.3011 18.2312 78.3011 18.4834C78.3011 18.7162 78.2817 18.949 78.2428 19.1819C78.204 19.3953 78.107 19.7057 77.9518 20.1132C77.816 20.5012 77.6317 20.8699 77.3988 21.2191C77.1854 21.549 76.8556 21.84 76.4093 22.0922C75.9631 22.3445 75.4586 22.4706 74.8959 22.4706C73.9258 22.4706 73.2273 21.8982 72.8005 20.7535C72.6452 20.3072 72.5676 19.7736 72.5676 19.1528L72.8005 11.3239C72.8005 10.3732 72.7423 9.59708 72.6258 8.9956C72.5288 8.39413 72.1602 7.83146 71.5199 7.30759C71.2483 7.11357 71.1125 6.84193 71.1125 6.49269C71.1125 6.14345 71.2871 5.7942 71.6363 5.44496C72.7035 4.78528 73.6833 3.74725 74.5758 2.33087C74.8474 1.96223 75.187 1.7779 75.5944 1.7779C76.2541 1.7779 76.5839 2.35027 76.5839 3.49502Z" stroke="#F7F7F7" stroke-width="1.45518" mask="url(#path-10-outside-2_31_440)"/>
<path d="M80.1123 12.4007C80.1123 12.0903 80.0347 11.7993 79.8795 11.5276C79.7437 11.256 79.5593 11.0135 79.3265 10.8C79.0937 10.5866 78.9773 10.3538 78.9773 10.1015C78.9773 9.44186 79.4817 8.85979 80.4906 8.35532C81.4996 7.83146 82.3436 7.56952 83.0227 7.56952C83.7212 7.56952 84.0801 7.91877 84.0995 8.61726C84.0995 9.10232 84.051 9.97543 83.954 11.2366C83.8764 12.4783 83.8376 13.6328 83.8376 14.6999C83.8376 17.2804 84.0704 18.9005 84.5361 19.5602C84.8077 19.7154 84.9435 19.958 84.9435 20.2878C84.9435 20.9281 84.5846 21.4326 83.8667 21.8012C83.1682 22.1698 82.3727 22.3542 81.4802 22.3542C80.2966 22.3542 79.7048 21.9564 79.7048 21.1609C79.7048 21.1221 79.734 20.899 79.7922 20.4915C80.0638 18.9393 80.1996 17.2028 80.1996 15.282L80.1123 12.4007ZM84.3905 3.14577C84.3905 3.86366 84.0413 4.44573 83.3428 4.89199C82.6637 5.31884 82.004 5.53227 81.3638 5.53227C80.7235 5.53227 80.219 5.41586 79.8504 5.18303C79.5011 4.9308 79.3265 4.60096 79.3265 4.1935C79.3265 3.45621 79.6757 2.86444 80.3742 2.41818C81.0727 1.95252 81.7324 1.7197 82.3533 1.7197C82.9936 1.7197 83.4883 1.84581 83.8376 2.09804C84.2062 2.35027 84.3905 2.69952 84.3905 3.14577Z" stroke="#F7F7F7" stroke-width="1.45518" mask="url(#path-10-outside-2_31_440)"/>
<path d="M89.9441 14.4962L89.8859 16.679C89.8859 18.0371 89.915 18.9878 89.9732 19.5311C90.0314 20.055 90.0605 20.3848 90.0605 20.5206C90.0605 21.1609 89.8374 21.6363 89.3911 21.9467C88.6538 22.4512 87.7322 22.7034 86.6263 22.7034C85.8308 22.7034 85.433 22.3639 85.433 21.6848L85.4912 21.2191C85.9957 18.852 86.2479 15.8835 86.2479 12.3134C86.2479 12.003 86.18 11.7216 86.0442 11.4694C85.9084 11.2172 85.695 10.9844 85.4039 10.7709C85.1905 10.5769 85.0838 10.3635 85.0838 10.1306C85.0838 9.50977 85.598 8.90829 86.6263 8.32622C87.6546 7.74415 88.4598 7.45311 89.0419 7.45311C89.6434 7.45311 89.9635 7.77325 90.0023 8.41353C90.0411 8.68516 90.0702 8.9665 90.0896 9.25754C90.1284 9.39335 90.1963 9.46126 90.2933 9.46126C90.3127 9.46126 90.371 9.43216 90.468 9.37395C90.7202 8.9859 91.147 8.62696 91.7485 8.29712C92.3694 7.96727 92.9709 7.80235 93.5529 7.80235C94.8529 7.80235 95.6969 8.44263 96.085 9.72319C96.1238 9.7814 96.1723 9.8105 96.2305 9.8105C96.2887 9.8105 96.3566 9.762 96.4342 9.66499C97.1715 8.42323 98.2871 7.80235 99.7811 7.80235C101.003 7.80235 101.77 8.43293 102.08 9.69409C102.313 10.6254 102.43 11.7313 102.43 13.0119L102.284 16.7081C102.284 18.2021 102.614 19.1237 103.274 19.4729C103.603 19.6475 103.768 19.8998 103.768 20.2296C103.768 20.7923 103.371 21.3064 102.575 21.7721C101.799 22.2184 100.974 22.4415 100.101 22.4415C99.2282 22.4415 98.7237 22.1116 98.5879 21.452C98.5491 21.2773 98.5297 20.8311 98.5297 20.1132L98.7043 15.4857C98.7237 15.2917 98.7334 15.0298 98.7334 14.6999C98.7334 12.9925 98.3744 12.1388 97.6566 12.1388C97.1909 12.1388 96.832 12.4201 96.5797 12.9828C96.3469 13.5261 96.2208 14.0402 96.2014 14.5253C96.182 15.0104 96.1723 15.6312 96.1723 16.3879C96.1723 17.1446 96.182 17.8043 96.2014 18.367C96.2402 18.9296 96.279 19.3856 96.3178 19.7348C96.3566 20.0647 96.376 20.2684 96.376 20.346C96.376 20.9281 96.1238 21.4132 95.6193 21.8012C95.1342 22.1892 94.4067 22.3833 93.4365 22.3833C92.4858 22.3833 92.0105 22.0728 92.0105 21.452L92.1269 20.7826C92.3985 19.5214 92.5343 17.4648 92.5343 14.6126C92.5343 12.9052 92.1657 12.0515 91.4284 12.0515C90.9433 12.0515 90.5747 12.3231 90.3224 12.8664C90.0702 13.4097 89.9441 13.9529 89.9441 14.4962Z" stroke="#F7F7F7" stroke-width="1.45518" mask="url(#path-10-outside-2_31_440)"/>
<path d="M107.608 13.1865C107.608 13.3029 107.647 13.4 107.724 13.4776C107.802 13.5746 107.899 13.6231 108.015 13.6231C109.121 13.5261 109.859 13.0022 110.227 12.0515C110.324 11.8381 110.392 11.5858 110.431 11.2948C110.412 10.6157 110.14 10.2762 109.616 10.2762C109.015 10.2762 108.549 10.5672 108.219 11.1493C107.909 11.7313 107.705 12.4104 107.608 13.1865ZM109.587 7.59863C110.887 7.59863 111.896 7.92847 112.614 8.58815C113.351 9.24783 113.72 10.2471 113.72 11.5858C113.72 12.9246 113.186 14.0305 112.119 14.9036C111.071 15.7767 109.742 16.2133 108.132 16.2133C107.899 16.2133 107.783 16.3297 107.783 16.5625C107.783 17.0282 107.947 17.4357 108.277 17.7849C108.627 18.1147 109.092 18.2797 109.674 18.2797C110.276 18.2797 110.809 18.008 111.275 17.4648C111.76 16.9215 112.177 16.6499 112.526 16.6499C112.895 16.6499 113.186 16.8051 113.4 17.1155C113.613 17.426 113.72 17.8722 113.72 18.4543C113.72 19.017 113.574 19.5893 113.283 20.1714C113.012 20.7341 112.682 21.1609 112.294 21.452C111.906 21.743 111.469 21.9758 110.984 22.1504C110.266 22.4221 109.5 22.5579 108.685 22.5579C107.889 22.5579 107.142 22.3639 106.444 21.9758C105.745 21.5878 105.202 21.0639 104.814 20.4042C104.057 19.0849 103.679 17.6297 103.679 16.0387C103.679 14.4283 103.873 13.0313 104.261 11.8478C104.649 10.6642 105.309 9.66499 106.24 8.85008C107.191 8.01578 108.306 7.59863 109.587 7.59863Z" stroke="#F7F7F7" stroke-width="1.45518" mask="url(#path-10-outside-2_31_440)"/>
<defs>
<clipPath id="clip0_31_440">
<rect width="31.2241" height="31.2241" fill="white" transform="translate(0 0.763458)"/>
</clipPath>
</defs>
</svg>
