<svg width="378" height="101" viewBox="0 0 378 101" fill="none" xmlns="http://www.w3.org/2000/svg">
<g clip-path="url(#clip0_314_1912)">
<path fill-rule="evenodd" clip-rule="evenodd" d="M23.1717 41.8626C23.1683 41.8725 20.3482 39.308 17.0417 35.3368C12.4619 29.8367 9.66077 20.1928 17.913 12.8408C25.8265 5.79045 35.531 11.4975 38.9776 15.3856C41.038 17.7099 42.241 19.1545 43.6241 20.7384C43.6241 20.7384 44.5562 19.4893 45.9603 16.0598C46.2851 15.2665 46.6471 14.4187 47.0465 13.5338C49.9899 7.00988 57.4376 0.27325 67.6582 4.47923C77.4594 8.51267 76.571 19.7358 74.5818 24.5357C73.3926 27.4051 72.8451 28.4526 72.0255 30.3891C72.0255 30.3891 75.9757 29.7778 81.1217 29.3062C88.249 28.6531 97.7809 31.8149 99.1569 42.781C100.476 53.2973 90.272 58.0539 85.1152 58.6886C82.0322 59.0673 80.8509 59.1068 78.7619 59.3477C78.7619 59.3477 81.442 62.0097 84.2455 66.3509C88.1281 72.3635 89.7454 82.275 80.6668 88.578C71.9603 94.6218 63.0152 87.7857 60.0628 83.5104C58.2978 80.9543 56.533 78.1867 56.3223 78.3293C56.3326 78.327 55.4313 82.0309 53.5283 86.8353C50.8923 93.489 43.7671 100.566 33.3614 96.8414C23.3826 93.2699 23.7464 82.0176 25.5094 77.1295C26.5634 74.208 27.8033 71.2512 28.4597 70.7313C28.466 70.7398 24.8183 71.8179 19.6763 72.3325C12.5548 73.0453 2.99679 69.9637 1.52902 59.0095C0.121436 48.5047 10.2852 43.6625 15.4365 42.9852C18.5161 42.5804 23.1717 41.8626 23.1717 41.8626Z" fill="#DC7851" stroke="#CFEAE8" stroke-width="1.73307" stroke-miterlimit="1.5" stroke-linecap="round" stroke-linejoin="round"/>
<path d="M54.9 70.3332C65.6569 67.8841 72.3917 57.1786 69.9426 46.4218C67.4935 35.6649 56.788 28.9301 46.0312 31.3792C35.2743 33.8283 28.5396 44.5338 30.9886 55.2906C33.4377 66.0475 44.1432 72.7822 54.9 70.3332Z" fill="#F5B45D" stroke="#CFEAE8" stroke-width="1.73271" stroke-miterlimit="1.5" stroke-linecap="round" stroke-linejoin="round"/>
<path fill-rule="evenodd" clip-rule="evenodd" d="M58.4969 46.365C58.5196 46.3484 58.5647 46.3151 58.594 46.2851C58.6436 46.2345 58.7501 46.1509 58.7943 46.0609C58.8778 45.8911 59.0464 45.5373 59.0948 45.2662C59.2268 44.5282 59.0974 43.8373 58.9202 43.1228C58.8231 42.7314 58.7438 42.2891 58.6001 41.8895C58.4059 41.3499 58.1519 40.4869 57.7556 39.8846C57.3307 39.239 55.8634 37.6534 55.1808 38.8837C54.7287 39.6987 54.8748 40.611 55.0399 41.4832C55.1609 42.1226 55.2561 42.767 55.3706 43.4075C55.4438 43.8176 55.4937 44.2361 55.6324 44.6311C55.731 44.9116 55.8836 45.1724 56.0451 45.4208C56.2665 45.7612 56.5301 46.1394 56.8839 46.3543C57.1178 46.4963 57.3933 46.5674 57.6629 46.6008C57.9701 46.6389 58.3213 46.4563 58.4969 46.365Z" fill="#211F1F"/>
<path fill-rule="evenodd" clip-rule="evenodd" d="M40.9218 50.0531C40.8942 50.048 40.8391 50.0375 40.7997 50.0232C40.7331 49.999 40.6008 49.9697 40.5221 49.9078C40.3733 49.7909 40.0681 49.5449 39.9071 49.3215C39.4687 48.7134 39.2862 48.0345 39.1366 47.3138C39.0547 46.9189 38.9348 46.4859 38.8913 46.0635C38.8327 45.493 38.688 44.6051 38.7846 43.8906C38.8881 43.1247 39.5244 41.0601 40.6723 41.8737C41.4327 42.4126 41.6959 43.2982 41.9247 44.156C42.0924 44.7847 42.2856 45.4068 42.4596 46.0337C42.5712 46.4351 42.7073 46.834 42.7533 47.2501C42.7859 47.5456 42.7612 47.8468 42.7232 48.1406C42.671 48.5433 42.5971 48.9984 42.3712 49.3452C42.2218 49.5745 42.0043 49.7579 41.7757 49.9047C41.5152 50.072 41.1196 50.0595 40.9218 50.0531Z" fill="#211F1F"/>
<path d="M63.0282 51.6028C62.6766 52.3756 62.5361 53.2428 62.2007 54.0301C61.6468 55.3302 60.7412 56.5619 59.695 57.5078C59.241 57.9183 58.7648 58.2973 58.2326 58.6022C56.5794 59.5492 54.6633 59.9201 52.8341 60.3715C49.54 61.1846 46.3508 61.7051 43.2038 60.0815C42.1955 59.5613 41.2497 58.9255 40.3155 58.2844C39.9072 58.0041 39.318 57.644 39.0983 57.1774C39.055 57.0857 39.315 56.6797 39.351 56.5614" stroke="#211F1F" stroke-width="1.73307" stroke-miterlimit="1.5" stroke-linecap="round" stroke-linejoin="round"/>
<path d="M37.7683 57.5061C37.7703 57.5029 37.9695 57.5261 37.9838 57.5256C38.1992 57.5173 38.425 57.4593 38.617 57.3624C39.2137 57.0614 39.587 56.3832 39.6869 55.7434" stroke="#211F1F" stroke-width="1.73307" stroke-miterlimit="1.5" stroke-linecap="round" stroke-linejoin="round"/>
<path d="M62.0045 50.5686C62.0447 50.7548 62.2861 50.9559 62.4129 51.0788C62.6048 51.2649 62.826 51.4164 63.0634 51.5184C63.4771 51.6961 63.9403 51.7236 64.3843 51.5222" stroke="#211F1F" stroke-width="1.73307" stroke-miterlimit="1.5" stroke-linecap="round" stroke-linejoin="round"/>
</g>
<rect x="95.4972" y="30.3105" width="14.8681" height="28.5259" fill="#F7F7F7"/>
<mask id="path-9-outside-1_314_1912" maskUnits="userSpaceOnUse" x="81.8508" y="0.321655" width="150" height="94" fill="black">
<rect fill="white" x="81.8508" y="0.321655" width="150" height="94"/>
<path d="M119.542 26.0349C118.477 35.6171 117.945 45.3767 117.945 55.3138C117.945 65.1917 117.412 72.2896 116.348 76.6075C115.342 80.9254 113.331 84.4743 110.315 87.2544C107.357 90.0344 103.808 91.4244 99.6677 91.4244C97.2425 91.4244 95.1427 90.7442 93.3683 89.3837C91.5938 88.0824 90.7065 86.2488 90.7065 83.8829C90.7065 82.4041 91.091 81.2211 91.86 80.3339C92.688 79.5058 93.5161 79.003 94.3442 78.8256L95.5864 78.6482C97.7157 78.5299 99.4902 77.9679 100.91 76.9624C102.389 75.9569 103.424 74.7147 104.015 73.236C104.962 70.87 105.435 68.5928 105.435 66.4043V65.6945C105.376 65.2804 105.169 65.0734 104.814 65.0734L103.926 65.517C103.157 66.6409 102.181 67.5281 100.999 68.1787C99.8747 68.7702 98.8987 69.1251 98.0706 69.2434L96.9172 69.3322C94.3738 69.3322 92.2149 68.6815 90.4404 67.3802C88.6659 66.0198 87.4238 64.2749 86.714 62.1455C85.4718 58.4191 84.8508 54.9589 84.8508 51.7648C84.8508 48.5708 85.1465 45.5838 85.738 42.8037C86.3295 39.9646 87.2463 37.2141 88.4885 34.5524C89.7897 31.8907 91.6234 29.7318 93.9893 28.0756C96.3553 26.4194 98.8396 25.5913 101.442 25.5913C104.045 25.5913 106.026 26.1828 107.387 27.3658C107.564 27.7207 107.83 27.8981 108.185 27.8981C108.54 27.8981 108.836 27.7207 109.072 27.3658C111.261 24.5858 113.834 23.1958 116.791 23.1958C118.625 23.1958 119.542 24.1422 119.542 26.0349ZM102.063 54.2491C103.542 54.2491 104.725 53.4802 105.612 51.9423C106.559 50.4044 107.002 48.3342 106.943 45.7316C106.943 43.1291 106.411 40.8814 105.346 38.9886C104.34 37.0958 103.128 36.1495 101.708 36.1495C100.289 36.1495 99.1057 36.948 98.1593 38.545C97.2721 40.0829 96.8285 42.1235 96.8285 44.6669C96.8285 47.1512 97.3313 49.3693 98.3368 51.3212C99.4015 53.2731 100.644 54.2491 102.063 54.2491Z"/>
<path d="M138.705 24.9703C143.851 24.9703 147.755 27.2179 150.417 31.7133C153.138 36.2086 154.498 41.7095 154.498 48.2159C154.498 56.7925 152.044 63.2989 147.134 67.7351C144.413 70.1602 141.397 71.3728 138.084 71.3728C134.772 71.3728 132.022 70.6926 129.833 69.3322C127.704 67.9717 126.077 66.1677 124.953 63.92C122.646 59.543 121.493 54.8702 121.493 49.9016C121.493 44.105 122.824 38.6633 125.486 33.5765C126.787 31.0331 128.591 28.9628 130.898 27.3658C133.205 25.7688 135.807 24.9703 138.705 24.9703ZM143.851 43.8684C143.851 42.0939 143.497 40.4969 142.787 39.0773C142.077 37.6578 140.894 36.948 139.238 36.948C137.641 36.948 136.073 38.1014 134.535 40.4082C133.057 42.6559 132.317 45.4063 132.317 48.6595C132.317 53.214 133.826 55.4912 136.842 55.4912C138.498 55.4912 140.066 54.4561 141.545 52.3859C143.082 50.3157 143.851 47.4765 143.851 43.8684Z"/>
<path d="M173.536 24.9703C178.682 24.9703 182.586 27.2179 185.248 31.7133C187.969 36.2086 189.329 41.7095 189.329 48.2159C189.329 56.7925 186.875 63.2989 181.965 67.7351C179.244 70.1602 176.228 71.3728 172.915 71.3728C169.603 71.3728 166.853 70.6926 164.664 69.3322C162.535 67.9717 160.908 66.1677 159.784 63.92C157.477 59.543 156.324 54.8702 156.324 49.9016C156.324 44.105 157.655 38.6633 160.317 33.5765C161.618 31.0331 163.422 28.9628 165.729 27.3658C168.036 25.7688 170.638 24.9703 173.536 24.9703ZM178.682 43.8684C178.682 42.0939 178.328 40.4969 177.618 39.0773C176.908 37.6578 175.725 36.948 174.069 36.948C172.472 36.948 170.904 38.1014 169.366 40.4082C167.888 42.6559 167.148 45.4063 167.148 48.6595C167.148 53.214 168.657 55.4912 171.673 55.4912C173.329 55.4912 174.897 54.4561 176.376 52.3859C177.913 50.3157 178.682 47.4765 178.682 43.8684Z"/>
<path d="M225.136 50.6114L225.225 52.7408V53.0957C225.225 56.2306 226.171 58.4487 228.064 59.75C228.951 60.4598 229.395 61.2287 229.395 62.0568C229.395 62.8849 229.188 63.5947 228.774 64.1862C227.473 66.0789 225.846 67.5873 223.894 68.7111C221.292 70.249 219.014 71.0179 217.062 71.0179C215.11 71.0179 214.046 70.0715 213.868 68.1787C213.75 66.7 213.454 65.9606 212.981 65.9606L212.36 66.3155C210.349 69.0956 207.687 70.4856 204.375 70.4856C201.95 70.4856 199.85 69.8645 198.076 68.6224C196.36 67.3802 195.059 65.6945 194.172 63.5651C192.456 59.543 191.599 55.0181 191.599 49.9904C191.599 44.6078 192.959 39.4322 195.68 34.4637C197.04 32.0977 198.874 30.1754 201.181 28.6967C203.488 27.1588 206.031 26.3898 208.811 26.3898C210.112 26.3898 211.177 26.5673 212.005 26.9222L213.247 27.4545C213.661 27.4545 213.898 26.9813 213.957 26.0349C214.075 25.0886 214.135 23.876 214.135 22.3973C214.135 20.8594 214.075 19.6173 213.957 18.6709C213.839 17.6653 213.691 16.926 213.513 16.4528C213.336 15.9796 213.129 15.5951 212.892 15.2994C212.537 14.8262 211.946 14.3234 211.118 13.7911C210.349 13.2587 209.964 12.5194 209.964 11.573C209.964 9.62104 211.621 7.75784 214.933 5.98337C218.305 4.20889 221.085 3.32166 223.273 3.32166C224.929 3.32166 225.846 4.06102 226.024 5.53975C226.142 6.13124 226.201 7.31423 226.201 9.0887C226.201 10.8632 225.994 14.4713 225.58 19.913C225.225 25.3547 225.048 30.5599 225.048 35.5284V44.4008L225.136 48.9257V50.6114ZM206.682 54.6927C208.87 54.6927 210.615 53.4506 211.916 50.9663C213.277 48.4821 213.957 46.264 213.957 44.312C213.957 39.6984 212.685 37.3916 210.142 37.3916C208.072 37.3916 206.327 38.7224 204.907 41.3842C203.547 43.9867 202.867 46.471 202.867 48.837C202.867 52.5042 204.138 54.4561 206.682 54.6927Z"/>
</mask>
<path d="M119.542 26.0349C118.477 35.6171 117.945 45.3767 117.945 55.3138C117.945 65.1917 117.412 72.2896 116.348 76.6075C115.342 80.9254 113.331 84.4743 110.315 87.2544C107.357 90.0344 103.808 91.4244 99.6677 91.4244C97.2425 91.4244 95.1427 90.7442 93.3683 89.3837C91.5938 88.0824 90.7065 86.2488 90.7065 83.8829C90.7065 82.4041 91.091 81.2211 91.86 80.3339C92.688 79.5058 93.5161 79.003 94.3442 78.8256L95.5864 78.6482C97.7157 78.5299 99.4902 77.9679 100.91 76.9624C102.389 75.9569 103.424 74.7147 104.015 73.236C104.962 70.87 105.435 68.5928 105.435 66.4043V65.6945C105.376 65.2804 105.169 65.0734 104.814 65.0734L103.926 65.517C103.157 66.6409 102.181 67.5281 100.999 68.1787C99.8747 68.7702 98.8987 69.1251 98.0706 69.2434L96.9172 69.3322C94.3738 69.3322 92.2149 68.6815 90.4404 67.3802C88.6659 66.0198 87.4238 64.2749 86.714 62.1455C85.4718 58.4191 84.8508 54.9589 84.8508 51.7648C84.8508 48.5708 85.1465 45.5838 85.738 42.8037C86.3295 39.9646 87.2463 37.2141 88.4885 34.5524C89.7897 31.8907 91.6234 29.7318 93.9893 28.0756C96.3553 26.4194 98.8396 25.5913 101.442 25.5913C104.045 25.5913 106.026 26.1828 107.387 27.3658C107.564 27.7207 107.83 27.8981 108.185 27.8981C108.54 27.8981 108.836 27.7207 109.072 27.3658C111.261 24.5858 113.834 23.1958 116.791 23.1958C118.625 23.1958 119.542 24.1422 119.542 26.0349ZM102.063 54.2491C103.542 54.2491 104.725 53.4802 105.612 51.9423C106.559 50.4044 107.002 48.3342 106.943 45.7316C106.943 43.1291 106.411 40.8814 105.346 38.9886C104.34 37.0958 103.128 36.1495 101.708 36.1495C100.289 36.1495 99.1057 36.948 98.1593 38.545C97.2721 40.0829 96.8285 42.1235 96.8285 44.6669C96.8285 47.1512 97.3313 49.3693 98.3368 51.3212C99.4015 53.2731 100.644 54.2491 102.063 54.2491Z" fill="#433E3E"/>
<path d="M138.705 24.9703C143.851 24.9703 147.755 27.2179 150.417 31.7133C153.138 36.2086 154.498 41.7095 154.498 48.2159C154.498 56.7925 152.044 63.2989 147.134 67.7351C144.413 70.1602 141.397 71.3728 138.084 71.3728C134.772 71.3728 132.022 70.6926 129.833 69.3322C127.704 67.9717 126.077 66.1677 124.953 63.92C122.646 59.543 121.493 54.8702 121.493 49.9016C121.493 44.105 122.824 38.6633 125.486 33.5765C126.787 31.0331 128.591 28.9628 130.898 27.3658C133.205 25.7688 135.807 24.9703 138.705 24.9703ZM143.851 43.8684C143.851 42.0939 143.497 40.4969 142.787 39.0773C142.077 37.6578 140.894 36.948 139.238 36.948C137.641 36.948 136.073 38.1014 134.535 40.4082C133.057 42.6559 132.317 45.4063 132.317 48.6595C132.317 53.214 133.826 55.4912 136.842 55.4912C138.498 55.4912 140.066 54.4561 141.545 52.3859C143.082 50.3157 143.851 47.4765 143.851 43.8684Z" fill="#433E3E"/>
<path d="M173.536 24.9703C178.682 24.9703 182.586 27.2179 185.248 31.7133C187.969 36.2086 189.329 41.7095 189.329 48.2159C189.329 56.7925 186.875 63.2989 181.965 67.7351C179.244 70.1602 176.228 71.3728 172.915 71.3728C169.603 71.3728 166.853 70.6926 164.664 69.3322C162.535 67.9717 160.908 66.1677 159.784 63.92C157.477 59.543 156.324 54.8702 156.324 49.9016C156.324 44.105 157.655 38.6633 160.317 33.5765C161.618 31.0331 163.422 28.9628 165.729 27.3658C168.036 25.7688 170.638 24.9703 173.536 24.9703ZM178.682 43.8684C178.682 42.0939 178.328 40.4969 177.618 39.0773C176.908 37.6578 175.725 36.948 174.069 36.948C172.472 36.948 170.904 38.1014 169.366 40.4082C167.888 42.6559 167.148 45.4063 167.148 48.6595C167.148 53.214 168.657 55.4912 171.673 55.4912C173.329 55.4912 174.897 54.4561 176.376 52.3859C177.913 50.3157 178.682 47.4765 178.682 43.8684Z" fill="#433E3E"/>
<path d="M225.136 50.6114L225.225 52.7408V53.0957C225.225 56.2306 226.171 58.4487 228.064 59.75C228.951 60.4598 229.395 61.2287 229.395 62.0568C229.395 62.8849 229.188 63.5947 228.774 64.1862C227.473 66.0789 225.846 67.5873 223.894 68.7111C221.292 70.249 219.014 71.0179 217.062 71.0179C215.11 71.0179 214.046 70.0715 213.868 68.1787C213.75 66.7 213.454 65.9606 212.981 65.9606L212.36 66.3155C210.349 69.0956 207.687 70.4856 204.375 70.4856C201.95 70.4856 199.85 69.8645 198.076 68.6224C196.36 67.3802 195.059 65.6945 194.172 63.5651C192.456 59.543 191.599 55.0181 191.599 49.9904C191.599 44.6078 192.959 39.4322 195.68 34.4637C197.04 32.0977 198.874 30.1754 201.181 28.6967C203.488 27.1588 206.031 26.3898 208.811 26.3898C210.112 26.3898 211.177 26.5673 212.005 26.9222L213.247 27.4545C213.661 27.4545 213.898 26.9813 213.957 26.0349C214.075 25.0886 214.135 23.876 214.135 22.3973C214.135 20.8594 214.075 19.6173 213.957 18.6709C213.839 17.6653 213.691 16.926 213.513 16.4528C213.336 15.9796 213.129 15.5951 212.892 15.2994C212.537 14.8262 211.946 14.3234 211.118 13.7911C210.349 13.2587 209.964 12.5194 209.964 11.573C209.964 9.62104 211.621 7.75784 214.933 5.98337C218.305 4.20889 221.085 3.32166 223.273 3.32166C224.929 3.32166 225.846 4.06102 226.024 5.53975C226.142 6.13124 226.201 7.31423 226.201 9.0887C226.201 10.8632 225.994 14.4713 225.58 19.913C225.225 25.3547 225.048 30.5599 225.048 35.5284V44.4008L225.136 48.9257V50.6114ZM206.682 54.6927C208.87 54.6927 210.615 53.4506 211.916 50.9663C213.277 48.4821 213.957 46.264 213.957 44.312C213.957 39.6984 212.685 37.3916 210.142 37.3916C208.072 37.3916 206.327 38.7224 204.907 41.3842C203.547 43.9867 202.867 46.471 202.867 48.837C202.867 52.5042 204.138 54.4561 206.682 54.6927Z" fill="#433E3E"/>
<path d="M119.542 26.0349C118.477 35.6171 117.945 45.3767 117.945 55.3138C117.945 65.1917 117.412 72.2896 116.348 76.6075C115.342 80.9254 113.331 84.4743 110.315 87.2544C107.357 90.0344 103.808 91.4244 99.6677 91.4244C97.2425 91.4244 95.1427 90.7442 93.3683 89.3837C91.5938 88.0824 90.7065 86.2488 90.7065 83.8829C90.7065 82.4041 91.091 81.2211 91.86 80.3339C92.688 79.5058 93.5161 79.003 94.3442 78.8256L95.5864 78.6482C97.7157 78.5299 99.4902 77.9679 100.91 76.9624C102.389 75.9569 103.424 74.7147 104.015 73.236C104.962 70.87 105.435 68.5928 105.435 66.4043V65.6945C105.376 65.2804 105.169 65.0734 104.814 65.0734L103.926 65.517C103.157 66.6409 102.181 67.5281 100.999 68.1787C99.8747 68.7702 98.8987 69.1251 98.0706 69.2434L96.9172 69.3322C94.3738 69.3322 92.2149 68.6815 90.4404 67.3802C88.6659 66.0198 87.4238 64.2749 86.714 62.1455C85.4718 58.4191 84.8508 54.9589 84.8508 51.7648C84.8508 48.5708 85.1465 45.5838 85.738 42.8037C86.3295 39.9646 87.2463 37.2141 88.4885 34.5524C89.7897 31.8907 91.6234 29.7318 93.9893 28.0756C96.3553 26.4194 98.8396 25.5913 101.442 25.5913C104.045 25.5913 106.026 26.1828 107.387 27.3658C107.564 27.7207 107.83 27.8981 108.185 27.8981C108.54 27.8981 108.836 27.7207 109.072 27.3658C111.261 24.5858 113.834 23.1958 116.791 23.1958C118.625 23.1958 119.542 24.1422 119.542 26.0349ZM102.063 54.2491C103.542 54.2491 104.725 53.4802 105.612 51.9423C106.559 50.4044 107.002 48.3342 106.943 45.7316C106.943 43.1291 106.411 40.8814 105.346 38.9886C104.34 37.0958 103.128 36.1495 101.708 36.1495C100.289 36.1495 99.1057 36.948 98.1593 38.545C97.2721 40.0829 96.8285 42.1235 96.8285 44.6669C96.8285 47.1512 97.3313 49.3693 98.3368 51.3212C99.4015 53.2731 100.644 54.2491 102.063 54.2491Z" stroke="#F7F7F7" stroke-width="4.2159" mask="url(#path-9-outside-1_314_1912)"/>
<path d="M138.705 24.9703C143.851 24.9703 147.755 27.2179 150.417 31.7133C153.138 36.2086 154.498 41.7095 154.498 48.2159C154.498 56.7925 152.044 63.2989 147.134 67.7351C144.413 70.1602 141.397 71.3728 138.084 71.3728C134.772 71.3728 132.022 70.6926 129.833 69.3322C127.704 67.9717 126.077 66.1677 124.953 63.92C122.646 59.543 121.493 54.8702 121.493 49.9016C121.493 44.105 122.824 38.6633 125.486 33.5765C126.787 31.0331 128.591 28.9628 130.898 27.3658C133.205 25.7688 135.807 24.9703 138.705 24.9703ZM143.851 43.8684C143.851 42.0939 143.497 40.4969 142.787 39.0773C142.077 37.6578 140.894 36.948 139.238 36.948C137.641 36.948 136.073 38.1014 134.535 40.4082C133.057 42.6559 132.317 45.4063 132.317 48.6595C132.317 53.214 133.826 55.4912 136.842 55.4912C138.498 55.4912 140.066 54.4561 141.545 52.3859C143.082 50.3157 143.851 47.4765 143.851 43.8684Z" stroke="#F7F7F7" stroke-width="4.2159" mask="url(#path-9-outside-1_314_1912)"/>
<path d="M173.536 24.9703C178.682 24.9703 182.586 27.2179 185.248 31.7133C187.969 36.2086 189.329 41.7095 189.329 48.2159C189.329 56.7925 186.875 63.2989 181.965 67.7351C179.244 70.1602 176.228 71.3728 172.915 71.3728C169.603 71.3728 166.853 70.6926 164.664 69.3322C162.535 67.9717 160.908 66.1677 159.784 63.92C157.477 59.543 156.324 54.8702 156.324 49.9016C156.324 44.105 157.655 38.6633 160.317 33.5765C161.618 31.0331 163.422 28.9628 165.729 27.3658C168.036 25.7688 170.638 24.9703 173.536 24.9703ZM178.682 43.8684C178.682 42.0939 178.328 40.4969 177.618 39.0773C176.908 37.6578 175.725 36.948 174.069 36.948C172.472 36.948 170.904 38.1014 169.366 40.4082C167.888 42.6559 167.148 45.4063 167.148 48.6595C167.148 53.214 168.657 55.4912 171.673 55.4912C173.329 55.4912 174.897 54.4561 176.376 52.3859C177.913 50.3157 178.682 47.4765 178.682 43.8684Z" stroke="#F7F7F7" stroke-width="4.2159" mask="url(#path-9-outside-1_314_1912)"/>
<path d="M225.136 50.6114L225.225 52.7408V53.0957C225.225 56.2306 226.171 58.4487 228.064 59.75C228.951 60.4598 229.395 61.2287 229.395 62.0568C229.395 62.8849 229.188 63.5947 228.774 64.1862C227.473 66.0789 225.846 67.5873 223.894 68.7111C221.292 70.249 219.014 71.0179 217.062 71.0179C215.11 71.0179 214.046 70.0715 213.868 68.1787C213.75 66.7 213.454 65.9606 212.981 65.9606L212.36 66.3155C210.349 69.0956 207.687 70.4856 204.375 70.4856C201.95 70.4856 199.85 69.8645 198.076 68.6224C196.36 67.3802 195.059 65.6945 194.172 63.5651C192.456 59.543 191.599 55.0181 191.599 49.9904C191.599 44.6078 192.959 39.4322 195.68 34.4637C197.04 32.0977 198.874 30.1754 201.181 28.6967C203.488 27.1588 206.031 26.3898 208.811 26.3898C210.112 26.3898 211.177 26.5673 212.005 26.9222L213.247 27.4545C213.661 27.4545 213.898 26.9813 213.957 26.0349C214.075 25.0886 214.135 23.876 214.135 22.3973C214.135 20.8594 214.075 19.6173 213.957 18.6709C213.839 17.6653 213.691 16.926 213.513 16.4528C213.336 15.9796 213.129 15.5951 212.892 15.2994C212.537 14.8262 211.946 14.3234 211.118 13.7911C210.349 13.2587 209.964 12.5194 209.964 11.573C209.964 9.62104 211.621 7.75784 214.933 5.98337C218.305 4.20889 221.085 3.32166 223.273 3.32166C224.929 3.32166 225.846 4.06102 226.024 5.53975C226.142 6.13124 226.201 7.31423 226.201 9.0887C226.201 10.8632 225.994 14.4713 225.58 19.913C225.225 25.3547 225.048 30.5599 225.048 35.5284V44.4008L225.136 48.9257V50.6114ZM206.682 54.6927C208.87 54.6927 210.615 53.4506 211.916 50.9663C213.277 48.4821 213.957 46.264 213.957 44.312C213.957 39.6984 212.685 37.3916 210.142 37.3916C208.072 37.3916 206.327 38.7224 204.907 41.3842C203.547 43.9867 202.867 46.471 202.867 48.837C202.867 52.5042 204.138 54.4561 206.682 54.6927Z" stroke="#F7F7F7" stroke-width="4.2159" mask="url(#path-9-outside-1_314_1912)"/>
<mask id="path-10-outside-2_314_1912" maskUnits="userSpaceOnUse" x="226.395" y="0.321655" width="143" height="73" fill="black">
<rect fill="white" x="226.395" y="0.321655" width="143" height="73"/>
<path d="M247.045 9.0485L246.857 13.5549C246.857 15.1822 247.201 16.0897 247.89 16.2775C248.641 16.4652 249.361 16.5591 250.049 16.5591C250.738 16.5591 251.77 16.4965 253.147 16.3713C254.462 16.3713 255.119 17.2163 255.119 18.9062C255.119 22.0982 252.834 24.5704 248.265 26.3229C247.64 26.5733 247.201 27.1366 246.951 28.0128C246.576 31.8307 246.388 36.3058 246.388 41.438C246.388 46.5703 246.576 49.95 246.951 51.5773C247.264 53.0795 248.391 53.987 250.331 54.2999C250.769 54.2999 251.176 54.519 251.551 54.9571C252.24 55.7708 252.584 56.5844 252.584 57.3981C252.584 58.1491 252.521 58.9002 252.396 59.6513C252.271 60.3397 251.958 61.3411 251.457 62.6555C251.019 63.9073 250.425 65.0965 249.674 66.223C248.985 67.287 247.921 68.2259 246.482 69.0395C245.042 69.8532 243.415 70.26 241.6 70.26C238.47 70.26 236.217 68.4136 234.84 64.7209C234.34 63.2814 234.089 61.5602 234.089 59.5574L234.84 34.3029C234.84 31.2361 234.652 28.7326 234.277 26.7923C233.964 24.8521 232.775 23.037 230.709 21.3471C229.833 20.7212 229.395 19.845 229.395 18.7184C229.395 17.5918 229.958 16.4652 231.085 15.3386C234.527 13.2106 237.688 9.86215 240.567 5.29319C241.443 4.10401 242.539 3.50942 243.853 3.50942C245.981 3.50942 247.045 5.35578 247.045 9.0485Z"/>
<path d="M258.427 37.7766C258.427 36.7752 258.176 35.8364 257.676 34.9601C257.238 34.0839 256.643 33.3015 255.892 32.613C255.141 31.9246 254.765 31.1735 254.765 30.3599C254.765 28.2319 256.393 26.3542 259.647 24.7269C262.902 23.037 265.624 22.1921 267.815 22.1921C270.068 22.1921 271.226 23.3187 271.289 25.5718C271.289 27.1366 271.132 29.953 270.819 34.0213C270.569 38.0269 270.444 41.751 270.444 45.1933C270.444 53.5176 271.195 58.7437 272.697 60.8717C273.573 61.3724 274.011 62.1548 274.011 63.2188C274.011 65.2842 272.853 66.9115 270.538 68.1007C268.284 69.2899 265.718 69.8845 262.839 69.8845C259.021 69.8845 257.112 68.6014 257.112 66.0353C257.112 65.9101 257.206 65.1903 257.394 63.876C258.27 58.8689 258.708 53.2672 258.708 47.071L258.427 37.7766ZM272.228 7.9219C272.228 10.2377 271.101 12.1153 268.848 13.5549C266.657 14.9318 264.529 15.6203 262.464 15.6203C260.398 15.6203 258.771 15.2448 257.582 14.4937C256.455 13.68 255.892 12.616 255.892 11.3017C255.892 8.92332 257.019 7.01437 259.272 5.57484C261.525 4.07272 263.653 3.32166 265.656 3.32166C267.721 3.32166 269.317 3.72848 270.444 4.54213C271.633 5.35578 272.228 6.48237 272.228 7.9219Z"/>
<path d="M290.142 44.5361L289.955 51.5773C289.955 55.9585 290.048 59.0254 290.236 60.7778C290.424 62.4677 290.518 63.5317 290.518 63.9699C290.518 66.0353 289.798 67.5687 288.358 68.5701C285.98 70.1974 283.007 71.0111 279.44 71.0111C276.874 71.0111 275.59 69.9158 275.59 67.7252L275.778 66.223C277.406 58.5873 278.219 49.0112 278.219 37.4949C278.219 36.4935 278 35.586 277.562 34.7723C277.124 33.9587 276.435 33.2076 275.497 32.5192C274.808 31.8933 274.464 31.2048 274.464 30.4537C274.464 28.4509 276.122 26.5107 279.44 24.633C282.757 22.7554 285.354 21.8165 287.232 21.8165C289.172 21.8165 290.205 22.8492 290.33 24.9147C290.455 25.7909 290.549 26.6984 290.612 27.6373C290.737 28.0754 290.956 28.2944 291.269 28.2944C291.331 28.2944 291.519 28.2006 291.832 28.0128C292.646 26.761 294.023 25.6031 295.963 24.5391C297.966 23.4751 299.906 22.9431 301.784 22.9431C305.977 22.9431 308.7 25.0085 309.952 29.1394C310.077 29.3272 310.233 29.421 310.421 29.421C310.609 29.421 310.828 29.2646 311.078 28.9516C313.456 24.946 317.055 22.9431 321.875 22.9431C325.818 22.9431 328.29 24.9773 329.291 29.0455C330.042 32.0498 330.418 35.6173 330.418 39.7481L329.949 51.6712C329.949 56.4905 331.013 59.4635 333.141 60.5901C334.205 61.1534 334.737 61.967 334.737 63.031C334.737 64.8461 333.453 66.5047 330.887 68.0068C328.384 69.4463 325.724 70.1661 322.907 70.1661C320.091 70.1661 318.464 69.1021 318.025 66.9741C317.9 66.4108 317.838 64.9713 317.838 62.6555L318.401 47.7282C318.464 47.1023 318.495 46.2573 318.495 45.1933C318.495 39.6855 317.337 36.9316 315.021 36.9316C313.519 36.9316 312.361 37.8392 311.548 39.6542C310.796 41.4067 310.39 43.0653 310.327 44.63C310.264 46.1947 310.233 48.1976 310.233 50.6385C310.233 53.0795 310.264 55.2075 310.327 57.0225C310.452 58.8376 310.577 60.3084 310.703 61.435C310.828 62.499 310.89 63.1562 310.89 63.4066C310.89 65.2842 310.077 66.8489 308.449 68.1007C306.885 69.3525 304.538 69.9783 301.408 69.9783C298.341 69.9783 296.808 68.9769 296.808 66.9741L297.183 64.8148C298.06 60.7466 298.498 54.1122 298.498 44.9117C298.498 39.4039 297.309 36.65 294.93 36.65C293.366 36.65 292.176 37.5262 291.363 39.2787C290.549 41.0312 290.142 42.7837 290.142 44.5361Z"/>
<path d="M347.122 40.3114C347.122 40.687 347.248 40.9999 347.498 41.2503C347.748 41.5632 348.061 41.7197 348.437 41.7197C352.004 41.4067 354.383 39.7168 355.572 36.65C355.885 35.9615 356.104 35.1479 356.229 34.2091C356.166 32.0185 355.29 30.9232 353.6 30.9232C351.66 30.9232 350.158 31.862 349.094 33.7396C348.093 35.6173 347.435 37.8079 347.122 40.3114ZM353.506 22.286C357.7 22.286 360.954 23.35 363.27 25.478C365.649 27.606 366.838 30.8293 366.838 35.1479C366.838 39.4665 365.117 43.034 361.674 45.8505C358.294 48.667 354.007 50.0752 348.812 50.0752C348.061 50.0752 347.686 50.4508 347.686 51.2018C347.686 52.7039 348.218 54.0183 349.282 55.1449C350.408 56.2089 351.91 56.7409 353.788 56.7409C355.728 56.7409 357.45 55.8647 358.952 54.1122C360.516 52.3597 361.862 51.4835 362.989 51.4835C364.178 51.4835 365.117 51.9842 365.805 52.9856C366.494 53.987 366.838 55.4265 366.838 57.3042C366.838 59.1193 366.368 60.9656 365.43 62.8433C364.553 64.6583 363.489 66.0353 362.238 66.9741C360.986 67.9129 359.578 68.664 358.013 69.2273C355.697 70.1035 353.225 70.5416 350.596 70.5416C348.03 70.5416 345.62 69.9158 343.367 68.664C341.114 67.4122 339.361 65.7223 338.11 63.5943C335.669 59.3383 334.448 54.6442 334.448 49.5119C334.448 44.3171 335.074 39.8107 336.326 35.9928C337.578 32.1749 339.706 28.9516 342.71 26.3229C345.777 23.6316 349.376 22.286 353.506 22.286Z"/>
</mask>
<path d="M247.045 9.0485L246.857 13.5549C246.857 15.1822 247.201 16.0897 247.89 16.2775C248.641 16.4652 249.361 16.5591 250.049 16.5591C250.738 16.5591 251.77 16.4965 253.147 16.3713C254.462 16.3713 255.119 17.2163 255.119 18.9062C255.119 22.0982 252.834 24.5704 248.265 26.3229C247.64 26.5733 247.201 27.1366 246.951 28.0128C246.576 31.8307 246.388 36.3058 246.388 41.438C246.388 46.5703 246.576 49.95 246.951 51.5773C247.264 53.0795 248.391 53.987 250.331 54.2999C250.769 54.2999 251.176 54.519 251.551 54.9571C252.24 55.7708 252.584 56.5844 252.584 57.3981C252.584 58.1491 252.521 58.9002 252.396 59.6513C252.271 60.3397 251.958 61.3411 251.457 62.6555C251.019 63.9073 250.425 65.0965 249.674 66.223C248.985 67.287 247.921 68.2259 246.482 69.0395C245.042 69.8532 243.415 70.26 241.6 70.26C238.47 70.26 236.217 68.4136 234.84 64.7209C234.34 63.2814 234.089 61.5602 234.089 59.5574L234.84 34.3029C234.84 31.2361 234.652 28.7326 234.277 26.7923C233.964 24.8521 232.775 23.037 230.709 21.3471C229.833 20.7212 229.395 19.845 229.395 18.7184C229.395 17.5918 229.958 16.4652 231.085 15.3386C234.527 13.2106 237.688 9.86215 240.567 5.29319C241.443 4.10401 242.539 3.50942 243.853 3.50942C245.981 3.50942 247.045 5.35578 247.045 9.0485Z" fill="#433E3E"/>
<path d="M258.427 37.7766C258.427 36.7752 258.176 35.8364 257.676 34.9601C257.238 34.0839 256.643 33.3015 255.892 32.613C255.141 31.9246 254.765 31.1735 254.765 30.3599C254.765 28.2319 256.393 26.3542 259.647 24.7269C262.902 23.037 265.624 22.1921 267.815 22.1921C270.068 22.1921 271.226 23.3187 271.289 25.5718C271.289 27.1366 271.132 29.953 270.819 34.0213C270.569 38.0269 270.444 41.751 270.444 45.1933C270.444 53.5176 271.195 58.7437 272.697 60.8717C273.573 61.3724 274.011 62.1548 274.011 63.2188C274.011 65.2842 272.853 66.9115 270.538 68.1007C268.284 69.2899 265.718 69.8845 262.839 69.8845C259.021 69.8845 257.112 68.6014 257.112 66.0353C257.112 65.9101 257.206 65.1903 257.394 63.876C258.27 58.8689 258.708 53.2672 258.708 47.071L258.427 37.7766ZM272.228 7.9219C272.228 10.2377 271.101 12.1153 268.848 13.5549C266.657 14.9318 264.529 15.6203 262.464 15.6203C260.398 15.6203 258.771 15.2448 257.582 14.4937C256.455 13.68 255.892 12.616 255.892 11.3017C255.892 8.92332 257.019 7.01437 259.272 5.57484C261.525 4.07272 263.653 3.32166 265.656 3.32166C267.721 3.32166 269.317 3.72848 270.444 4.54213C271.633 5.35578 272.228 6.48237 272.228 7.9219Z" fill="#433E3E"/>
<path d="M290.142 44.5361L289.955 51.5773C289.955 55.9585 290.048 59.0254 290.236 60.7778C290.424 62.4677 290.518 63.5317 290.518 63.9699C290.518 66.0353 289.798 67.5687 288.358 68.5701C285.98 70.1974 283.007 71.0111 279.44 71.0111C276.874 71.0111 275.59 69.9158 275.59 67.7252L275.778 66.223C277.406 58.5873 278.219 49.0112 278.219 37.4949C278.219 36.4935 278 35.586 277.562 34.7723C277.124 33.9587 276.435 33.2076 275.497 32.5192C274.808 31.8933 274.464 31.2048 274.464 30.4537C274.464 28.4509 276.122 26.5107 279.44 24.633C282.757 22.7554 285.354 21.8165 287.232 21.8165C289.172 21.8165 290.205 22.8492 290.33 24.9147C290.455 25.7909 290.549 26.6984 290.612 27.6373C290.737 28.0754 290.956 28.2944 291.269 28.2944C291.331 28.2944 291.519 28.2006 291.832 28.0128C292.646 26.761 294.023 25.6031 295.963 24.5391C297.966 23.4751 299.906 22.9431 301.784 22.9431C305.977 22.9431 308.7 25.0085 309.952 29.1394C310.077 29.3272 310.233 29.421 310.421 29.421C310.609 29.421 310.828 29.2646 311.078 28.9516C313.456 24.946 317.055 22.9431 321.875 22.9431C325.818 22.9431 328.29 24.9773 329.291 29.0455C330.042 32.0498 330.418 35.6173 330.418 39.7481L329.949 51.6712C329.949 56.4905 331.013 59.4635 333.141 60.5901C334.205 61.1534 334.737 61.967 334.737 63.031C334.737 64.8461 333.453 66.5047 330.887 68.0068C328.384 69.4463 325.724 70.1661 322.907 70.1661C320.091 70.1661 318.464 69.1021 318.025 66.9741C317.9 66.4108 317.838 64.9713 317.838 62.6555L318.401 47.7282C318.464 47.1023 318.495 46.2573 318.495 45.1933C318.495 39.6855 317.337 36.9316 315.021 36.9316C313.519 36.9316 312.361 37.8392 311.548 39.6542C310.796 41.4067 310.39 43.0653 310.327 44.63C310.264 46.1947 310.233 48.1976 310.233 50.6385C310.233 53.0795 310.264 55.2075 310.327 57.0225C310.452 58.8376 310.577 60.3084 310.703 61.435C310.828 62.499 310.89 63.1562 310.89 63.4066C310.89 65.2842 310.077 66.8489 308.449 68.1007C306.885 69.3525 304.538 69.9783 301.408 69.9783C298.341 69.9783 296.808 68.9769 296.808 66.9741L297.183 64.8148C298.06 60.7466 298.498 54.1122 298.498 44.9117C298.498 39.4039 297.309 36.65 294.93 36.65C293.366 36.65 292.176 37.5262 291.363 39.2787C290.549 41.0312 290.142 42.7837 290.142 44.5361Z" fill="#433E3E"/>
<path d="M347.122 40.3114C347.122 40.687 347.248 40.9999 347.498 41.2503C347.748 41.5632 348.061 41.7197 348.437 41.7197C352.004 41.4067 354.383 39.7168 355.572 36.65C355.885 35.9615 356.104 35.1479 356.229 34.2091C356.166 32.0185 355.29 30.9232 353.6 30.9232C351.66 30.9232 350.158 31.862 349.094 33.7396C348.093 35.6173 347.435 37.8079 347.122 40.3114ZM353.506 22.286C357.7 22.286 360.954 23.35 363.27 25.478C365.649 27.606 366.838 30.8293 366.838 35.1479C366.838 39.4665 365.117 43.034 361.674 45.8505C358.294 48.667 354.007 50.0752 348.812 50.0752C348.061 50.0752 347.686 50.4508 347.686 51.2018C347.686 52.7039 348.218 54.0183 349.282 55.1449C350.408 56.2089 351.91 56.7409 353.788 56.7409C355.728 56.7409 357.45 55.8647 358.952 54.1122C360.516 52.3597 361.862 51.4835 362.989 51.4835C364.178 51.4835 365.117 51.9842 365.805 52.9856C366.494 53.987 366.838 55.4265 366.838 57.3042C366.838 59.1193 366.368 60.9656 365.43 62.8433C364.553 64.6583 363.489 66.0353 362.238 66.9741C360.986 67.9129 359.578 68.664 358.013 69.2273C355.697 70.1035 353.225 70.5416 350.596 70.5416C348.03 70.5416 345.62 69.9158 343.367 68.664C341.114 67.4122 339.361 65.7223 338.11 63.5943C335.669 59.3383 334.448 54.6442 334.448 49.5119C334.448 44.3171 335.074 39.8107 336.326 35.9928C337.578 32.1749 339.706 28.9516 342.71 26.3229C345.777 23.6316 349.376 22.286 353.506 22.286Z" fill="#433E3E"/>
<path d="M247.045 9.0485L246.857 13.5549C246.857 15.1822 247.201 16.0897 247.89 16.2775C248.641 16.4652 249.361 16.5591 250.049 16.5591C250.738 16.5591 251.77 16.4965 253.147 16.3713C254.462 16.3713 255.119 17.2163 255.119 18.9062C255.119 22.0982 252.834 24.5704 248.265 26.3229C247.64 26.5733 247.201 27.1366 246.951 28.0128C246.576 31.8307 246.388 36.3058 246.388 41.438C246.388 46.5703 246.576 49.95 246.951 51.5773C247.264 53.0795 248.391 53.987 250.331 54.2999C250.769 54.2999 251.176 54.519 251.551 54.9571C252.24 55.7708 252.584 56.5844 252.584 57.3981C252.584 58.1491 252.521 58.9002 252.396 59.6513C252.271 60.3397 251.958 61.3411 251.457 62.6555C251.019 63.9073 250.425 65.0965 249.674 66.223C248.985 67.287 247.921 68.2259 246.482 69.0395C245.042 69.8532 243.415 70.26 241.6 70.26C238.47 70.26 236.217 68.4136 234.84 64.7209C234.34 63.2814 234.089 61.5602 234.089 59.5574L234.84 34.3029C234.84 31.2361 234.652 28.7326 234.277 26.7923C233.964 24.8521 232.775 23.037 230.709 21.3471C229.833 20.7212 229.395 19.845 229.395 18.7184C229.395 17.5918 229.958 16.4652 231.085 15.3386C234.527 13.2106 237.688 9.86215 240.567 5.29319C241.443 4.10401 242.539 3.50942 243.853 3.50942C245.981 3.50942 247.045 5.35578 247.045 9.0485Z" stroke="#F7F7F7" stroke-width="4.46104" mask="url(#path-10-outside-2_314_1912)"/>
<path d="M258.427 37.7766C258.427 36.7752 258.176 35.8364 257.676 34.9601C257.238 34.0839 256.643 33.3015 255.892 32.613C255.141 31.9246 254.765 31.1735 254.765 30.3599C254.765 28.2319 256.393 26.3542 259.647 24.7269C262.902 23.037 265.624 22.1921 267.815 22.1921C270.068 22.1921 271.226 23.3187 271.289 25.5718C271.289 27.1366 271.132 29.953 270.819 34.0213C270.569 38.0269 270.444 41.751 270.444 45.1933C270.444 53.5176 271.195 58.7437 272.697 60.8717C273.573 61.3724 274.011 62.1548 274.011 63.2188C274.011 65.2842 272.853 66.9115 270.538 68.1007C268.284 69.2899 265.718 69.8845 262.839 69.8845C259.021 69.8845 257.112 68.6014 257.112 66.0353C257.112 65.9101 257.206 65.1903 257.394 63.876C258.27 58.8689 258.708 53.2672 258.708 47.071L258.427 37.7766ZM272.228 7.9219C272.228 10.2377 271.101 12.1153 268.848 13.5549C266.657 14.9318 264.529 15.6203 262.464 15.6203C260.398 15.6203 258.771 15.2448 257.582 14.4937C256.455 13.68 255.892 12.616 255.892 11.3017C255.892 8.92332 257.019 7.01437 259.272 5.57484C261.525 4.07272 263.653 3.32166 265.656 3.32166C267.721 3.32166 269.317 3.72848 270.444 4.54213C271.633 5.35578 272.228 6.48237 272.228 7.9219Z" stroke="#F7F7F7" stroke-width="4.46104" mask="url(#path-10-outside-2_314_1912)"/>
<path d="M290.142 44.5361L289.955 51.5773C289.955 55.9585 290.048 59.0254 290.236 60.7778C290.424 62.4677 290.518 63.5317 290.518 63.9699C290.518 66.0353 289.798 67.5687 288.358 68.5701C285.98 70.1974 283.007 71.0111 279.44 71.0111C276.874 71.0111 275.59 69.9158 275.59 67.7252L275.778 66.223C277.406 58.5873 278.219 49.0112 278.219 37.4949C278.219 36.4935 278 35.586 277.562 34.7723C277.124 33.9587 276.435 33.2076 275.497 32.5192C274.808 31.8933 274.464 31.2048 274.464 30.4537C274.464 28.4509 276.122 26.5107 279.44 24.633C282.757 22.7554 285.354 21.8165 287.232 21.8165C289.172 21.8165 290.205 22.8492 290.33 24.9147C290.455 25.7909 290.549 26.6984 290.612 27.6373C290.737 28.0754 290.956 28.2944 291.269 28.2944C291.331 28.2944 291.519 28.2006 291.832 28.0128C292.646 26.761 294.023 25.6031 295.963 24.5391C297.966 23.4751 299.906 22.9431 301.784 22.9431C305.977 22.9431 308.7 25.0085 309.952 29.1394C310.077 29.3272 310.233 29.421 310.421 29.421C310.609 29.421 310.828 29.2646 311.078 28.9516C313.456 24.946 317.055 22.9431 321.875 22.9431C325.818 22.9431 328.29 24.9773 329.291 29.0455C330.042 32.0498 330.418 35.6173 330.418 39.7481L329.949 51.6712C329.949 56.4905 331.013 59.4635 333.141 60.5901C334.205 61.1534 334.737 61.967 334.737 63.031C334.737 64.8461 333.453 66.5047 330.887 68.0068C328.384 69.4463 325.724 70.1661 322.907 70.1661C320.091 70.1661 318.464 69.1021 318.025 66.9741C317.9 66.4108 317.838 64.9713 317.838 62.6555L318.401 47.7282C318.464 47.1023 318.495 46.2573 318.495 45.1933C318.495 39.6855 317.337 36.9316 315.021 36.9316C313.519 36.9316 312.361 37.8392 311.548 39.6542C310.796 41.4067 310.39 43.0653 310.327 44.63C310.264 46.1947 310.233 48.1976 310.233 50.6385C310.233 53.0795 310.264 55.2075 310.327 57.0225C310.452 58.8376 310.577 60.3084 310.703 61.435C310.828 62.499 310.89 63.1562 310.89 63.4066C310.89 65.2842 310.077 66.8489 308.449 68.1007C306.885 69.3525 304.538 69.9783 301.408 69.9783C298.341 69.9783 296.808 68.9769 296.808 66.9741L297.183 64.8148C298.06 60.7466 298.498 54.1122 298.498 44.9117C298.498 39.4039 297.309 36.65 294.93 36.65C293.366 36.65 292.176 37.5262 291.363 39.2787C290.549 41.0312 290.142 42.7837 290.142 44.5361Z" stroke="#F7F7F7" stroke-width="4.46104" mask="url(#path-10-outside-2_314_1912)"/>
<path d="M347.122 40.3114C347.122 40.687 347.248 40.9999 347.498 41.2503C347.748 41.5632 348.061 41.7197 348.437 41.7197C352.004 41.4067 354.383 39.7168 355.572 36.65C355.885 35.9615 356.104 35.1479 356.229 34.2091C356.166 32.0185 355.29 30.9232 353.6 30.9232C351.66 30.9232 350.158 31.862 349.094 33.7396C348.093 35.6173 347.435 37.8079 347.122 40.3114ZM353.506 22.286C357.7 22.286 360.954 23.35 363.27 25.478C365.649 27.606 366.838 30.8293 366.838 35.1479C366.838 39.4665 365.117 43.034 361.674 45.8505C358.294 48.667 354.007 50.0752 348.812 50.0752C348.061 50.0752 347.686 50.4508 347.686 51.2018C347.686 52.7039 348.218 54.0183 349.282 55.1449C350.408 56.2089 351.91 56.7409 353.788 56.7409C355.728 56.7409 357.45 55.8647 358.952 54.1122C360.516 52.3597 361.862 51.4835 362.989 51.4835C364.178 51.4835 365.117 51.9842 365.805 52.9856C366.494 53.987 366.838 55.4265 366.838 57.3042C366.838 59.1193 366.368 60.9656 365.43 62.8433C364.553 64.6583 363.489 66.0353 362.238 66.9741C360.986 67.9129 359.578 68.664 358.013 69.2273C355.697 70.1035 353.225 70.5416 350.596 70.5416C348.03 70.5416 345.62 69.9158 343.367 68.664C341.114 67.4122 339.361 65.7223 338.11 63.5943C335.669 59.3383 334.448 54.6442 334.448 49.5119C334.448 44.3171 335.074 39.8107 336.326 35.9928C337.578 32.1749 339.706 28.9516 342.71 26.3229C345.777 23.6316 349.376 22.286 353.506 22.286Z" stroke="#F7F7F7" stroke-width="4.46104" mask="url(#path-10-outside-2_314_1912)"/>
<defs>
<clipPath id="clip0_314_1912">
<rect width="100.723" height="100.723" fill="white" transform="translate(0 0.236938)"/>
</clipPath>
</defs>
</svg>
