<svg width="151" height="42" viewBox="0 0 151 42" fill="none" xmlns="http://www.w3.org/2000/svg">
<g clip-path="url(#clip0_314_1912)">
<path fill-rule="evenodd" clip-rule="evenodd" d="M9.26867 17.3667C9.26731 17.3707 8.13927 16.3449 6.81666 14.7564C4.98477 12.5564 3.8643 8.69878 7.16518 5.75799C10.3306 2.93785 14.2124 5.22068 15.591 6.7759C16.4152 7.70563 16.8964 8.28346 17.4496 8.91702C17.4496 8.91702 17.8225 8.4174 18.3841 7.04559C18.514 6.72825 18.6588 6.38914 18.8186 6.03517C19.9959 3.42562 22.975 0.730968 27.0633 2.41336C30.9837 4.02673 30.6284 8.516 29.8327 10.4359C29.357 11.5837 29.138 12.0027 28.8102 12.7773C28.8102 12.7773 30.3902 12.5328 32.4487 12.3442C35.2996 12.0829 39.1123 13.3476 39.6627 17.7341C40.1903 21.9406 36.1088 23.8432 34.0461 24.0971C32.8129 24.2486 32.3403 24.2644 31.5047 24.3607C31.5047 24.3607 32.5768 25.4255 33.6982 27.162C35.2512 29.5671 35.8982 33.5317 32.2667 36.0529C28.7841 38.4704 25.2061 35.736 24.0251 34.0258C23.3191 33.0034 22.6132 31.8964 22.5289 31.9534C22.533 31.9525 22.1725 33.434 21.4113 35.3558C20.3569 38.0173 17.5068 40.8482 13.3445 39.3582C9.35304 37.9296 9.49854 33.4287 10.2037 31.4735C10.6254 30.3049 11.1213 29.1221 11.3839 28.9142C11.3864 28.9176 9.92729 29.3488 7.87052 29.5547C5.02192 29.8398 1.1987 28.6072 0.611596 24.2255C0.0485617 20.0236 4.11405 18.0867 6.17459 17.8158C7.40643 17.6538 9.26867 17.3667 9.26867 17.3667Z" fill="#DC7851" stroke="#CFEAE8" stroke-width="0.686662" stroke-miterlimit="1.5" stroke-linecap="round" stroke-linejoin="round"/>
<path d="M21.96 28.7549C26.2627 27.7753 28.9566 23.4931 27.977 19.1904C26.9974 14.8876 22.7152 12.1937 18.4124 13.1734C14.1097 14.153 11.4158 18.4352 12.3954 22.7379C13.3751 27.0407 17.6573 29.7346 21.96 28.7549Z" fill="#F5B45D" stroke="#CFEAE8" stroke-width="0.68652" stroke-miterlimit="1.5" stroke-linecap="round" stroke-linejoin="round"/>
<path fill-rule="evenodd" clip-rule="evenodd" d="M23.3988 19.1676C23.4078 19.161 23.4259 19.1477 23.4376 19.1357C23.4574 19.1154 23.5001 19.082 23.5177 19.046C23.5511 18.9781 23.6186 18.8365 23.6379 18.7281C23.6907 18.4329 23.639 18.1566 23.5681 17.8708C23.5293 17.7142 23.4975 17.5373 23.44 17.3774C23.3624 17.1616 23.2608 16.8164 23.1023 16.5755C22.9323 16.3172 22.3454 15.683 22.0723 16.1751C21.8915 16.5011 21.9499 16.866 22.016 17.2149C22.0644 17.4707 22.1024 17.7284 22.1482 17.9846C22.1775 18.1487 22.1975 18.3161 22.253 18.4741C22.2924 18.5863 22.3535 18.6906 22.4181 18.79C22.5066 18.9261 22.612 19.0774 22.7536 19.1634C22.8471 19.2202 22.9573 19.2486 23.0652 19.262C23.1881 19.2772 23.3285 19.2042 23.3988 19.1676Z" fill="#211F1F"/>
<path fill-rule="evenodd" clip-rule="evenodd" d="M16.3687 20.6429C16.3577 20.6409 16.3356 20.6367 16.3199 20.6309C16.2932 20.6213 16.2403 20.6096 16.2088 20.5848C16.1493 20.538 16.0272 20.4396 15.9629 20.3503C15.7875 20.107 15.7145 19.8355 15.6547 19.5472C15.6219 19.3892 15.5739 19.216 15.5565 19.0471C15.5331 18.8189 15.4752 18.4637 15.5138 18.1779C15.5553 17.8715 15.8098 17.0457 16.2689 17.3712C16.5731 17.5867 16.6784 17.9409 16.7699 18.2841C16.837 18.5356 16.9142 18.7844 16.9839 19.0352C17.0285 19.1957 17.0829 19.3553 17.1013 19.5217C17.1144 19.6399 17.1045 19.7604 17.0893 19.8779C17.0684 20.039 17.0388 20.221 16.9485 20.3598C16.8887 20.4515 16.8017 20.5248 16.7103 20.5835C16.6061 20.6505 16.4478 20.6454 16.3687 20.6429Z" fill="#211F1F"/>
<path d="M25.2113 21.2628C25.0707 21.5719 25.0145 21.9188 24.8803 22.2337C24.6587 22.7537 24.2965 23.2464 23.878 23.6248C23.6964 23.789 23.5059 23.9406 23.293 24.0625C22.6318 24.4413 21.8653 24.5897 21.1337 24.7703C19.816 25.0955 18.5403 25.3037 17.2815 24.6542C16.8782 24.4462 16.4999 24.1919 16.1262 23.9354C15.9629 23.8233 15.7272 23.6792 15.6393 23.4926C15.622 23.4559 15.726 23.2935 15.7404 23.2462" stroke="#211F1F" stroke-width="0.686662" stroke-miterlimit="1.5" stroke-linecap="round" stroke-linejoin="round"/>
<path d="M15.1073 23.6241C15.1081 23.6228 15.1878 23.6321 15.1935 23.6319C15.2797 23.6286 15.37 23.6054 15.4468 23.5666C15.6855 23.4462 15.8348 23.1749 15.8748 22.919" stroke="#211F1F" stroke-width="0.686662" stroke-miterlimit="1.5" stroke-linecap="round" stroke-linejoin="round"/>
<path d="M24.8018 20.8491C24.8179 20.9236 24.9144 21.004 24.9652 21.0532C25.0419 21.1276 25.1304 21.1882 25.2254 21.2291C25.3908 21.3001 25.5761 21.3111 25.7537 21.2306" stroke="#211F1F" stroke-width="0.686662" stroke-miterlimit="1.5" stroke-linecap="round" stroke-linejoin="round"/>
</g>
<rect x="38.1989" y="12.7458" width="5.94722" height="11.4104" fill="#F7F7F7"/>
<mask id="path-9-outside-1_314_1912" maskUnits="userSpaceOnUse" x="32.9403" y="0.950256" width="60" height="38" fill="black">
<rect fill="white" x="32.9403" y="0.950256" width="60" height="38"/>
<path d="M47.8167 11.0356C47.3908 14.8684 47.1779 18.7723 47.1779 22.7471C47.1779 26.6983 46.965 29.5374 46.5391 31.2646C46.1369 32.9917 45.3324 34.4113 44.1258 35.5233C42.9428 36.6353 41.5232 37.1913 39.8671 37.1913C38.897 37.1913 38.0571 36.9193 37.3473 36.3751C36.6375 35.8546 36.2826 35.1211 36.2826 34.1747C36.2826 33.5832 36.4364 33.11 36.744 32.7552C37.0752 32.4239 37.4065 32.2228 37.7377 32.1518L38.2345 32.0809C39.0863 32.0335 39.7961 31.8088 40.3639 31.4066C40.9554 31.0043 41.3694 30.5075 41.606 29.916C41.9846 28.9696 42.1739 28.0587 42.1739 27.1833V26.8994C42.1502 26.7338 42.0674 26.651 41.9254 26.651L41.5706 26.8284C41.263 27.2779 40.8726 27.6328 40.3994 27.8931C39.9499 28.1297 39.5595 28.2716 39.2282 28.319L38.7669 28.3545C37.7495 28.3545 36.8859 28.0942 36.1761 27.5737C35.4664 27.0295 34.9695 26.3316 34.6856 25.4798C34.1887 23.9892 33.9403 22.6052 33.9403 21.3275C33.9403 20.0499 34.0586 18.8551 34.2952 17.7431C34.5318 16.6074 34.8985 15.5072 35.3954 14.4426C35.9159 13.3779 36.6493 12.5143 37.5957 11.8518C38.5421 11.1894 39.5358 10.8581 40.5768 10.8581C41.6179 10.8581 42.4105 11.0947 42.9546 11.5679C43.0256 11.7099 43.1321 11.7809 43.2741 11.7809C43.416 11.7809 43.5343 11.7099 43.6289 11.5679C44.5044 10.4559 45.5335 9.89991 46.7165 9.89991C47.45 9.89991 47.8167 10.2785 47.8167 11.0356ZM40.8253 22.3212C41.4168 22.3212 41.89 22.0137 42.2449 21.3985C42.6234 20.7834 42.8009 19.9553 42.7772 18.9142C42.7772 17.8732 42.5643 16.9741 42.1384 16.217C41.7362 15.4599 41.2511 15.0814 40.6833 15.0814C40.1155 15.0814 39.6423 15.4008 39.2637 16.0396C38.9088 16.6547 38.7314 17.471 38.7314 18.4884C38.7314 19.4821 38.9325 20.3693 39.3347 21.1501C39.7606 21.9309 40.2574 22.3212 40.8253 22.3212Z"/>
<path d="M55.4822 10.6097C57.5406 10.6097 59.1021 11.5088 60.1668 13.3069C61.2551 15.105 61.7993 17.3054 61.7993 19.9079C61.7993 23.3386 60.8174 25.9412 58.8537 27.7156C57.7653 28.6857 56.5587 29.1707 55.2337 29.1707C53.9088 29.1707 52.8086 28.8986 51.9332 28.3545C51.0815 27.8103 50.4308 27.0887 49.9813 26.1896C49.0586 24.4388 48.5972 22.5697 48.5972 20.5823C48.5972 18.2636 49.1295 16.0869 50.1942 14.0522C50.7147 13.0348 51.4364 12.2067 52.3591 11.5679C53.2818 10.9291 54.3228 10.6097 55.4822 10.6097ZM57.5406 18.169C57.5406 17.4592 57.3986 16.8204 57.1147 16.2525C56.8308 15.6847 56.3576 15.4008 55.6951 15.4008C55.0563 15.4008 54.4293 15.8621 53.8142 16.7849C53.2227 17.6839 52.9269 18.7841 52.9269 20.0854C52.9269 21.9072 53.5302 22.8181 54.7369 22.8181C55.3994 22.8181 56.0263 22.404 56.6178 21.576C57.233 20.7479 57.5406 19.6122 57.5406 18.169Z"/>
<path d="M69.4146 10.6097C71.473 10.6097 73.0345 11.5088 74.0992 13.3069C75.1875 15.105 75.7317 17.3054 75.7317 19.9079C75.7317 23.3386 74.7498 25.9412 72.7861 27.7156C71.6977 28.6857 70.4911 29.1707 69.1661 29.1707C67.8412 29.1707 66.741 28.8986 65.8656 28.3545C65.0139 27.8103 64.3632 27.0887 63.9137 26.1896C62.991 24.4388 62.5296 22.5697 62.5296 20.5823C62.5296 18.2636 63.0619 16.0869 64.1266 14.0522C64.6471 13.0348 65.3688 12.2067 66.2915 11.5679C67.2142 10.9291 68.2552 10.6097 69.4146 10.6097ZM71.473 18.169C71.473 17.4592 71.331 16.8204 71.0471 16.2525C70.7632 15.6847 70.29 15.4008 69.6275 15.4008C68.9887 15.4008 68.3617 15.8621 67.7466 16.7849C67.1551 17.6839 66.8593 18.7841 66.8593 20.0854C66.8593 21.9072 67.4626 22.8181 68.6693 22.8181C69.3318 22.8181 69.9587 22.404 70.5502 21.576C71.1654 20.7479 71.473 19.6122 71.473 18.169Z"/>
<path d="M90.0545 20.8662L90.09 21.7179V21.8599C90.09 23.1138 90.4685 24.0011 91.2257 24.5216C91.5805 24.8055 91.758 25.1131 91.758 25.4443C91.758 25.7755 91.6752 26.0595 91.5096 26.2961C90.9891 27.0532 90.3384 27.6565 89.5576 28.106C88.5166 28.7212 87.6057 29.0288 86.8249 29.0288C86.0442 29.0288 85.6183 28.6502 85.5473 27.8931C85.5 27.3016 85.3817 27.0059 85.1924 27.0059L84.944 27.1478C84.1396 28.2598 83.0749 28.8158 81.75 28.8158C80.7799 28.8158 79.94 28.5674 79.2302 28.0705C78.5441 27.5737 78.0235 26.8994 77.6687 26.0476C76.9825 24.4388 76.6395 22.6288 76.6395 20.6177C76.6395 18.4647 77.1836 16.3945 78.272 14.4071C78.8161 13.4607 79.5496 12.6917 80.4723 12.1003C81.3951 11.4851 82.4124 11.1775 83.5244 11.1775C84.0449 11.1775 84.4708 11.2485 84.802 11.3905L85.2989 11.6034C85.4645 11.6034 85.5592 11.4141 85.5828 11.0356C85.6301 10.657 85.6538 10.172 85.6538 9.5805C85.6538 8.96535 85.6301 8.4685 85.5828 8.08994C85.5355 7.68773 85.4763 7.39198 85.4054 7.2027C85.3344 7.01343 85.2516 6.85964 85.1569 6.74134C85.015 6.55206 84.7784 6.35096 84.4472 6.13802C84.1396 5.92508 83.9858 5.62934 83.9858 5.25078C83.9858 4.47001 84.6483 3.72473 85.9732 3.01494C87.3218 2.30515 88.4338 1.95026 89.3092 1.95026C89.9717 1.95026 90.3384 2.246 90.4094 2.83749C90.4567 3.07409 90.4804 3.54728 90.4804 4.25707C90.4804 4.96687 90.3976 6.41011 90.2319 8.58679C90.09 10.7635 90.019 12.8455 90.019 14.8329V18.3819L90.0545 20.1919V20.8662ZM82.6727 22.4987C83.5481 22.4987 84.246 22.0018 84.7666 21.0081C85.3107 20.0144 85.5828 19.1272 85.5828 18.3464C85.5828 16.501 85.0741 15.5782 84.0568 15.5782C83.2287 15.5782 82.5307 16.1106 81.9629 17.1753C81.4187 18.2163 81.1466 19.21 81.1466 20.1564C81.1466 21.6233 81.6553 22.404 82.6727 22.4987Z"/>
</mask>
<path d="M47.8167 11.0356C47.3908 14.8684 47.1779 18.7723 47.1779 22.7471C47.1779 26.6983 46.965 29.5374 46.5391 31.2646C46.1369 32.9917 45.3324 34.4113 44.1258 35.5233C42.9428 36.6353 41.5232 37.1913 39.8671 37.1913C38.897 37.1913 38.0571 36.9193 37.3473 36.3751C36.6375 35.8546 36.2826 35.1211 36.2826 34.1747C36.2826 33.5832 36.4364 33.11 36.744 32.7552C37.0752 32.4239 37.4065 32.2228 37.7377 32.1518L38.2345 32.0809C39.0863 32.0335 39.7961 31.8088 40.3639 31.4066C40.9554 31.0043 41.3694 30.5075 41.606 29.916C41.9846 28.9696 42.1739 28.0587 42.1739 27.1833V26.8994C42.1502 26.7338 42.0674 26.651 41.9254 26.651L41.5706 26.8284C41.263 27.2779 40.8726 27.6328 40.3994 27.8931C39.9499 28.1297 39.5595 28.2716 39.2282 28.319L38.7669 28.3545C37.7495 28.3545 36.8859 28.0942 36.1761 27.5737C35.4664 27.0295 34.9695 26.3316 34.6856 25.4798C34.1887 23.9892 33.9403 22.6052 33.9403 21.3275C33.9403 20.0499 34.0586 18.8551 34.2952 17.7431C34.5318 16.6074 34.8985 15.5072 35.3954 14.4426C35.9159 13.3779 36.6493 12.5143 37.5957 11.8518C38.5421 11.1894 39.5358 10.8581 40.5768 10.8581C41.6179 10.8581 42.4105 11.0947 42.9546 11.5679C43.0256 11.7099 43.1321 11.7809 43.2741 11.7809C43.416 11.7809 43.5343 11.7099 43.6289 11.5679C44.5044 10.4559 45.5335 9.89991 46.7165 9.89991C47.45 9.89991 47.8167 10.2785 47.8167 11.0356ZM40.8253 22.3212C41.4168 22.3212 41.89 22.0137 42.2449 21.3985C42.6234 20.7834 42.8009 19.9553 42.7772 18.9142C42.7772 17.8732 42.5643 16.9741 42.1384 16.217C41.7362 15.4599 41.2511 15.0814 40.6833 15.0814C40.1155 15.0814 39.6423 15.4008 39.2637 16.0396C38.9088 16.6547 38.7314 17.471 38.7314 18.4884C38.7314 19.4821 38.9325 20.3693 39.3347 21.1501C39.7606 21.9309 40.2574 22.3212 40.8253 22.3212Z" fill="#433E3E"/>
<path d="M55.4822 10.6097C57.5406 10.6097 59.1021 11.5088 60.1668 13.3069C61.2551 15.105 61.7993 17.3054 61.7993 19.9079C61.7993 23.3386 60.8174 25.9412 58.8537 27.7156C57.7653 28.6857 56.5587 29.1707 55.2337 29.1707C53.9088 29.1707 52.8086 28.8986 51.9332 28.3545C51.0815 27.8103 50.4308 27.0887 49.9813 26.1896C49.0586 24.4388 48.5972 22.5697 48.5972 20.5823C48.5972 18.2636 49.1295 16.0869 50.1942 14.0522C50.7147 13.0348 51.4364 12.2067 52.3591 11.5679C53.2818 10.9291 54.3228 10.6097 55.4822 10.6097ZM57.5406 18.169C57.5406 17.4592 57.3986 16.8204 57.1147 16.2525C56.8308 15.6847 56.3576 15.4008 55.6951 15.4008C55.0563 15.4008 54.4293 15.8621 53.8142 16.7849C53.2227 17.6839 52.9269 18.7841 52.9269 20.0854C52.9269 21.9072 53.5302 22.8181 54.7369 22.8181C55.3994 22.8181 56.0263 22.404 56.6178 21.576C57.233 20.7479 57.5406 19.6122 57.5406 18.169Z" fill="#433E3E"/>
<path d="M69.4146 10.6097C71.473 10.6097 73.0345 11.5088 74.0992 13.3069C75.1875 15.105 75.7317 17.3054 75.7317 19.9079C75.7317 23.3386 74.7498 25.9412 72.7861 27.7156C71.6977 28.6857 70.4911 29.1707 69.1661 29.1707C67.8412 29.1707 66.741 28.8986 65.8656 28.3545C65.0139 27.8103 64.3632 27.0887 63.9137 26.1896C62.991 24.4388 62.5296 22.5697 62.5296 20.5823C62.5296 18.2636 63.0619 16.0869 64.1266 14.0522C64.6471 13.0348 65.3688 12.2067 66.2915 11.5679C67.2142 10.9291 68.2552 10.6097 69.4146 10.6097ZM71.473 18.169C71.473 17.4592 71.331 16.8204 71.0471 16.2525C70.7632 15.6847 70.29 15.4008 69.6275 15.4008C68.9887 15.4008 68.3617 15.8621 67.7466 16.7849C67.1551 17.6839 66.8593 18.7841 66.8593 20.0854C66.8593 21.9072 67.4626 22.8181 68.6693 22.8181C69.3318 22.8181 69.9587 22.404 70.5502 21.576C71.1654 20.7479 71.473 19.6122 71.473 18.169Z" fill="#433E3E"/>
<path d="M90.0545 20.8662L90.09 21.7179V21.8599C90.09 23.1138 90.4685 24.0011 91.2257 24.5216C91.5805 24.8055 91.758 25.1131 91.758 25.4443C91.758 25.7755 91.6752 26.0595 91.5096 26.2961C90.9891 27.0532 90.3384 27.6565 89.5576 28.106C88.5166 28.7212 87.6057 29.0288 86.8249 29.0288C86.0442 29.0288 85.6183 28.6502 85.5473 27.8931C85.5 27.3016 85.3817 27.0059 85.1924 27.0059L84.944 27.1478C84.1396 28.2598 83.0749 28.8158 81.75 28.8158C80.7799 28.8158 79.94 28.5674 79.2302 28.0705C78.5441 27.5737 78.0235 26.8994 77.6687 26.0476C76.9825 24.4388 76.6395 22.6288 76.6395 20.6177C76.6395 18.4647 77.1836 16.3945 78.272 14.4071C78.8161 13.4607 79.5496 12.6917 80.4723 12.1003C81.3951 11.4851 82.4124 11.1775 83.5244 11.1775C84.0449 11.1775 84.4708 11.2485 84.802 11.3905L85.2989 11.6034C85.4645 11.6034 85.5592 11.4141 85.5828 11.0356C85.6301 10.657 85.6538 10.172 85.6538 9.5805C85.6538 8.96535 85.6301 8.4685 85.5828 8.08994C85.5355 7.68773 85.4763 7.39198 85.4054 7.2027C85.3344 7.01343 85.2516 6.85964 85.1569 6.74134C85.015 6.55206 84.7784 6.35096 84.4472 6.13802C84.1396 5.92508 83.9858 5.62934 83.9858 5.25078C83.9858 4.47001 84.6483 3.72473 85.9732 3.01494C87.3218 2.30515 88.4338 1.95026 89.3092 1.95026C89.9717 1.95026 90.3384 2.246 90.4094 2.83749C90.4567 3.07409 90.4804 3.54728 90.4804 4.25707C90.4804 4.96687 90.3976 6.41011 90.2319 8.58679C90.09 10.7635 90.019 12.8455 90.019 14.8329V18.3819L90.0545 20.1919V20.8662ZM82.6727 22.4987C83.5481 22.4987 84.246 22.0018 84.7666 21.0081C85.3107 20.0144 85.5828 19.1272 85.5828 18.3464C85.5828 16.501 85.0741 15.5782 84.0568 15.5782C83.2287 15.5782 82.5307 16.1106 81.9629 17.1753C81.4187 18.2163 81.1466 19.21 81.1466 20.1564C81.1466 21.6233 81.6553 22.404 82.6727 22.4987Z" fill="#433E3E"/>
<path d="M47.8167 11.0356C47.3908 14.8684 47.1779 18.7723 47.1779 22.7471C47.1779 26.6983 46.965 29.5374 46.5391 31.2646C46.1369 32.9917 45.3324 34.4113 44.1258 35.5233C42.9428 36.6353 41.5232 37.1913 39.8671 37.1913C38.897 37.1913 38.0571 36.9193 37.3473 36.3751C36.6375 35.8546 36.2826 35.1211 36.2826 34.1747C36.2826 33.5832 36.4364 33.11 36.744 32.7552C37.0752 32.4239 37.4065 32.2228 37.7377 32.1518L38.2345 32.0809C39.0863 32.0335 39.7961 31.8088 40.3639 31.4066C40.9554 31.0043 41.3694 30.5075 41.606 29.916C41.9846 28.9696 42.1739 28.0587 42.1739 27.1833V26.8994C42.1502 26.7338 42.0674 26.651 41.9254 26.651L41.5706 26.8284C41.263 27.2779 40.8726 27.6328 40.3994 27.8931C39.9499 28.1297 39.5595 28.2716 39.2282 28.319L38.7669 28.3545C37.7495 28.3545 36.8859 28.0942 36.1761 27.5737C35.4664 27.0295 34.9695 26.3316 34.6856 25.4798C34.1887 23.9892 33.9403 22.6052 33.9403 21.3275C33.9403 20.0499 34.0586 18.8551 34.2952 17.7431C34.5318 16.6074 34.8985 15.5072 35.3954 14.4426C35.9159 13.3779 36.6493 12.5143 37.5957 11.8518C38.5421 11.1894 39.5358 10.8581 40.5768 10.8581C41.6179 10.8581 42.4105 11.0947 42.9546 11.5679C43.0256 11.7099 43.1321 11.7809 43.2741 11.7809C43.416 11.7809 43.5343 11.7099 43.6289 11.5679C44.5044 10.4559 45.5335 9.89991 46.7165 9.89991C47.45 9.89991 47.8167 10.2785 47.8167 11.0356ZM40.8253 22.3212C41.4168 22.3212 41.89 22.0137 42.2449 21.3985C42.6234 20.7834 42.8009 19.9553 42.7772 18.9142C42.7772 17.8732 42.5643 16.9741 42.1384 16.217C41.7362 15.4599 41.2511 15.0814 40.6833 15.0814C40.1155 15.0814 39.6423 15.4008 39.2637 16.0396C38.9088 16.6547 38.7314 17.471 38.7314 18.4884C38.7314 19.4821 38.9325 20.3693 39.3347 21.1501C39.7606 21.9309 40.2574 22.3212 40.8253 22.3212Z" stroke="#F7F7F7" stroke-width="1.67039" mask="url(#path-9-outside-1_314_1912)"/>
<path d="M55.4822 10.6097C57.5406 10.6097 59.1021 11.5088 60.1668 13.3069C61.2551 15.105 61.7993 17.3054 61.7993 19.9079C61.7993 23.3386 60.8174 25.9412 58.8537 27.7156C57.7653 28.6857 56.5587 29.1707 55.2337 29.1707C53.9088 29.1707 52.8086 28.8986 51.9332 28.3545C51.0815 27.8103 50.4308 27.0887 49.9813 26.1896C49.0586 24.4388 48.5972 22.5697 48.5972 20.5823C48.5972 18.2636 49.1295 16.0869 50.1942 14.0522C50.7147 13.0348 51.4364 12.2067 52.3591 11.5679C53.2818 10.9291 54.3228 10.6097 55.4822 10.6097ZM57.5406 18.169C57.5406 17.4592 57.3986 16.8204 57.1147 16.2525C56.8308 15.6847 56.3576 15.4008 55.6951 15.4008C55.0563 15.4008 54.4293 15.8621 53.8142 16.7849C53.2227 17.6839 52.9269 18.7841 52.9269 20.0854C52.9269 21.9072 53.5302 22.8181 54.7369 22.8181C55.3994 22.8181 56.0263 22.404 56.6178 21.576C57.233 20.7479 57.5406 19.6122 57.5406 18.169Z" stroke="#F7F7F7" stroke-width="1.67039" mask="url(#path-9-outside-1_314_1912)"/>
<path d="M69.4146 10.6097C71.473 10.6097 73.0345 11.5088 74.0992 13.3069C75.1875 15.105 75.7317 17.3054 75.7317 19.9079C75.7317 23.3386 74.7498 25.9412 72.7861 27.7156C71.6977 28.6857 70.4911 29.1707 69.1661 29.1707C67.8412 29.1707 66.741 28.8986 65.8656 28.3545C65.0139 27.8103 64.3632 27.0887 63.9137 26.1896C62.991 24.4388 62.5296 22.5697 62.5296 20.5823C62.5296 18.2636 63.0619 16.0869 64.1266 14.0522C64.6471 13.0348 65.3688 12.2067 66.2915 11.5679C67.2142 10.9291 68.2552 10.6097 69.4146 10.6097ZM71.473 18.169C71.473 17.4592 71.331 16.8204 71.0471 16.2525C70.7632 15.6847 70.29 15.4008 69.6275 15.4008C68.9887 15.4008 68.3617 15.8621 67.7466 16.7849C67.1551 17.6839 66.8593 18.7841 66.8593 20.0854C66.8593 21.9072 67.4626 22.8181 68.6693 22.8181C69.3318 22.8181 69.9587 22.404 70.5502 21.576C71.1654 20.7479 71.473 19.6122 71.473 18.169Z" stroke="#F7F7F7" stroke-width="1.67039" mask="url(#path-9-outside-1_314_1912)"/>
<path d="M90.0545 20.8662L90.09 21.7179V21.8599C90.09 23.1138 90.4685 24.0011 91.2257 24.5216C91.5805 24.8055 91.758 25.1131 91.758 25.4443C91.758 25.7755 91.6752 26.0595 91.5096 26.2961C90.9891 27.0532 90.3384 27.6565 89.5576 28.106C88.5166 28.7212 87.6057 29.0288 86.8249 29.0288C86.0442 29.0288 85.6183 28.6502 85.5473 27.8931C85.5 27.3016 85.3817 27.0059 85.1924 27.0059L84.944 27.1478C84.1396 28.2598 83.0749 28.8158 81.75 28.8158C80.7799 28.8158 79.94 28.5674 79.2302 28.0705C78.5441 27.5737 78.0235 26.8994 77.6687 26.0476C76.9825 24.4388 76.6395 22.6288 76.6395 20.6177C76.6395 18.4647 77.1836 16.3945 78.272 14.4071C78.8161 13.4607 79.5496 12.6917 80.4723 12.1003C81.3951 11.4851 82.4124 11.1775 83.5244 11.1775C84.0449 11.1775 84.4708 11.2485 84.802 11.3905L85.2989 11.6034C85.4645 11.6034 85.5592 11.4141 85.5828 11.0356C85.6301 10.657 85.6538 10.172 85.6538 9.5805C85.6538 8.96535 85.6301 8.4685 85.5828 8.08994C85.5355 7.68773 85.4763 7.39198 85.4054 7.2027C85.3344 7.01343 85.2516 6.85964 85.1569 6.74134C85.015 6.55206 84.7784 6.35096 84.4472 6.13802C84.1396 5.92508 83.9858 5.62934 83.9858 5.25078C83.9858 4.47001 84.6483 3.72473 85.9732 3.01494C87.3218 2.30515 88.4338 1.95026 89.3092 1.95026C89.9717 1.95026 90.3384 2.246 90.4094 2.83749C90.4567 3.07409 90.4804 3.54728 90.4804 4.25707C90.4804 4.96687 90.3976 6.41011 90.2319 8.58679C90.09 10.7635 90.019 12.8455 90.019 14.8329V18.3819L90.0545 20.1919V20.8662ZM82.6727 22.4987C83.5481 22.4987 84.246 22.0018 84.7666 21.0081C85.3107 20.0144 85.5828 19.1272 85.5828 18.3464C85.5828 16.501 85.0741 15.5782 84.0568 15.5782C83.2287 15.5782 82.5307 16.1106 81.9629 17.1753C81.4187 18.2163 81.1466 19.21 81.1466 20.1564C81.1466 21.6233 81.6553 22.404 82.6727 22.4987Z" stroke="#F7F7F7" stroke-width="1.67039" mask="url(#path-9-outside-1_314_1912)"/>
<mask id="path-10-outside-2_314_1912" maskUnits="userSpaceOnUse" x="90.758" y="0.950256" width="57" height="29" fill="black">
<rect fill="white" x="90.758" y="0.950256" width="57" height="29"/>
<path d="M98.818 4.24099L98.7429 6.04354C98.7429 6.69446 98.8806 7.05747 99.156 7.13258C99.4564 7.20769 99.7443 7.24524 100.02 7.24524C100.295 7.24524 100.708 7.2202 101.259 7.17013C101.785 7.17013 102.048 7.50811 102.048 8.18407C102.048 9.46087 101.134 10.4498 99.3062 11.1508C99.0558 11.2509 98.8806 11.4762 98.7804 11.8267C98.6302 13.3539 98.5551 15.1439 98.5551 17.1968C98.5551 19.2497 98.6302 20.6016 98.7804 21.2525C98.9056 21.8534 99.3563 22.2164 100.132 22.3416C100.308 22.3416 100.47 22.4292 100.621 22.6044C100.896 22.9299 101.034 23.2554 101.034 23.5808C101.034 23.8812 101.009 24.1817 100.959 24.4821C100.908 24.7575 100.783 25.1581 100.583 25.6838C100.408 26.1845 100.17 26.6602 99.8695 27.1108C99.5941 27.5364 99.1685 27.9119 98.5927 28.2374C98.0169 28.5629 97.3659 28.7256 96.6399 28.7256C95.3881 28.7256 94.4869 27.9871 93.9361 26.51C93.7358 25.9341 93.6357 25.2457 93.6357 24.4445L93.9361 14.3428C93.9361 13.116 93.861 12.1146 93.7108 11.3385C93.5856 10.5624 93.1099 9.8364 92.2838 9.16044C91.9333 8.91009 91.758 8.5596 91.758 8.10896C91.758 7.65832 91.9833 7.20768 92.434 6.75705C93.8109 5.90584 95.0752 4.56645 96.2268 2.73887C96.5773 2.2632 97.0154 2.02536 97.5412 2.02536C98.3924 2.02536 98.818 2.76391 98.818 4.24099Z"/>
<path d="M103.371 15.7322C103.371 15.3317 103.271 14.9561 103.07 14.6056C102.895 14.2551 102.657 13.9422 102.357 13.6668C102.056 13.3914 101.906 13.091 101.906 12.7655C101.906 11.9143 102.557 11.1633 103.859 10.5124C105.161 9.8364 106.25 9.49842 107.126 9.49842C108.027 9.49842 108.49 9.94906 108.515 10.8503C108.515 11.4762 108.453 12.6028 108.328 14.2301C108.228 15.8324 108.178 17.322 108.178 18.6989C108.178 22.0286 108.478 24.1191 109.079 24.9703C109.429 25.1706 109.605 25.4835 109.605 25.9091C109.605 26.7353 109.141 27.3862 108.215 27.8619C107.314 28.3375 106.287 28.5754 105.136 28.5754C103.609 28.5754 102.845 28.0622 102.845 27.0357C102.845 26.9856 102.883 26.6977 102.958 26.172C103.308 24.1692 103.483 21.9285 103.483 19.45L103.371 15.7322ZM108.891 3.79036C108.891 4.71666 108.44 5.46773 107.539 6.04354C106.663 6.59432 105.812 6.86971 104.986 6.86971C104.159 6.86971 103.508 6.71949 103.033 6.41907C102.582 6.09361 102.357 5.66801 102.357 5.14227C102.357 4.19092 102.807 3.42734 103.709 2.85153C104.61 2.25068 105.461 1.95026 106.262 1.95026C107.088 1.95026 107.727 2.11299 108.178 2.43844C108.653 2.7639 108.891 3.21454 108.891 3.79036Z"/>
<path d="M116.057 18.4361L115.982 21.2525C115.982 23.005 116.019 24.2317 116.094 24.9327C116.17 25.6087 116.207 26.0343 116.207 26.2095C116.207 27.0357 115.919 27.6491 115.343 28.0496C114.392 28.7006 113.203 29.026 111.776 29.026C110.749 29.026 110.236 28.5879 110.236 27.7117L110.311 27.1108C110.962 24.0565 111.288 20.2261 111.288 15.6196C111.288 15.219 111.2 14.856 111.025 14.5305C110.85 14.2051 110.574 13.9046 110.199 13.6293C109.923 13.3789 109.786 13.1035 109.786 12.8031C109.786 12.002 110.449 11.2259 111.776 10.4748C113.103 9.72374 114.142 9.34821 114.893 9.34821C115.669 9.34821 116.082 9.76129 116.132 10.5875C116.182 10.938 116.22 11.301 116.245 11.6765C116.295 11.8517 116.382 11.9394 116.508 11.9394C116.533 11.9394 116.608 11.9018 116.733 11.8267C117.058 11.326 117.609 10.8629 118.385 10.4372C119.186 10.0116 119.962 9.79885 120.713 9.79885C122.391 9.79885 123.48 10.625 123.981 12.2773C124.031 12.3525 124.093 12.39 124.168 12.39C124.243 12.39 124.331 12.3274 124.431 12.2022C125.383 10.6 126.822 9.79885 128.75 9.79885C130.327 9.79885 131.316 10.6125 131.717 12.2398C132.017 13.4415 132.167 14.8685 132.167 16.5208L131.979 21.2901C131.979 23.2178 132.405 24.407 133.256 24.8576C133.682 25.0829 133.895 25.4084 133.895 25.834C133.895 26.56 133.381 27.2235 132.355 27.8243C131.354 28.4001 130.29 28.688 129.163 28.688C128.036 28.688 127.385 28.2624 127.21 27.4112C127.16 27.1859 127.135 26.6101 127.135 25.6838L127.36 19.7129C127.385 19.4625 127.398 19.1245 127.398 18.6989C127.398 16.4958 126.935 15.3943 126.008 15.3943C125.408 15.3943 124.944 15.7573 124.619 16.4833C124.319 17.1843 124.156 17.8477 124.131 18.4736C124.106 19.0995 124.093 19.9006 124.093 20.877C124.093 21.8534 124.106 22.7046 124.131 23.4306C124.181 24.1566 124.231 24.745 124.281 25.1956C124.331 25.6212 124.356 25.8841 124.356 25.9842C124.356 26.7353 124.031 27.3612 123.38 27.8619C122.754 28.3626 121.815 28.6129 120.563 28.6129C119.337 28.6129 118.723 28.2124 118.723 27.4112L118.873 26.5475C119.224 24.9202 119.399 22.2665 119.399 18.5863C119.399 16.3832 118.923 15.2816 117.972 15.2816C117.346 15.2816 116.871 15.6321 116.545 16.3331C116.22 17.0341 116.057 17.7351 116.057 18.4361Z"/>
<path d="M138.849 16.7462C138.849 16.8964 138.899 17.0216 138.999 17.1217C139.099 17.2469 139.225 17.3095 139.375 17.3095C140.802 17.1843 141.753 16.5083 142.229 15.2816C142.354 15.0062 142.442 14.6807 142.492 14.3052C142.467 13.429 142.116 12.9909 141.44 12.9909C140.664 12.9909 140.063 13.3664 139.638 14.1175C139.237 14.8685 138.974 15.7447 138.849 16.7462ZM141.403 9.53598C143.08 9.53598 144.382 9.96158 145.308 10.8128C146.259 11.664 146.735 12.9533 146.735 14.6807C146.735 16.4082 146.047 17.8352 144.67 18.9618C143.318 20.0884 141.603 20.6517 139.525 20.6517C139.225 20.6517 139.074 20.8019 139.074 21.1023C139.074 21.7032 139.287 22.2289 139.713 22.6795C140.163 23.1052 140.764 23.318 141.515 23.318C142.291 23.318 142.98 22.9675 143.581 22.2665C144.207 21.5655 144.745 21.215 145.195 21.215C145.671 21.215 146.047 21.4153 146.322 21.8158C146.597 22.2164 146.735 22.7922 146.735 23.5433C146.735 24.2693 146.547 25.0078 146.172 25.7589C145.821 26.4849 145.396 27.0357 144.895 27.4112C144.394 27.7868 143.831 28.0872 143.205 28.3125C142.279 28.663 141.29 28.8383 140.238 28.8383C139.212 28.8383 138.248 28.5879 137.347 28.0872C136.446 27.5865 135.745 26.9105 135.244 26.0593C134.268 24.3569 133.779 22.4793 133.779 20.4264C133.779 18.3484 134.03 16.5459 134.53 15.0187C135.031 13.4916 135.882 12.2022 137.084 11.1508C138.311 10.0742 139.75 9.53598 141.403 9.53598Z"/>
</mask>
<path d="M98.818 4.24099L98.7429 6.04354C98.7429 6.69446 98.8806 7.05747 99.156 7.13258C99.4564 7.20769 99.7443 7.24524 100.02 7.24524C100.295 7.24524 100.708 7.2202 101.259 7.17013C101.785 7.17013 102.048 7.50811 102.048 8.18407C102.048 9.46087 101.134 10.4498 99.3062 11.1508C99.0558 11.2509 98.8806 11.4762 98.7804 11.8267C98.6302 13.3539 98.5551 15.1439 98.5551 17.1968C98.5551 19.2497 98.6302 20.6016 98.7804 21.2525C98.9056 21.8534 99.3563 22.2164 100.132 22.3416C100.308 22.3416 100.47 22.4292 100.621 22.6044C100.896 22.9299 101.034 23.2554 101.034 23.5808C101.034 23.8812 101.009 24.1817 100.959 24.4821C100.908 24.7575 100.783 25.1581 100.583 25.6838C100.408 26.1845 100.17 26.6602 99.8695 27.1108C99.5941 27.5364 99.1685 27.9119 98.5927 28.2374C98.0169 28.5629 97.3659 28.7256 96.6399 28.7256C95.3881 28.7256 94.4869 27.9871 93.9361 26.51C93.7358 25.9341 93.6357 25.2457 93.6357 24.4445L93.9361 14.3428C93.9361 13.116 93.861 12.1146 93.7108 11.3385C93.5856 10.5624 93.1099 9.8364 92.2838 9.16044C91.9333 8.91009 91.758 8.5596 91.758 8.10896C91.758 7.65832 91.9833 7.20768 92.434 6.75705C93.8109 5.90584 95.0752 4.56645 96.2268 2.73887C96.5773 2.2632 97.0154 2.02536 97.5412 2.02536C98.3924 2.02536 98.818 2.76391 98.818 4.24099Z" fill="#433E3E"/>
<path d="M103.371 15.7322C103.371 15.3317 103.271 14.9561 103.07 14.6056C102.895 14.2551 102.657 13.9422 102.357 13.6668C102.056 13.3914 101.906 13.091 101.906 12.7655C101.906 11.9143 102.557 11.1633 103.859 10.5124C105.161 9.8364 106.25 9.49842 107.126 9.49842C108.027 9.49842 108.49 9.94906 108.515 10.8503C108.515 11.4762 108.453 12.6028 108.328 14.2301C108.228 15.8324 108.178 17.322 108.178 18.6989C108.178 22.0286 108.478 24.1191 109.079 24.9703C109.429 25.1706 109.605 25.4835 109.605 25.9091C109.605 26.7353 109.141 27.3862 108.215 27.8619C107.314 28.3375 106.287 28.5754 105.136 28.5754C103.609 28.5754 102.845 28.0622 102.845 27.0357C102.845 26.9856 102.883 26.6977 102.958 26.172C103.308 24.1692 103.483 21.9285 103.483 19.45L103.371 15.7322ZM108.891 3.79036C108.891 4.71666 108.44 5.46773 107.539 6.04354C106.663 6.59432 105.812 6.86971 104.986 6.86971C104.159 6.86971 103.508 6.71949 103.033 6.41907C102.582 6.09361 102.357 5.66801 102.357 5.14227C102.357 4.19092 102.807 3.42734 103.709 2.85153C104.61 2.25068 105.461 1.95026 106.262 1.95026C107.088 1.95026 107.727 2.11299 108.178 2.43844C108.653 2.7639 108.891 3.21454 108.891 3.79036Z" fill="#433E3E"/>
<path d="M116.057 18.4361L115.982 21.2525C115.982 23.005 116.019 24.2317 116.094 24.9327C116.17 25.6087 116.207 26.0343 116.207 26.2095C116.207 27.0357 115.919 27.6491 115.343 28.0496C114.392 28.7006 113.203 29.026 111.776 29.026C110.749 29.026 110.236 28.5879 110.236 27.7117L110.311 27.1108C110.962 24.0565 111.288 20.2261 111.288 15.6196C111.288 15.219 111.2 14.856 111.025 14.5305C110.85 14.2051 110.574 13.9046 110.199 13.6293C109.923 13.3789 109.786 13.1035 109.786 12.8031C109.786 12.002 110.449 11.2259 111.776 10.4748C113.103 9.72374 114.142 9.34821 114.893 9.34821C115.669 9.34821 116.082 9.76129 116.132 10.5875C116.182 10.938 116.22 11.301 116.245 11.6765C116.295 11.8517 116.382 11.9394 116.508 11.9394C116.533 11.9394 116.608 11.9018 116.733 11.8267C117.058 11.326 117.609 10.8629 118.385 10.4372C119.186 10.0116 119.962 9.79885 120.713 9.79885C122.391 9.79885 123.48 10.625 123.981 12.2773C124.031 12.3525 124.093 12.39 124.168 12.39C124.243 12.39 124.331 12.3274 124.431 12.2022C125.383 10.6 126.822 9.79885 128.75 9.79885C130.327 9.79885 131.316 10.6125 131.717 12.2398C132.017 13.4415 132.167 14.8685 132.167 16.5208L131.979 21.2901C131.979 23.2178 132.405 24.407 133.256 24.8576C133.682 25.0829 133.895 25.4084 133.895 25.834C133.895 26.56 133.381 27.2235 132.355 27.8243C131.354 28.4001 130.29 28.688 129.163 28.688C128.036 28.688 127.385 28.2624 127.21 27.4112C127.16 27.1859 127.135 26.6101 127.135 25.6838L127.36 19.7129C127.385 19.4625 127.398 19.1245 127.398 18.6989C127.398 16.4958 126.935 15.3943 126.008 15.3943C125.408 15.3943 124.944 15.7573 124.619 16.4833C124.319 17.1843 124.156 17.8477 124.131 18.4736C124.106 19.0995 124.093 19.9006 124.093 20.877C124.093 21.8534 124.106 22.7046 124.131 23.4306C124.181 24.1566 124.231 24.745 124.281 25.1956C124.331 25.6212 124.356 25.8841 124.356 25.9842C124.356 26.7353 124.031 27.3612 123.38 27.8619C122.754 28.3626 121.815 28.6129 120.563 28.6129C119.337 28.6129 118.723 28.2124 118.723 27.4112L118.873 26.5475C119.224 24.9202 119.399 22.2665 119.399 18.5863C119.399 16.3832 118.923 15.2816 117.972 15.2816C117.346 15.2816 116.871 15.6321 116.545 16.3331C116.22 17.0341 116.057 17.7351 116.057 18.4361Z" fill="#433E3E"/>
<path d="M138.849 16.7462C138.849 16.8964 138.899 17.0216 138.999 17.1217C139.099 17.2469 139.225 17.3095 139.375 17.3095C140.802 17.1843 141.753 16.5083 142.229 15.2816C142.354 15.0062 142.442 14.6807 142.492 14.3052C142.467 13.429 142.116 12.9909 141.44 12.9909C140.664 12.9909 140.063 13.3664 139.638 14.1175C139.237 14.8685 138.974 15.7447 138.849 16.7462ZM141.403 9.53598C143.08 9.53598 144.382 9.96158 145.308 10.8128C146.259 11.664 146.735 12.9533 146.735 14.6807C146.735 16.4082 146.047 17.8352 144.67 18.9618C143.318 20.0884 141.603 20.6517 139.525 20.6517C139.225 20.6517 139.074 20.8019 139.074 21.1023C139.074 21.7032 139.287 22.2289 139.713 22.6795C140.163 23.1052 140.764 23.318 141.515 23.318C142.291 23.318 142.98 22.9675 143.581 22.2665C144.207 21.5655 144.745 21.215 145.195 21.215C145.671 21.215 146.047 21.4153 146.322 21.8158C146.597 22.2164 146.735 22.7922 146.735 23.5433C146.735 24.2693 146.547 25.0078 146.172 25.7589C145.821 26.4849 145.396 27.0357 144.895 27.4112C144.394 27.7868 143.831 28.0872 143.205 28.3125C142.279 28.663 141.29 28.8383 140.238 28.8383C139.212 28.8383 138.248 28.5879 137.347 28.0872C136.446 27.5865 135.745 26.9105 135.244 26.0593C134.268 24.3569 133.779 22.4793 133.779 20.4264C133.779 18.3484 134.03 16.5459 134.53 15.0187C135.031 13.4916 135.882 12.2022 137.084 11.1508C138.311 10.0742 139.75 9.53598 141.403 9.53598Z" fill="#433E3E"/>
<path d="M98.818 4.24099L98.7429 6.04354C98.7429 6.69446 98.8806 7.05747 99.156 7.13258C99.4564 7.20769 99.7443 7.24524 100.02 7.24524C100.295 7.24524 100.708 7.2202 101.259 7.17013C101.785 7.17013 102.048 7.50811 102.048 8.18407C102.048 9.46087 101.134 10.4498 99.3062 11.1508C99.0558 11.2509 98.8806 11.4762 98.7804 11.8267C98.6302 13.3539 98.5551 15.1439 98.5551 17.1968C98.5551 19.2497 98.6302 20.6016 98.7804 21.2525C98.9056 21.8534 99.3563 22.2164 100.132 22.3416C100.308 22.3416 100.47 22.4292 100.621 22.6044C100.896 22.9299 101.034 23.2554 101.034 23.5808C101.034 23.8812 101.009 24.1817 100.959 24.4821C100.908 24.7575 100.783 25.1581 100.583 25.6838C100.408 26.1845 100.17 26.6602 99.8695 27.1108C99.5941 27.5364 99.1685 27.9119 98.5927 28.2374C98.0169 28.5629 97.3659 28.7256 96.6399 28.7256C95.3881 28.7256 94.4869 27.9871 93.9361 26.51C93.7358 25.9341 93.6357 25.2457 93.6357 24.4445L93.9361 14.3428C93.9361 13.116 93.861 12.1146 93.7108 11.3385C93.5856 10.5624 93.1099 9.8364 92.2838 9.16044C91.9333 8.91009 91.758 8.5596 91.758 8.10896C91.758 7.65832 91.9833 7.20768 92.434 6.75705C93.8109 5.90584 95.0752 4.56645 96.2268 2.73887C96.5773 2.2632 97.0154 2.02536 97.5412 2.02536C98.3924 2.02536 98.818 2.76391 98.818 4.24099Z" stroke="#F7F7F7" stroke-width="1.76751" mask="url(#path-10-outside-2_314_1912)"/>
<path d="M103.371 15.7322C103.371 15.3317 103.271 14.9561 103.07 14.6056C102.895 14.2551 102.657 13.9422 102.357 13.6668C102.056 13.3914 101.906 13.091 101.906 12.7655C101.906 11.9143 102.557 11.1633 103.859 10.5124C105.161 9.8364 106.25 9.49842 107.126 9.49842C108.027 9.49842 108.49 9.94906 108.515 10.8503C108.515 11.4762 108.453 12.6028 108.328 14.2301C108.228 15.8324 108.178 17.322 108.178 18.6989C108.178 22.0286 108.478 24.1191 109.079 24.9703C109.429 25.1706 109.605 25.4835 109.605 25.9091C109.605 26.7353 109.141 27.3862 108.215 27.8619C107.314 28.3375 106.287 28.5754 105.136 28.5754C103.609 28.5754 102.845 28.0622 102.845 27.0357C102.845 26.9856 102.883 26.6977 102.958 26.172C103.308 24.1692 103.483 21.9285 103.483 19.45L103.371 15.7322ZM108.891 3.79036C108.891 4.71666 108.44 5.46773 107.539 6.04354C106.663 6.59432 105.812 6.86971 104.986 6.86971C104.159 6.86971 103.508 6.71949 103.033 6.41907C102.582 6.09361 102.357 5.66801 102.357 5.14227C102.357 4.19092 102.807 3.42734 103.709 2.85153C104.61 2.25068 105.461 1.95026 106.262 1.95026C107.088 1.95026 107.727 2.11299 108.178 2.43844C108.653 2.7639 108.891 3.21454 108.891 3.79036Z" stroke="#F7F7F7" stroke-width="1.76751" mask="url(#path-10-outside-2_314_1912)"/>
<path d="M116.057 18.4361L115.982 21.2525C115.982 23.005 116.019 24.2317 116.094 24.9327C116.17 25.6087 116.207 26.0343 116.207 26.2095C116.207 27.0357 115.919 27.6491 115.343 28.0496C114.392 28.7006 113.203 29.026 111.776 29.026C110.749 29.026 110.236 28.5879 110.236 27.7117L110.311 27.1108C110.962 24.0565 111.288 20.2261 111.288 15.6196C111.288 15.219 111.2 14.856 111.025 14.5305C110.85 14.2051 110.574 13.9046 110.199 13.6293C109.923 13.3789 109.786 13.1035 109.786 12.8031C109.786 12.002 110.449 11.2259 111.776 10.4748C113.103 9.72374 114.142 9.34821 114.893 9.34821C115.669 9.34821 116.082 9.76129 116.132 10.5875C116.182 10.938 116.22 11.301 116.245 11.6765C116.295 11.8517 116.382 11.9394 116.508 11.9394C116.533 11.9394 116.608 11.9018 116.733 11.8267C117.058 11.326 117.609 10.8629 118.385 10.4372C119.186 10.0116 119.962 9.79885 120.713 9.79885C122.391 9.79885 123.48 10.625 123.981 12.2773C124.031 12.3525 124.093 12.39 124.168 12.39C124.243 12.39 124.331 12.3274 124.431 12.2022C125.383 10.6 126.822 9.79885 128.75 9.79885C130.327 9.79885 131.316 10.6125 131.717 12.2398C132.017 13.4415 132.167 14.8685 132.167 16.5208L131.979 21.2901C131.979 23.2178 132.405 24.407 133.256 24.8576C133.682 25.0829 133.895 25.4084 133.895 25.834C133.895 26.56 133.381 27.2235 132.355 27.8243C131.354 28.4001 130.29 28.688 129.163 28.688C128.036 28.688 127.385 28.2624 127.21 27.4112C127.16 27.1859 127.135 26.6101 127.135 25.6838L127.36 19.7129C127.385 19.4625 127.398 19.1245 127.398 18.6989C127.398 16.4958 126.935 15.3943 126.008 15.3943C125.408 15.3943 124.944 15.7573 124.619 16.4833C124.319 17.1843 124.156 17.8477 124.131 18.4736C124.106 19.0995 124.093 19.9006 124.093 20.877C124.093 21.8534 124.106 22.7046 124.131 23.4306C124.181 24.1566 124.231 24.745 124.281 25.1956C124.331 25.6212 124.356 25.8841 124.356 25.9842C124.356 26.7353 124.031 27.3612 123.38 27.8619C122.754 28.3626 121.815 28.6129 120.563 28.6129C119.337 28.6129 118.723 28.2124 118.723 27.4112L118.873 26.5475C119.224 24.9202 119.399 22.2665 119.399 18.5863C119.399 16.3832 118.923 15.2816 117.972 15.2816C117.346 15.2816 116.871 15.6321 116.545 16.3331C116.22 17.0341 116.057 17.7351 116.057 18.4361Z" stroke="#F7F7F7" stroke-width="1.76751" mask="url(#path-10-outside-2_314_1912)"/>
<path d="M138.849 16.7462C138.849 16.8964 138.899 17.0216 138.999 17.1217C139.099 17.2469 139.225 17.3095 139.375 17.3095C140.802 17.1843 141.753 16.5083 142.229 15.2816C142.354 15.0062 142.442 14.6807 142.492 14.3052C142.467 13.429 142.116 12.9909 141.44 12.9909C140.664 12.9909 140.063 13.3664 139.638 14.1175C139.237 14.8685 138.974 15.7447 138.849 16.7462ZM141.403 9.53598C143.08 9.53598 144.382 9.96158 145.308 10.8128C146.259 11.664 146.735 12.9533 146.735 14.6807C146.735 16.4082 146.047 17.8352 144.67 18.9618C143.318 20.0884 141.603 20.6517 139.525 20.6517C139.225 20.6517 139.074 20.8019 139.074 21.1023C139.074 21.7032 139.287 22.2289 139.713 22.6795C140.163 23.1052 140.764 23.318 141.515 23.318C142.291 23.318 142.98 22.9675 143.581 22.2665C144.207 21.5655 144.745 21.215 145.195 21.215C145.671 21.215 146.047 21.4153 146.322 21.8158C146.597 22.2164 146.735 22.7922 146.735 23.5433C146.735 24.2693 146.547 25.0078 146.172 25.7589C145.821 26.4849 145.396 27.0357 144.895 27.4112C144.394 27.7868 143.831 28.0872 143.205 28.3125C142.279 28.663 141.29 28.8383 140.238 28.8383C139.212 28.8383 138.248 28.5879 137.347 28.0872C136.446 27.5865 135.745 26.9105 135.244 26.0593C134.268 24.3569 133.779 22.4793 133.779 20.4264C133.779 18.3484 134.03 16.5459 134.53 15.0187C135.031 13.4916 135.882 12.2022 137.084 11.1508C138.311 10.0742 139.75 9.53598 141.403 9.53598Z" stroke="#F7F7F7" stroke-width="1.76751" mask="url(#path-10-outside-2_314_1912)"/>
<defs>
<clipPath id="clip0_314_1912">
<rect width="40.2891" height="40.2891" fill="white" transform="translate(0 0.71637)"/>
</clipPath>
</defs>
</svg>
