<svg width="378" height="101" viewBox="0 0 378 101" fill="none" xmlns="http://www.w3.org/2000/svg">
<g clip-path="url(#clip0_314_1912)">
<path fill-rule="evenodd" clip-rule="evenodd" d="M17.0417 35.3368C20.3482 39.308 23.1683 41.8725 23.1717 41.8626C23.1717 41.8626 18.5161 42.5804 15.4365 42.9852C10.2852 43.6625 0.121434 48.5047 1.52902 59.0095C2.99679 69.9637 12.5548 73.0453 19.6763 72.3325C24.8183 71.8179 28.466 70.7398 28.4597 70.7313C27.8033 71.2512 26.5634 74.208 25.5094 77.1295C23.7464 82.0176 23.3826 93.2699 33.3614 96.8414C43.7671 100.566 50.8923 93.489 53.5283 86.8353C55.4313 82.0309 56.3326 78.327 56.3223 78.3293C56.4788 78.2234 57.4926 79.7229 58.7271 81.5488C59.1547 82.1812 59.6087 82.8528 60.0628 83.5104C63.0152 87.7857 71.9603 94.6218 80.6668 88.578C89.7454 82.275 88.1281 72.3635 84.2455 66.3509C81.442 62.0097 78.7619 59.3477 78.7619 59.3477C79.6341 59.2471 80.348 59.1816 81.1082 59.1119C82.1688 59.0147 83.3194 58.9092 85.1152 58.6886C87.9665 58.3377 92.3609 56.7266 95.4972 53.5784L95.4972 34.317C91.7388 30.1408 85.8917 28.8692 81.1217 29.3062C75.9757 29.7778 72.0255 30.3891 72.0255 30.3891C72.3674 29.5813 72.662 28.9282 72.9755 28.233C73.4136 27.2617 73.8887 26.2082 74.5818 24.5357C76.571 19.7358 77.4594 8.51267 67.6582 4.47923C57.4376 0.27325 49.9899 7.00988 47.0465 13.5338C46.6471 14.4187 46.2851 15.2665 45.9603 16.0598C44.5562 19.4893 43.6241 20.7384 43.6241 20.7384C43.1089 20.1483 42.6186 19.5776 42.0997 18.9735C41.2257 17.9561 40.2705 16.844 38.9776 15.3856C35.531 11.4975 25.8265 5.79045 17.913 12.8408C9.66077 20.1928 12.4619 29.8367 17.0417 35.3368Z" fill="#DC7851"/>
<path d="M23.1717 41.8626L23.9908 42.1454C24.0899 41.8584 24.0315 41.5404 23.8369 41.3073C23.6423 41.0742 23.3398 40.96 23.0397 41.0062L23.1717 41.8626ZM17.0417 35.3368L17.7076 34.7824L17.7076 34.7823L17.0417 35.3368ZM15.4365 42.9852L15.5494 43.8444L15.5494 43.8444L15.4365 42.9852ZM1.52902 59.0095L2.38788 58.8944L2.38788 58.8944L1.52902 59.0095ZM19.6763 72.3325L19.5901 71.4702L19.59 71.4702L19.6763 72.3325ZM28.4597 70.7313L29.1568 70.2165C29.0172 70.0276 28.807 69.9034 28.5742 69.8724C28.3414 69.8414 28.1059 69.9062 27.9218 70.052L28.4597 70.7313ZM25.5094 77.1295L24.6943 76.8354L24.6942 76.8355L25.5094 77.1295ZM33.3614 96.8414L33.6535 96.0256L33.6534 96.0255L33.3614 96.8414ZM53.5283 86.8353L54.3339 87.1545L54.3339 87.1544L53.5283 86.8353ZM56.3223 78.3293L55.8366 77.6117C55.4913 77.8454 55.3614 78.2918 55.5274 78.6743C55.6933 79.0567 56.1081 79.2668 56.5147 79.1743L56.3223 78.3293ZM58.7271 81.5488L58.0093 82.0342L58.0093 82.0342L58.7271 81.5488ZM60.0628 83.5104L59.3498 84.0028L59.3498 84.0028L60.0628 83.5104ZM80.6668 88.578L81.1609 89.2899L81.1609 89.2899L80.6668 88.578ZM84.2455 66.3509L84.9734 65.8808L84.9734 65.8808L84.2455 66.3509ZM78.7619 59.3477L78.6626 58.4869C78.3318 58.525 78.0522 58.7493 77.9431 59.0639C77.8341 59.3786 77.915 59.7278 78.1512 59.9625L78.7619 59.3477ZM81.1082 59.1119L81.0291 58.249L81.0291 58.249L81.1082 59.1119ZM85.1152 58.6886L85.2208 59.5486L85.221 59.5486L85.1152 58.6886ZM95.4972 53.5784L96.1111 54.19C96.2729 54.0276 96.3637 53.8077 96.3637 53.5784L95.4972 53.5784ZM95.4972 34.317L96.3637 34.317C96.3637 34.103 96.2845 33.8965 96.1413 33.7374L95.4972 34.317ZM81.1217 29.3062L81.2008 30.1692L81.2008 30.1692L81.1217 29.3062ZM72.0255 30.3891L71.2275 30.0513C71.105 30.3407 71.1489 30.6738 71.342 30.9217C71.5352 31.1696 71.8475 31.2935 72.1581 31.2454L72.0255 30.3891ZM72.9755 28.233L73.7654 28.5893L73.7654 28.5893L72.9755 28.233ZM74.5818 24.5357L75.3823 24.8675L75.3824 24.8674L74.5818 24.5357ZM67.6582 4.47923L67.988 3.6779L67.9879 3.6779L67.6582 4.47923ZM47.0465 13.5338L47.8363 13.8902L47.8363 13.8901L47.0465 13.5338ZM45.9603 16.0598L45.1583 15.7315L45.1583 15.7315L45.9603 16.0598ZM43.6241 20.7384L42.9714 21.3083C43.1436 21.5055 43.3957 21.6143 43.6573 21.6043C43.9189 21.5942 44.162 21.4665 44.3186 21.2566L43.6241 20.7384ZM42.0997 18.9735L42.757 18.4089L42.757 18.4089L42.0997 18.9735ZM38.9776 15.3856L39.6261 14.8108L39.6261 14.8108L38.9776 15.3856ZM17.913 12.8408L18.4894 13.4878L18.4894 13.4878L17.913 12.8408ZM22.3526 41.5799C22.5105 41.3026 22.9636 41.0215 23.1827 40.9962C23.2877 41.004 23.4438 41.04 23.4954 41.0589C23.5741 41.0906 23.6302 41.1274 23.6385 41.1328C23.672 41.1542 23.6964 41.1733 23.6997 41.1759C23.7081 41.1823 23.7142 41.1873 23.7168 41.1894C23.7198 41.1919 23.722 41.1938 23.7229 41.1945C23.7252 41.1964 23.7229 41.1946 23.7138 41.1865C23.697 41.1715 23.6687 41.146 23.6286 41.1093C23.5492 41.0365 23.4297 40.9252 23.2747 40.7777C22.9648 40.483 22.5154 40.0459 21.9628 39.4847C20.8575 38.362 19.3426 36.746 17.7076 34.7824L16.3758 35.8913C18.0473 37.8988 19.5957 39.5507 20.7279 40.7006C21.2941 41.2757 21.7571 41.7261 22.0802 42.0335C22.2417 42.1871 22.3689 42.3056 22.4573 42.3866C22.5012 42.4268 22.537 42.4593 22.5635 42.4828C22.576 42.4939 22.5902 42.5063 22.6035 42.5176C22.6086 42.5219 22.6224 42.5335 22.6393 42.5466C22.644 42.5503 22.6695 42.5701 22.7037 42.5921C22.7124 42.5976 22.7688 42.6346 22.8477 42.6664C22.8994 42.6853 23.0555 42.7214 23.1606 42.7291C23.3797 42.7039 23.8329 42.4227 23.9908 42.1454L22.3526 41.5799ZM15.5494 43.8444C17.0967 43.641 19.0364 43.3594 20.5863 43.1292C21.3618 43.0141 22.041 42.9115 22.5263 42.8378C22.769 42.801 22.9632 42.7713 23.0968 42.7508C23.1636 42.7406 23.2153 42.7327 23.2503 42.7273C23.2678 42.7246 23.2811 42.7225 23.2901 42.7212C23.2946 42.7205 23.298 42.72 23.3003 42.7196C23.3014 42.7194 23.3023 42.7193 23.3028 42.7192C23.3031 42.7192 23.3034 42.7191 23.3035 42.7191C23.3036 42.7191 23.3036 42.7191 23.3037 42.7191C23.3037 42.7191 23.3037 42.7191 23.1717 41.8626C23.0397 41.0062 23.0397 41.0062 23.0396 41.0062C23.0396 41.0062 23.0396 41.0062 23.0395 41.0063C23.0394 41.0063 23.0392 41.0063 23.0389 41.0064C23.0383 41.0064 23.0375 41.0066 23.0364 41.0067C23.0342 41.0071 23.0309 41.0076 23.0264 41.0083C23.0176 41.0096 23.0044 41.0117 22.9871 41.0143C22.9524 41.0197 22.901 41.0275 22.8345 41.0377C22.7015 41.0581 22.5079 41.0877 22.266 41.1244C21.7822 41.1979 21.1049 41.3001 20.3317 41.415C18.7838 41.6449 16.8559 41.9246 15.3236 42.1261L15.5494 43.8444ZM2.38788 58.8944C1.7303 53.9869 3.75635 50.4238 6.59076 47.9668C9.45758 45.4816 13.123 44.1634 15.5494 43.8444L15.3236 42.1261C12.5987 42.4843 8.60655 43.9258 5.45557 46.6573C2.27217 49.4168 -0.0798462 53.5273 0.670161 59.1246L2.38788 58.8944ZM19.59 71.4702C16.1723 71.8124 12.1961 71.238 8.92402 69.3005C5.68483 67.3826 3.08586 64.1036 2.38788 58.8944L0.670161 59.1246C1.43995 64.8697 4.35388 68.6086 8.04103 70.7918C11.6952 72.9555 16.0589 73.5654 19.7626 73.1947L19.59 71.4702ZM27.7627 71.2461C27.6256 70.9661 27.6394 70.4521 27.7297 70.2646C27.789 70.1828 27.8973 70.0723 27.9392 70.0386C28.0065 69.9881 28.0664 69.9593 28.0759 69.9546C28.112 69.9368 28.1413 69.9257 28.1455 69.924C28.1555 69.9202 28.1632 69.9174 28.1666 69.9163C28.1705 69.9149 28.1733 69.9139 28.1746 69.9135C28.1779 69.9124 28.1756 69.9132 28.1642 69.9167C28.1435 69.9231 28.1077 69.9337 28.0563 69.9484C27.9542 69.9777 27.7987 70.0207 27.5936 70.0744C27.1838 70.1817 26.58 70.3303 25.816 70.495C24.2873 70.8245 22.1226 71.2168 19.5901 71.4702L19.7626 73.1947C22.372 72.9336 24.6021 72.5295 26.1812 72.1892C26.971 72.0189 27.5994 71.8643 28.0324 71.751C28.2488 71.6944 28.4174 71.6478 28.5337 71.6145C28.5915 71.5979 28.6384 71.584 28.673 71.5734C28.6893 71.5684 28.7077 71.5626 28.7248 71.5569C28.7313 71.5547 28.7488 71.5489 28.7692 71.541C28.7751 71.5387 28.8057 71.5271 28.8426 71.5089C28.8525 71.504 28.9126 71.475 28.9801 71.4243C29.0221 71.3907 29.1304 71.2801 29.1898 71.1982C29.28 71.0106 29.2939 70.4966 29.1568 70.2165L27.7627 71.2461ZM26.3245 77.4236C26.8476 75.9738 27.4129 74.5263 27.9245 73.384C28.1809 72.8117 28.4176 72.3298 28.6234 71.9677C28.7263 71.7865 28.8154 71.6462 28.8894 71.5442C28.9695 71.4336 29.0064 71.4038 28.9977 71.4107L27.9218 70.052C27.6109 70.2982 27.3392 70.7198 27.1166 71.1114C26.8724 71.5412 26.6102 72.0786 26.3428 72.6756C25.8069 73.8721 25.2253 75.3637 24.6943 76.8354L26.3245 77.4236ZM33.6534 96.0255C28.9917 94.3571 26.7562 90.9215 25.8745 87.2755C24.9826 83.5877 25.4941 79.726 26.3245 77.4235L24.6942 76.8355C23.7617 79.4211 23.2097 83.6296 24.19 87.6829C25.1803 91.7779 27.7524 95.7542 33.0694 97.6572L33.6534 96.0255ZM52.7226 86.5162C51.4576 89.7095 49.122 92.9782 45.8987 94.9959C42.7079 96.9932 38.6018 97.7969 33.6535 96.0256L33.0694 97.6572C38.5268 99.6108 43.1861 98.7384 46.8183 96.4649C50.4179 94.2117 52.963 90.6149 54.3339 87.1545L52.7226 86.5162ZM56.5147 79.1743C56.1933 79.1862 55.7045 78.9369 55.5644 78.7494C55.517 78.6491 55.4705 78.488 55.4619 78.4317C55.4517 78.3457 55.4574 78.2773 55.458 78.2681C55.4609 78.2284 55.466 78.1977 55.4667 78.1938C55.4683 78.1835 55.4698 78.1757 55.4704 78.1725C55.4711 78.1687 55.4717 78.1659 55.4719 78.1648C55.4725 78.162 55.4719 78.1649 55.4692 78.1769C55.4641 78.1988 55.4552 78.2359 55.4422 78.2886C55.4162 78.3932 55.3758 78.5513 55.3205 78.758C55.2101 79.1712 55.0415 79.775 54.8134 80.5288C54.357 82.0368 53.6636 84.1405 52.7226 86.5162L54.3339 87.1544C55.2959 84.7257 56.0047 82.5753 56.4722 81.0308C56.7059 80.2583 56.8797 79.6363 56.9948 79.2055C57.0524 78.9903 57.0955 78.8219 57.1243 78.7056C57.1386 78.6479 57.1499 78.6009 57.1579 78.5665C57.1616 78.5503 57.1657 78.532 57.1692 78.515C57.1706 78.5086 57.1742 78.491 57.1776 78.4701C57.1785 78.4644 57.1838 78.4324 57.1867 78.3919C57.1874 78.3822 57.1931 78.3134 57.1829 78.2272C57.1743 78.1708 57.1277 78.0097 57.0803 77.9094C56.9402 77.7218 56.4513 77.4725 56.1299 77.4844L56.5147 79.1743ZM59.445 81.0635C58.831 80.1554 58.2598 79.3102 57.8222 78.7063C57.6059 78.4077 57.4055 78.1445 57.2397 77.957C57.1619 77.869 57.0597 77.7606 56.9457 77.6735C56.8928 77.6332 56.7874 77.558 56.6432 77.5085C56.5025 77.4601 56.1675 77.3878 55.8366 77.6117L56.808 79.047C56.4967 79.2576 56.1879 79.1846 56.0799 79.1475C55.9684 79.1091 55.9019 79.0571 55.8942 79.0512C55.8704 79.033 55.8827 79.0387 55.9413 79.1049C56.0482 79.2258 56.2077 79.4317 56.4187 79.723C56.8359 80.2988 57.3887 81.1164 58.0093 82.0342L59.445 81.0635ZM60.7759 83.018C60.3246 82.3645 59.873 81.6965 59.445 81.0635L58.0093 82.0342C58.4365 82.666 58.8929 83.3411 59.3498 84.0028L60.7759 83.018ZM80.1726 87.8662C76.1052 90.6897 72.0102 90.5118 68.5308 89.1101C65.0116 87.6924 62.1665 85.0318 60.7758 83.018L59.3498 84.0028C60.9115 86.2643 64.0152 89.1594 67.8832 90.7177C71.791 92.2919 76.5218 92.5102 81.1609 89.2899L80.1726 87.8662ZM83.5175 66.821C85.3809 69.7066 86.6833 73.5071 86.4517 77.3028C86.2224 81.0603 84.4898 84.8689 80.1726 87.8662L81.1609 89.2899C85.9224 85.9842 87.9205 81.6855 88.1815 77.4084C88.4402 73.1694 86.9927 69.0079 84.9734 65.8808L83.5175 66.821ZM78.7619 59.3477C78.1512 59.9625 78.1512 59.9624 78.1511 59.9623C78.1511 59.9623 78.151 59.9623 78.151 59.9623C78.151 59.9622 78.151 59.9622 78.151 59.9623C78.1511 59.9624 78.1514 59.9626 78.1518 59.963C78.1526 59.9639 78.1541 59.9653 78.1562 59.9674C78.1604 59.9716 78.1671 59.9784 78.1763 59.9877C78.1947 60.0063 78.2229 60.035 78.2603 60.0736C78.335 60.1508 78.4465 60.2673 78.5898 60.4215C78.8764 60.7297 79.2898 61.1879 79.7904 61.7805C80.792 62.9664 82.1397 64.6874 83.5175 66.821L84.9734 65.8808C83.5478 63.6732 82.1536 61.8926 81.1144 60.6622C80.5945 60.0467 80.1627 59.568 79.8591 59.2415C79.7073 59.0782 79.5875 58.9529 79.5048 58.8675C79.4634 58.8248 79.4313 58.7921 79.409 58.7696C79.3979 58.7583 79.3893 58.7496 79.3832 58.7435C79.3801 58.7404 79.3777 58.738 79.3759 58.7362C79.375 58.7354 79.3743 58.7346 79.3737 58.7341C79.3735 58.7338 79.3732 58.7336 79.373 58.7334C79.3729 58.7333 79.3728 58.7331 79.3728 58.7331C79.3727 58.733 79.3726 58.7329 78.7619 59.3477ZM81.0291 58.249C80.2692 58.3187 79.546 58.385 78.6626 58.4869L78.8612 60.2085C79.7221 60.1092 80.4269 60.0446 81.1873 59.9748L81.0291 58.249ZM85.0095 57.8285C83.2271 58.0474 82.087 58.152 81.0291 58.249L81.1873 59.9748C82.2506 59.8773 83.4117 59.7709 85.2208 59.5486L85.0095 57.8285ZM94.8833 52.9668C91.9069 55.9544 87.7036 57.4969 85.0093 57.8285L85.221 59.5486C88.2294 59.1784 92.8148 57.4987 96.1111 54.19L94.8833 52.9668ZM96.3637 53.5784L96.3637 34.317L94.6307 34.317L94.6307 53.5784L96.3637 53.5784ZM81.2008 30.1692C85.7979 29.7479 91.3354 30.9879 94.8531 34.8967L96.1413 33.7374C92.1422 29.2937 85.9855 27.9904 81.0427 28.4433L81.2008 30.1692ZM72.0255 30.3891C72.1581 31.2454 72.158 31.2454 72.158 31.2454C72.1581 31.2454 72.1581 31.2454 72.1581 31.2454C72.1582 31.2454 72.1583 31.2454 72.1585 31.2453C72.1589 31.2453 72.1595 31.2452 72.1604 31.245C72.1621 31.2448 72.1648 31.2444 72.1685 31.2438C72.1757 31.2427 72.1868 31.241 72.2015 31.2388C72.2309 31.2343 72.2751 31.2276 72.3333 31.2189C72.4498 31.2015 72.6226 31.176 72.8462 31.1439C73.2935 31.0798 73.9443 30.9891 74.7554 30.8838C76.3782 30.6731 78.6411 30.4037 81.2008 30.1692L81.0427 28.4433C78.4563 28.6803 76.1711 28.9524 74.5323 29.1652C73.7127 29.2716 73.0542 29.3633 72.6001 29.4284C72.373 29.461 72.1969 29.487 72.0773 29.5049C72.0175 29.5138 71.9718 29.5207 71.9408 29.5254C71.9254 29.5278 71.9136 29.5296 71.9056 29.5308C71.9016 29.5314 71.8985 29.5319 71.8964 29.5322C71.8954 29.5324 71.8946 29.5325 71.894 29.5326C71.8937 29.5326 71.8935 29.5327 71.8933 29.5327C71.8933 29.5327 71.8932 29.5327 71.8931 29.5327C71.8931 29.5327 71.893 29.5327 72.0255 30.3891ZM72.1856 27.8768C71.8722 28.5717 71.5738 29.2332 71.2275 30.0513L72.8235 30.7268C73.161 29.9294 73.4518 29.2847 73.7654 28.5893L72.1856 27.8768ZM73.7813 24.2039C73.0933 25.864 72.6225 26.9079 72.1856 27.8768L73.7654 28.5893C74.2046 27.6155 74.6841 26.5523 75.3823 24.8675L73.7813 24.2039ZM67.3284 5.28056C71.9072 7.16485 73.9799 10.701 74.6905 14.3842C75.4093 18.1095 74.7183 21.943 73.7813 24.2039L75.3824 24.8674C76.4345 22.3285 77.1823 18.1505 76.3922 14.0559C75.5941 9.91918 73.2103 5.82704 67.988 3.6779L67.3284 5.28056ZM47.8363 13.8901C49.2489 10.7592 51.7344 7.60297 55.0484 5.73796C58.329 3.89173 62.4682 3.28046 67.3284 5.28056L67.9879 3.6779C62.6277 1.47202 57.9327 2.12608 54.1984 4.22764C50.4975 6.31042 47.7874 9.78446 46.2566 13.1774L47.8363 13.8901ZM46.7622 16.3881C47.0835 15.6034 47.4415 14.765 47.8363 13.8902L46.2566 13.1773C45.8528 14.0723 45.4867 14.9295 45.1583 15.7315L46.7622 16.3881ZM43.6241 20.7384C44.3186 21.2566 44.3187 21.2564 44.3189 21.2562C44.3189 21.2561 44.3191 21.2559 44.3192 21.2558C44.3194 21.2555 44.3197 21.2551 44.3199 21.2548C44.3205 21.2541 44.321 21.2533 44.3216 21.2525C44.3229 21.2508 44.3244 21.2488 44.326 21.2465C44.3294 21.2419 44.3337 21.236 44.3388 21.2289C44.349 21.2147 44.3627 21.1953 44.3798 21.1706C44.4139 21.1213 44.4614 21.0507 44.5214 20.957C44.6414 20.7696 44.8115 20.49 45.0245 20.1036C45.4505 19.3308 46.0487 18.1308 46.7622 16.3881L45.1583 15.7315C44.4678 17.4183 43.8978 18.5576 43.5068 19.2668C43.3113 19.6213 43.1606 19.8682 43.062 20.0223C43.0127 20.0993 42.9764 20.153 42.954 20.1854C42.9428 20.2016 42.9351 20.2124 42.931 20.2181C42.929 20.221 42.9278 20.2225 42.9276 20.2229C42.9275 20.223 42.9276 20.2229 42.9279 20.2224C42.9281 20.2222 42.9283 20.2219 42.9286 20.2215C42.9287 20.2213 42.9289 20.2211 42.9291 20.2209C42.9292 20.2207 42.9293 20.2206 42.9293 20.2205C42.9295 20.2203 42.9296 20.2201 43.6241 20.7384ZM41.4424 19.5382C41.961 20.1418 42.4535 20.7152 42.9714 21.3083L44.2768 20.1684C43.7643 19.5814 43.2763 19.0134 42.757 18.4089L41.4424 19.5382ZM38.3292 15.9604C39.6172 17.4134 40.5687 18.5211 41.4424 19.5382L42.757 18.4089C41.8827 17.3911 40.9237 16.2746 39.6261 14.8108L38.3292 15.9604ZM18.4894 13.4878C22.1863 10.1941 26.2728 9.87659 29.8959 10.8483C33.5605 11.831 36.7057 14.129 38.3292 15.9604L39.6261 14.8108C37.8029 12.7541 34.3726 10.2545 30.3448 9.17433C26.2756 8.08303 21.5531 8.43714 17.3365 12.1938L18.4894 13.4878ZM17.7076 34.7823C15.5097 32.1427 13.7583 28.5272 13.5303 24.7313C13.3047 20.9737 14.5652 16.9839 18.4894 13.4878L17.3365 12.1938C13.0086 16.0496 11.5435 20.5579 11.8004 24.8352C12.0549 29.0743 13.9939 33.0308 16.3758 35.8913L17.7076 34.7823Z" fill="#CFEAE8"/>
<path d="M54.9 70.3332C65.6569 67.8841 72.3917 57.1786 69.9426 46.4218C67.4935 35.6649 56.788 28.9301 46.0312 31.3792C35.2743 33.8283 28.5396 44.5338 30.9886 55.2906C33.4377 66.0475 44.1432 72.7822 54.9 70.3332Z" fill="#F5B45D" stroke="#CFEAE8" stroke-width="1.73271" stroke-miterlimit="1.5" stroke-linecap="round" stroke-linejoin="round"/>
<path fill-rule="evenodd" clip-rule="evenodd" d="M58.4969 46.365C58.5196 46.3484 58.5647 46.3151 58.594 46.2851C58.6436 46.2345 58.7501 46.1509 58.7943 46.0609C58.8778 45.8911 59.0464 45.5373 59.0948 45.2662C59.2268 44.5282 59.0974 43.8373 58.9202 43.1228C58.8231 42.7314 58.7438 42.2891 58.6001 41.8895C58.4059 41.3499 58.1519 40.4869 57.7556 39.8846C57.3307 39.239 55.8634 37.6534 55.1808 38.8837C54.7287 39.6987 54.8748 40.611 55.0399 41.4832C55.1609 42.1226 55.2561 42.767 55.3706 43.4075C55.4438 43.8176 55.4937 44.2361 55.6324 44.6311C55.731 44.9116 55.8836 45.1724 56.0451 45.4208C56.2665 45.7612 56.5301 46.1394 56.8839 46.3543C57.1178 46.4963 57.3933 46.5674 57.6629 46.6008C57.9701 46.6389 58.3213 46.4563 58.4969 46.365Z" fill="#211F1F"/>
<path fill-rule="evenodd" clip-rule="evenodd" d="M40.9218 50.0531C40.8942 50.048 40.8391 50.0375 40.7997 50.0232C40.7331 49.999 40.6008 49.9697 40.5221 49.9078C40.3733 49.7909 40.0681 49.5449 39.9071 49.3215C39.4687 48.7134 39.2862 48.0345 39.1366 47.3138C39.0547 46.9189 38.9348 46.4859 38.8913 46.0635C38.8327 45.493 38.688 44.6051 38.7846 43.8906C38.8881 43.1247 39.5244 41.0601 40.6723 41.8737C41.4327 42.4126 41.6959 43.2982 41.9247 44.156C42.0924 44.7847 42.2856 45.4068 42.4596 46.0337C42.5712 46.4351 42.7073 46.834 42.7533 47.2501C42.7859 47.5456 42.7612 47.8468 42.7232 48.1406C42.671 48.5433 42.5971 48.9984 42.3712 49.3452C42.2218 49.5745 42.0043 49.7579 41.7757 49.9047C41.5152 50.072 41.1196 50.0595 40.9218 50.0531Z" fill="#211F1F"/>
<path d="M63.0282 51.6028C62.6766 52.3756 62.5361 53.2428 62.2007 54.0301C61.6468 55.3302 60.7412 56.5619 59.695 57.5078C59.241 57.9183 58.7648 58.2973 58.2326 58.6022C56.5794 59.5492 54.6633 59.9201 52.8341 60.3715C49.54 61.1846 46.3508 61.7051 43.2038 60.0815C42.1955 59.5613 41.2497 58.9255 40.3155 58.2844C39.9072 58.0041 39.318 57.644 39.0983 57.1774C39.055 57.0857 39.315 56.6797 39.351 56.5614" stroke="#211F1F" stroke-width="1.73307" stroke-miterlimit="1.5" stroke-linecap="round" stroke-linejoin="round"/>
<path d="M37.7683 57.5061C37.7703 57.5029 37.9695 57.5261 37.9838 57.5256C38.1992 57.5173 38.425 57.4593 38.617 57.3624C39.2137 57.0614 39.587 56.3832 39.6869 55.7434" stroke="#211F1F" stroke-width="1.73307" stroke-miterlimit="1.5" stroke-linecap="round" stroke-linejoin="round"/>
<path d="M62.0045 50.5686C62.0447 50.7548 62.2861 50.9559 62.4129 51.0788C62.6048 51.2649 62.826 51.4164 63.0634 51.5184C63.4771 51.6961 63.9403 51.7236 64.3843 51.5222" stroke="#211F1F" stroke-width="1.73307" stroke-miterlimit="1.5" stroke-linecap="round" stroke-linejoin="round"/>
</g>
<mask id="path-9-outside-1_314_1912" maskUnits="userSpaceOnUse" x="81.8508" y="0.321655" width="150" height="94" fill="black">
<rect fill="white" x="81.8508" y="0.321655" width="150" height="94"/>
<path d="M119.542 26.0349C118.477 35.6171 117.945 45.3767 117.945 55.3138C117.945 65.1917 117.412 72.2896 116.348 76.6075C115.342 80.9254 113.331 84.4743 110.315 87.2544C107.357 90.0344 103.808 91.4244 99.6677 91.4244C97.2425 91.4244 95.1427 90.7442 93.3683 89.3837C91.5938 88.0824 90.7065 86.2488 90.7065 83.8829C90.7065 82.4041 91.091 81.2211 91.86 80.3339C92.688 79.5058 93.5161 79.003 94.3442 78.8256L95.5864 78.6482C97.7157 78.5299 99.4902 77.9679 100.91 76.9624C102.389 75.9569 103.424 74.7147 104.015 73.236C104.962 70.87 105.435 68.5928 105.435 66.4043V65.6945C105.376 65.2804 105.169 65.0734 104.814 65.0734L103.926 65.517C103.157 66.6409 102.181 67.5281 100.999 68.1787C99.8747 68.7702 98.8987 69.1251 98.0706 69.2434L96.9172 69.3322C94.3738 69.3322 92.2149 68.6815 90.4404 67.3802C88.6659 66.0198 87.4238 64.2749 86.714 62.1455C85.4718 58.4191 84.8508 54.9589 84.8508 51.7648C84.8508 48.5708 85.1465 45.5838 85.738 42.8037C86.3295 39.9646 87.2463 37.2141 88.4885 34.5524C89.7897 31.8907 91.6234 29.7318 93.9893 28.0756C96.3553 26.4194 98.8396 25.5913 101.442 25.5913C104.045 25.5913 106.026 26.1828 107.387 27.3658C107.564 27.7207 107.83 27.8981 108.185 27.8981C108.54 27.8981 108.836 27.7207 109.072 27.3658C111.261 24.5858 113.834 23.1958 116.791 23.1958C118.625 23.1958 119.542 24.1422 119.542 26.0349ZM102.063 54.2491C103.542 54.2491 104.725 53.4802 105.612 51.9423C106.559 50.4044 107.002 48.3342 106.943 45.7316C106.943 43.1291 106.411 40.8814 105.346 38.9886C104.34 37.0958 103.128 36.1495 101.708 36.1495C100.289 36.1495 99.1057 36.948 98.1593 38.545C97.2721 40.0829 96.8285 42.1235 96.8285 44.6669C96.8285 47.1512 97.3313 49.3693 98.3368 51.3212C99.4015 53.2731 100.644 54.2491 102.063 54.2491Z"/>
<path d="M138.705 24.9703C143.851 24.9703 147.755 27.2179 150.417 31.7133C153.138 36.2086 154.498 41.7095 154.498 48.2159C154.498 56.7925 152.044 63.2989 147.134 67.7351C144.413 70.1602 141.397 71.3728 138.084 71.3728C134.772 71.3728 132.022 70.6926 129.833 69.3322C127.704 67.9717 126.077 66.1677 124.953 63.92C122.646 59.543 121.493 54.8702 121.493 49.9016C121.493 44.105 122.824 38.6633 125.486 33.5765C126.787 31.0331 128.591 28.9628 130.898 27.3658C133.205 25.7688 135.807 24.9703 138.705 24.9703ZM143.851 43.8684C143.851 42.0939 143.497 40.4969 142.787 39.0773C142.077 37.6578 140.894 36.948 139.238 36.948C137.641 36.948 136.073 38.1014 134.535 40.4082C133.057 42.6559 132.317 45.4063 132.317 48.6595C132.317 53.214 133.826 55.4912 136.842 55.4912C138.498 55.4912 140.066 54.4561 141.545 52.3859C143.082 50.3157 143.851 47.4765 143.851 43.8684Z"/>
<path d="M173.536 24.9703C178.682 24.9703 182.586 27.2179 185.248 31.7133C187.969 36.2086 189.329 41.7095 189.329 48.2159C189.329 56.7925 186.875 63.2989 181.965 67.7351C179.244 70.1602 176.228 71.3728 172.915 71.3728C169.603 71.3728 166.853 70.6926 164.664 69.3322C162.535 67.9717 160.908 66.1677 159.784 63.92C157.477 59.543 156.324 54.8702 156.324 49.9016C156.324 44.105 157.655 38.6633 160.317 33.5765C161.618 31.0331 163.422 28.9628 165.729 27.3658C168.036 25.7688 170.638 24.9703 173.536 24.9703ZM178.682 43.8684C178.682 42.0939 178.328 40.4969 177.618 39.0773C176.908 37.6578 175.725 36.948 174.069 36.948C172.472 36.948 170.904 38.1014 169.366 40.4082C167.888 42.6559 167.148 45.4063 167.148 48.6595C167.148 53.214 168.657 55.4912 171.673 55.4912C173.329 55.4912 174.897 54.4561 176.376 52.3859C177.913 50.3157 178.682 47.4765 178.682 43.8684Z"/>
<path d="M225.136 50.6114L225.225 52.7408V53.0957C225.225 56.2306 226.171 58.4487 228.064 59.75C228.951 60.4598 229.395 61.2287 229.395 62.0568C229.395 62.8849 229.188 63.5947 228.774 64.1862C227.473 66.0789 225.846 67.5873 223.894 68.7111C221.292 70.249 219.014 71.0179 217.062 71.0179C215.11 71.0179 214.046 70.0715 213.868 68.1787C213.75 66.7 213.454 65.9606 212.981 65.9606L212.36 66.3155C210.349 69.0956 207.687 70.4856 204.375 70.4856C201.95 70.4856 199.85 69.8645 198.076 68.6224C196.36 67.3802 195.059 65.6945 194.172 63.5651C192.456 59.543 191.599 55.0181 191.599 49.9904C191.599 44.6078 192.959 39.4322 195.68 34.4637C197.04 32.0977 198.874 30.1754 201.181 28.6967C203.488 27.1588 206.031 26.3898 208.811 26.3898C210.112 26.3898 211.177 26.5673 212.005 26.9222L213.247 27.4545C213.661 27.4545 213.898 26.9813 213.957 26.0349C214.075 25.0886 214.135 23.876 214.135 22.3973C214.135 20.8594 214.075 19.6173 213.957 18.6709C213.839 17.6653 213.691 16.926 213.513 16.4528C213.336 15.9796 213.129 15.5951 212.892 15.2994C212.537 14.8262 211.946 14.3234 211.118 13.7911C210.349 13.2587 209.964 12.5194 209.964 11.573C209.964 9.62104 211.621 7.75784 214.933 5.98337C218.305 4.20889 221.085 3.32166 223.273 3.32166C224.929 3.32166 225.846 4.06102 226.024 5.53975C226.142 6.13124 226.201 7.31423 226.201 9.0887C226.201 10.8632 225.994 14.4713 225.58 19.913C225.225 25.3547 225.048 30.5599 225.048 35.5284V44.4008L225.136 48.9257V50.6114ZM206.682 54.6927C208.87 54.6927 210.615 53.4506 211.916 50.9663C213.277 48.4821 213.957 46.264 213.957 44.312C213.957 39.6984 212.685 37.3916 210.142 37.3916C208.072 37.3916 206.327 38.7224 204.907 41.3842C203.547 43.9867 202.867 46.471 202.867 48.837C202.867 52.5042 204.138 54.4561 206.682 54.6927Z"/>
</mask>
<path d="M119.542 26.0349C118.477 35.6171 117.945 45.3767 117.945 55.3138C117.945 65.1917 117.412 72.2896 116.348 76.6075C115.342 80.9254 113.331 84.4743 110.315 87.2544C107.357 90.0344 103.808 91.4244 99.6677 91.4244C97.2425 91.4244 95.1427 90.7442 93.3683 89.3837C91.5938 88.0824 90.7065 86.2488 90.7065 83.8829C90.7065 82.4041 91.091 81.2211 91.86 80.3339C92.688 79.5058 93.5161 79.003 94.3442 78.8256L95.5864 78.6482C97.7157 78.5299 99.4902 77.9679 100.91 76.9624C102.389 75.9569 103.424 74.7147 104.015 73.236C104.962 70.87 105.435 68.5928 105.435 66.4043V65.6945C105.376 65.2804 105.169 65.0734 104.814 65.0734L103.926 65.517C103.157 66.6409 102.181 67.5281 100.999 68.1787C99.8747 68.7702 98.8987 69.1251 98.0706 69.2434L96.9172 69.3322C94.3738 69.3322 92.2149 68.6815 90.4404 67.3802C88.6659 66.0198 87.4238 64.2749 86.714 62.1455C85.4718 58.4191 84.8508 54.9589 84.8508 51.7648C84.8508 48.5708 85.1465 45.5838 85.738 42.8037C86.3295 39.9646 87.2463 37.2141 88.4885 34.5524C89.7897 31.8907 91.6234 29.7318 93.9893 28.0756C96.3553 26.4194 98.8396 25.5913 101.442 25.5913C104.045 25.5913 106.026 26.1828 107.387 27.3658C107.564 27.7207 107.83 27.8981 108.185 27.8981C108.54 27.8981 108.836 27.7207 109.072 27.3658C111.261 24.5858 113.834 23.1958 116.791 23.1958C118.625 23.1958 119.542 24.1422 119.542 26.0349ZM102.063 54.2491C103.542 54.2491 104.725 53.4802 105.612 51.9423C106.559 50.4044 107.002 48.3342 106.943 45.7316C106.943 43.1291 106.411 40.8814 105.346 38.9886C104.34 37.0958 103.128 36.1495 101.708 36.1495C100.289 36.1495 99.1057 36.948 98.1593 38.545C97.2721 40.0829 96.8285 42.1235 96.8285 44.6669C96.8285 47.1512 97.3313 49.3693 98.3368 51.3212C99.4015 53.2731 100.644 54.2491 102.063 54.2491Z" fill="#433E3E"/>
<path d="M138.705 24.9703C143.851 24.9703 147.755 27.2179 150.417 31.7133C153.138 36.2086 154.498 41.7095 154.498 48.2159C154.498 56.7925 152.044 63.2989 147.134 67.7351C144.413 70.1602 141.397 71.3728 138.084 71.3728C134.772 71.3728 132.022 70.6926 129.833 69.3322C127.704 67.9717 126.077 66.1677 124.953 63.92C122.646 59.543 121.493 54.8702 121.493 49.9016C121.493 44.105 122.824 38.6633 125.486 33.5765C126.787 31.0331 128.591 28.9628 130.898 27.3658C133.205 25.7688 135.807 24.9703 138.705 24.9703ZM143.851 43.8684C143.851 42.0939 143.497 40.4969 142.787 39.0773C142.077 37.6578 140.894 36.948 139.238 36.948C137.641 36.948 136.073 38.1014 134.535 40.4082C133.057 42.6559 132.317 45.4063 132.317 48.6595C132.317 53.214 133.826 55.4912 136.842 55.4912C138.498 55.4912 140.066 54.4561 141.545 52.3859C143.082 50.3157 143.851 47.4765 143.851 43.8684Z" fill="#433E3E"/>
<path d="M173.536 24.9703C178.682 24.9703 182.586 27.2179 185.248 31.7133C187.969 36.2086 189.329 41.7095 189.329 48.2159C189.329 56.7925 186.875 63.2989 181.965 67.7351C179.244 70.1602 176.228 71.3728 172.915 71.3728C169.603 71.3728 166.853 70.6926 164.664 69.3322C162.535 67.9717 160.908 66.1677 159.784 63.92C157.477 59.543 156.324 54.8702 156.324 49.9016C156.324 44.105 157.655 38.6633 160.317 33.5765C161.618 31.0331 163.422 28.9628 165.729 27.3658C168.036 25.7688 170.638 24.9703 173.536 24.9703ZM178.682 43.8684C178.682 42.0939 178.328 40.4969 177.618 39.0773C176.908 37.6578 175.725 36.948 174.069 36.948C172.472 36.948 170.904 38.1014 169.366 40.4082C167.888 42.6559 167.148 45.4063 167.148 48.6595C167.148 53.214 168.657 55.4912 171.673 55.4912C173.329 55.4912 174.897 54.4561 176.376 52.3859C177.913 50.3157 178.682 47.4765 178.682 43.8684Z" fill="#433E3E"/>
<path d="M225.136 50.6114L225.225 52.7408V53.0957C225.225 56.2306 226.171 58.4487 228.064 59.75C228.951 60.4598 229.395 61.2287 229.395 62.0568C229.395 62.8849 229.188 63.5947 228.774 64.1862C227.473 66.0789 225.846 67.5873 223.894 68.7111C221.292 70.249 219.014 71.0179 217.062 71.0179C215.11 71.0179 214.046 70.0715 213.868 68.1787C213.75 66.7 213.454 65.9606 212.981 65.9606L212.36 66.3155C210.349 69.0956 207.687 70.4856 204.375 70.4856C201.95 70.4856 199.85 69.8645 198.076 68.6224C196.36 67.3802 195.059 65.6945 194.172 63.5651C192.456 59.543 191.599 55.0181 191.599 49.9904C191.599 44.6078 192.959 39.4322 195.68 34.4637C197.04 32.0977 198.874 30.1754 201.181 28.6967C203.488 27.1588 206.031 26.3898 208.811 26.3898C210.112 26.3898 211.177 26.5673 212.005 26.9222L213.247 27.4545C213.661 27.4545 213.898 26.9813 213.957 26.0349C214.075 25.0886 214.135 23.876 214.135 22.3973C214.135 20.8594 214.075 19.6173 213.957 18.6709C213.839 17.6653 213.691 16.926 213.513 16.4528C213.336 15.9796 213.129 15.5951 212.892 15.2994C212.537 14.8262 211.946 14.3234 211.118 13.7911C210.349 13.2587 209.964 12.5194 209.964 11.573C209.964 9.62104 211.621 7.75784 214.933 5.98337C218.305 4.20889 221.085 3.32166 223.273 3.32166C224.929 3.32166 225.846 4.06102 226.024 5.53975C226.142 6.13124 226.201 7.31423 226.201 9.0887C226.201 10.8632 225.994 14.4713 225.58 19.913C225.225 25.3547 225.048 30.5599 225.048 35.5284V44.4008L225.136 48.9257V50.6114ZM206.682 54.6927C208.87 54.6927 210.615 53.4506 211.916 50.9663C213.277 48.4821 213.957 46.264 213.957 44.312C213.957 39.6984 212.685 37.3916 210.142 37.3916C208.072 37.3916 206.327 38.7224 204.907 41.3842C203.547 43.9867 202.867 46.471 202.867 48.837C202.867 52.5042 204.138 54.4561 206.682 54.6927Z" fill="#433E3E"/>
<path d="M119.542 26.0349C118.477 35.6171 117.945 45.3767 117.945 55.3138C117.945 65.1917 117.412 72.2896 116.348 76.6075C115.342 80.9254 113.331 84.4743 110.315 87.2544C107.357 90.0344 103.808 91.4244 99.6677 91.4244C97.2425 91.4244 95.1427 90.7442 93.3683 89.3837C91.5938 88.0824 90.7065 86.2488 90.7065 83.8829C90.7065 82.4041 91.091 81.2211 91.86 80.3339C92.688 79.5058 93.5161 79.003 94.3442 78.8256L95.5864 78.6482C97.7157 78.5299 99.4902 77.9679 100.91 76.9624C102.389 75.9569 103.424 74.7147 104.015 73.236C104.962 70.87 105.435 68.5928 105.435 66.4043V65.6945C105.376 65.2804 105.169 65.0734 104.814 65.0734L103.926 65.517C103.157 66.6409 102.181 67.5281 100.999 68.1787C99.8747 68.7702 98.8987 69.1251 98.0706 69.2434L96.9172 69.3322C94.3738 69.3322 92.2149 68.6815 90.4404 67.3802C88.6659 66.0198 87.4238 64.2749 86.714 62.1455C85.4718 58.4191 84.8508 54.9589 84.8508 51.7648C84.8508 48.5708 85.1465 45.5838 85.738 42.8037C86.3295 39.9646 87.2463 37.2141 88.4885 34.5524C89.7897 31.8907 91.6234 29.7318 93.9893 28.0756C96.3553 26.4194 98.8396 25.5913 101.442 25.5913C104.045 25.5913 106.026 26.1828 107.387 27.3658C107.564 27.7207 107.83 27.8981 108.185 27.8981C108.54 27.8981 108.836 27.7207 109.072 27.3658C111.261 24.5858 113.834 23.1958 116.791 23.1958C118.625 23.1958 119.542 24.1422 119.542 26.0349ZM102.063 54.2491C103.542 54.2491 104.725 53.4802 105.612 51.9423C106.559 50.4044 107.002 48.3342 106.943 45.7316C106.943 43.1291 106.411 40.8814 105.346 38.9886C104.34 37.0958 103.128 36.1495 101.708 36.1495C100.289 36.1495 99.1057 36.948 98.1593 38.545C97.2721 40.0829 96.8285 42.1235 96.8285 44.6669C96.8285 47.1512 97.3313 49.3693 98.3368 51.3212C99.4015 53.2731 100.644 54.2491 102.063 54.2491Z" stroke="#F7F7F7" stroke-width="4.2159" mask="url(#path-9-outside-1_314_1912)"/>
<path d="M138.705 24.9703C143.851 24.9703 147.755 27.2179 150.417 31.7133C153.138 36.2086 154.498 41.7095 154.498 48.2159C154.498 56.7925 152.044 63.2989 147.134 67.7351C144.413 70.1602 141.397 71.3728 138.084 71.3728C134.772 71.3728 132.022 70.6926 129.833 69.3322C127.704 67.9717 126.077 66.1677 124.953 63.92C122.646 59.543 121.493 54.8702 121.493 49.9016C121.493 44.105 122.824 38.6633 125.486 33.5765C126.787 31.0331 128.591 28.9628 130.898 27.3658C133.205 25.7688 135.807 24.9703 138.705 24.9703ZM143.851 43.8684C143.851 42.0939 143.497 40.4969 142.787 39.0773C142.077 37.6578 140.894 36.948 139.238 36.948C137.641 36.948 136.073 38.1014 134.535 40.4082C133.057 42.6559 132.317 45.4063 132.317 48.6595C132.317 53.214 133.826 55.4912 136.842 55.4912C138.498 55.4912 140.066 54.4561 141.545 52.3859C143.082 50.3157 143.851 47.4765 143.851 43.8684Z" stroke="#F7F7F7" stroke-width="4.2159" mask="url(#path-9-outside-1_314_1912)"/>
<path d="M173.536 24.9703C178.682 24.9703 182.586 27.2179 185.248 31.7133C187.969 36.2086 189.329 41.7095 189.329 48.2159C189.329 56.7925 186.875 63.2989 181.965 67.7351C179.244 70.1602 176.228 71.3728 172.915 71.3728C169.603 71.3728 166.853 70.6926 164.664 69.3322C162.535 67.9717 160.908 66.1677 159.784 63.92C157.477 59.543 156.324 54.8702 156.324 49.9016C156.324 44.105 157.655 38.6633 160.317 33.5765C161.618 31.0331 163.422 28.9628 165.729 27.3658C168.036 25.7688 170.638 24.9703 173.536 24.9703ZM178.682 43.8684C178.682 42.0939 178.328 40.4969 177.618 39.0773C176.908 37.6578 175.725 36.948 174.069 36.948C172.472 36.948 170.904 38.1014 169.366 40.4082C167.888 42.6559 167.148 45.4063 167.148 48.6595C167.148 53.214 168.657 55.4912 171.673 55.4912C173.329 55.4912 174.897 54.4561 176.376 52.3859C177.913 50.3157 178.682 47.4765 178.682 43.8684Z" stroke="#F7F7F7" stroke-width="4.2159" mask="url(#path-9-outside-1_314_1912)"/>
<path d="M225.136 50.6114L225.225 52.7408V53.0957C225.225 56.2306 226.171 58.4487 228.064 59.75C228.951 60.4598 229.395 61.2287 229.395 62.0568C229.395 62.8849 229.188 63.5947 228.774 64.1862C227.473 66.0789 225.846 67.5873 223.894 68.7111C221.292 70.249 219.014 71.0179 217.062 71.0179C215.11 71.0179 214.046 70.0715 213.868 68.1787C213.75 66.7 213.454 65.9606 212.981 65.9606L212.36 66.3155C210.349 69.0956 207.687 70.4856 204.375 70.4856C201.95 70.4856 199.85 69.8645 198.076 68.6224C196.36 67.3802 195.059 65.6945 194.172 63.5651C192.456 59.543 191.599 55.0181 191.599 49.9904C191.599 44.6078 192.959 39.4322 195.68 34.4637C197.04 32.0977 198.874 30.1754 201.181 28.6967C203.488 27.1588 206.031 26.3898 208.811 26.3898C210.112 26.3898 211.177 26.5673 212.005 26.9222L213.247 27.4545C213.661 27.4545 213.898 26.9813 213.957 26.0349C214.075 25.0886 214.135 23.876 214.135 22.3973C214.135 20.8594 214.075 19.6173 213.957 18.6709C213.839 17.6653 213.691 16.926 213.513 16.4528C213.336 15.9796 213.129 15.5951 212.892 15.2994C212.537 14.8262 211.946 14.3234 211.118 13.7911C210.349 13.2587 209.964 12.5194 209.964 11.573C209.964 9.62104 211.621 7.75784 214.933 5.98337C218.305 4.20889 221.085 3.32166 223.273 3.32166C224.929 3.32166 225.846 4.06102 226.024 5.53975C226.142 6.13124 226.201 7.31423 226.201 9.0887C226.201 10.8632 225.994 14.4713 225.58 19.913C225.225 25.3547 225.048 30.5599 225.048 35.5284V44.4008L225.136 48.9257V50.6114ZM206.682 54.6927C208.87 54.6927 210.615 53.4506 211.916 50.9663C213.277 48.4821 213.957 46.264 213.957 44.312C213.957 39.6984 212.685 37.3916 210.142 37.3916C208.072 37.3916 206.327 38.7224 204.907 41.3842C203.547 43.9867 202.867 46.471 202.867 48.837C202.867 52.5042 204.138 54.4561 206.682 54.6927Z" stroke="#F7F7F7" stroke-width="4.2159" mask="url(#path-9-outside-1_314_1912)"/>
<mask id="path-10-outside-2_314_1912" maskUnits="userSpaceOnUse" x="226.395" y="0.321655" width="143" height="73" fill="black">
<rect fill="white" x="226.395" y="0.321655" width="143" height="73"/>
<path d="M247.045 9.0485L246.857 13.5549C246.857 15.1822 247.201 16.0897 247.89 16.2775C248.641 16.4652 249.361 16.5591 250.049 16.5591C250.738 16.5591 251.77 16.4965 253.147 16.3713C254.462 16.3713 255.119 17.2163 255.119 18.9062C255.119 22.0982 252.834 24.5704 248.265 26.3229C247.64 26.5733 247.201 27.1366 246.951 28.0128C246.576 31.8307 246.388 36.3058 246.388 41.438C246.388 46.5703 246.576 49.95 246.951 51.5773C247.264 53.0795 248.391 53.987 250.331 54.2999C250.769 54.2999 251.176 54.519 251.551 54.9571C252.24 55.7708 252.584 56.5844 252.584 57.3981C252.584 58.1491 252.521 58.9002 252.396 59.6513C252.271 60.3397 251.958 61.3411 251.457 62.6555C251.019 63.9073 250.425 65.0965 249.674 66.223C248.985 67.287 247.921 68.2259 246.482 69.0395C245.042 69.8532 243.415 70.26 241.6 70.26C238.47 70.26 236.217 68.4136 234.84 64.7209C234.34 63.2814 234.089 61.5602 234.089 59.5574L234.84 34.3029C234.84 31.2361 234.652 28.7326 234.277 26.7923C233.964 24.8521 232.775 23.037 230.709 21.3471C229.833 20.7212 229.395 19.845 229.395 18.7184C229.395 17.5918 229.958 16.4652 231.085 15.3386C234.527 13.2106 237.688 9.86215 240.567 5.29319C241.443 4.10401 242.539 3.50942 243.853 3.50942C245.981 3.50942 247.045 5.35578 247.045 9.0485Z"/>
<path d="M258.427 37.7766C258.427 36.7752 258.176 35.8364 257.676 34.9601C257.238 34.0839 256.643 33.3015 255.892 32.613C255.141 31.9246 254.765 31.1735 254.765 30.3599C254.765 28.2319 256.393 26.3542 259.647 24.7269C262.902 23.037 265.624 22.1921 267.815 22.1921C270.068 22.1921 271.226 23.3187 271.289 25.5718C271.289 27.1366 271.132 29.953 270.819 34.0213C270.569 38.0269 270.444 41.751 270.444 45.1933C270.444 53.5176 271.195 58.7437 272.697 60.8717C273.573 61.3724 274.011 62.1548 274.011 63.2188C274.011 65.2842 272.853 66.9115 270.538 68.1007C268.284 69.2899 265.718 69.8845 262.839 69.8845C259.021 69.8845 257.112 68.6014 257.112 66.0353C257.112 65.9101 257.206 65.1903 257.394 63.876C258.27 58.8689 258.708 53.2672 258.708 47.071L258.427 37.7766ZM272.228 7.9219C272.228 10.2377 271.101 12.1153 268.848 13.5549C266.657 14.9318 264.529 15.6203 262.464 15.6203C260.398 15.6203 258.771 15.2448 257.582 14.4937C256.455 13.68 255.892 12.616 255.892 11.3017C255.892 8.92332 257.019 7.01437 259.272 5.57484C261.525 4.07272 263.653 3.32166 265.656 3.32166C267.721 3.32166 269.317 3.72848 270.444 4.54213C271.633 5.35578 272.228 6.48237 272.228 7.9219Z"/>
<path d="M290.142 44.5361L289.955 51.5773C289.955 55.9585 290.048 59.0254 290.236 60.7778C290.424 62.4677 290.518 63.5317 290.518 63.9699C290.518 66.0353 289.798 67.5687 288.358 68.5701C285.98 70.1974 283.007 71.0111 279.44 71.0111C276.874 71.0111 275.59 69.9158 275.59 67.7252L275.778 66.223C277.406 58.5873 278.219 49.0112 278.219 37.4949C278.219 36.4935 278 35.586 277.562 34.7723C277.124 33.9587 276.435 33.2076 275.497 32.5192C274.808 31.8933 274.464 31.2048 274.464 30.4537C274.464 28.4509 276.122 26.5107 279.44 24.633C282.757 22.7554 285.354 21.8165 287.232 21.8165C289.172 21.8165 290.205 22.8492 290.33 24.9147C290.455 25.7909 290.549 26.6984 290.612 27.6373C290.737 28.0754 290.956 28.2944 291.269 28.2944C291.331 28.2944 291.519 28.2006 291.832 28.0128C292.646 26.761 294.023 25.6031 295.963 24.5391C297.966 23.4751 299.906 22.9431 301.784 22.9431C305.977 22.9431 308.7 25.0085 309.952 29.1394C310.077 29.3272 310.233 29.421 310.421 29.421C310.609 29.421 310.828 29.2646 311.078 28.9516C313.456 24.946 317.055 22.9431 321.875 22.9431C325.818 22.9431 328.29 24.9773 329.291 29.0455C330.042 32.0498 330.418 35.6173 330.418 39.7481L329.949 51.6712C329.949 56.4905 331.013 59.4635 333.141 60.5901C334.205 61.1534 334.737 61.967 334.737 63.031C334.737 64.8461 333.453 66.5047 330.887 68.0068C328.384 69.4463 325.724 70.1661 322.907 70.1661C320.091 70.1661 318.464 69.1021 318.025 66.9741C317.9 66.4108 317.838 64.9713 317.838 62.6555L318.401 47.7282C318.464 47.1023 318.495 46.2573 318.495 45.1933C318.495 39.6855 317.337 36.9316 315.021 36.9316C313.519 36.9316 312.361 37.8392 311.548 39.6542C310.796 41.4067 310.39 43.0653 310.327 44.63C310.264 46.1947 310.233 48.1976 310.233 50.6385C310.233 53.0795 310.264 55.2075 310.327 57.0225C310.452 58.8376 310.577 60.3084 310.703 61.435C310.828 62.499 310.89 63.1562 310.89 63.4066C310.89 65.2842 310.077 66.8489 308.449 68.1007C306.885 69.3525 304.538 69.9783 301.408 69.9783C298.341 69.9783 296.808 68.9769 296.808 66.9741L297.183 64.8148C298.06 60.7466 298.498 54.1122 298.498 44.9117C298.498 39.4039 297.309 36.65 294.93 36.65C293.366 36.65 292.176 37.5262 291.363 39.2787C290.549 41.0312 290.142 42.7837 290.142 44.5361Z"/>
<path d="M347.122 40.3114C347.122 40.687 347.248 40.9999 347.498 41.2503C347.748 41.5632 348.061 41.7197 348.437 41.7197C352.004 41.4067 354.383 39.7168 355.572 36.65C355.885 35.9615 356.104 35.1479 356.229 34.2091C356.166 32.0185 355.29 30.9232 353.6 30.9232C351.66 30.9232 350.158 31.862 349.094 33.7396C348.093 35.6173 347.435 37.8079 347.122 40.3114ZM353.506 22.286C357.7 22.286 360.954 23.35 363.27 25.478C365.649 27.606 366.838 30.8293 366.838 35.1479C366.838 39.4665 365.117 43.034 361.674 45.8505C358.294 48.667 354.007 50.0752 348.812 50.0752C348.061 50.0752 347.686 50.4508 347.686 51.2018C347.686 52.7039 348.218 54.0183 349.282 55.1449C350.408 56.2089 351.91 56.7409 353.788 56.7409C355.728 56.7409 357.45 55.8647 358.952 54.1122C360.516 52.3597 361.862 51.4835 362.989 51.4835C364.178 51.4835 365.117 51.9842 365.805 52.9856C366.494 53.987 366.838 55.4265 366.838 57.3042C366.838 59.1193 366.368 60.9656 365.43 62.8433C364.553 64.6583 363.489 66.0353 362.238 66.9741C360.986 67.9129 359.578 68.664 358.013 69.2273C355.697 70.1035 353.225 70.5416 350.596 70.5416C348.03 70.5416 345.62 69.9158 343.367 68.664C341.114 67.4122 339.361 65.7223 338.11 63.5943C335.669 59.3383 334.448 54.6442 334.448 49.5119C334.448 44.3171 335.074 39.8107 336.326 35.9928C337.578 32.1749 339.706 28.9516 342.71 26.3229C345.777 23.6316 349.376 22.286 353.506 22.286Z"/>
</mask>
<path d="M247.045 9.0485L246.857 13.5549C246.857 15.1822 247.201 16.0897 247.89 16.2775C248.641 16.4652 249.361 16.5591 250.049 16.5591C250.738 16.5591 251.77 16.4965 253.147 16.3713C254.462 16.3713 255.119 17.2163 255.119 18.9062C255.119 22.0982 252.834 24.5704 248.265 26.3229C247.64 26.5733 247.201 27.1366 246.951 28.0128C246.576 31.8307 246.388 36.3058 246.388 41.438C246.388 46.5703 246.576 49.95 246.951 51.5773C247.264 53.0795 248.391 53.987 250.331 54.2999C250.769 54.2999 251.176 54.519 251.551 54.9571C252.24 55.7708 252.584 56.5844 252.584 57.3981C252.584 58.1491 252.521 58.9002 252.396 59.6513C252.271 60.3397 251.958 61.3411 251.457 62.6555C251.019 63.9073 250.425 65.0965 249.674 66.223C248.985 67.287 247.921 68.2259 246.482 69.0395C245.042 69.8532 243.415 70.26 241.6 70.26C238.47 70.26 236.217 68.4136 234.84 64.7209C234.34 63.2814 234.089 61.5602 234.089 59.5574L234.84 34.3029C234.84 31.2361 234.652 28.7326 234.277 26.7923C233.964 24.8521 232.775 23.037 230.709 21.3471C229.833 20.7212 229.395 19.845 229.395 18.7184C229.395 17.5918 229.958 16.4652 231.085 15.3386C234.527 13.2106 237.688 9.86215 240.567 5.29319C241.443 4.10401 242.539 3.50942 243.853 3.50942C245.981 3.50942 247.045 5.35578 247.045 9.0485Z" fill="#433E3E"/>
<path d="M258.427 37.7766C258.427 36.7752 258.176 35.8364 257.676 34.9601C257.238 34.0839 256.643 33.3015 255.892 32.613C255.141 31.9246 254.765 31.1735 254.765 30.3599C254.765 28.2319 256.393 26.3542 259.647 24.7269C262.902 23.037 265.624 22.1921 267.815 22.1921C270.068 22.1921 271.226 23.3187 271.289 25.5718C271.289 27.1366 271.132 29.953 270.819 34.0213C270.569 38.0269 270.444 41.751 270.444 45.1933C270.444 53.5176 271.195 58.7437 272.697 60.8717C273.573 61.3724 274.011 62.1548 274.011 63.2188C274.011 65.2842 272.853 66.9115 270.538 68.1007C268.284 69.2899 265.718 69.8845 262.839 69.8845C259.021 69.8845 257.112 68.6014 257.112 66.0353C257.112 65.9101 257.206 65.1903 257.394 63.876C258.27 58.8689 258.708 53.2672 258.708 47.071L258.427 37.7766ZM272.228 7.9219C272.228 10.2377 271.101 12.1153 268.848 13.5549C266.657 14.9318 264.529 15.6203 262.464 15.6203C260.398 15.6203 258.771 15.2448 257.582 14.4937C256.455 13.68 255.892 12.616 255.892 11.3017C255.892 8.92332 257.019 7.01437 259.272 5.57484C261.525 4.07272 263.653 3.32166 265.656 3.32166C267.721 3.32166 269.317 3.72848 270.444 4.54213C271.633 5.35578 272.228 6.48237 272.228 7.9219Z" fill="#433E3E"/>
<path d="M290.142 44.5361L289.955 51.5773C289.955 55.9585 290.048 59.0254 290.236 60.7778C290.424 62.4677 290.518 63.5317 290.518 63.9699C290.518 66.0353 289.798 67.5687 288.358 68.5701C285.98 70.1974 283.007 71.0111 279.44 71.0111C276.874 71.0111 275.59 69.9158 275.59 67.7252L275.778 66.223C277.406 58.5873 278.219 49.0112 278.219 37.4949C278.219 36.4935 278 35.586 277.562 34.7723C277.124 33.9587 276.435 33.2076 275.497 32.5192C274.808 31.8933 274.464 31.2048 274.464 30.4537C274.464 28.4509 276.122 26.5107 279.44 24.633C282.757 22.7554 285.354 21.8165 287.232 21.8165C289.172 21.8165 290.205 22.8492 290.33 24.9147C290.455 25.7909 290.549 26.6984 290.612 27.6373C290.737 28.0754 290.956 28.2944 291.269 28.2944C291.331 28.2944 291.519 28.2006 291.832 28.0128C292.646 26.761 294.023 25.6031 295.963 24.5391C297.966 23.4751 299.906 22.9431 301.784 22.9431C305.977 22.9431 308.7 25.0085 309.952 29.1394C310.077 29.3272 310.233 29.421 310.421 29.421C310.609 29.421 310.828 29.2646 311.078 28.9516C313.456 24.946 317.055 22.9431 321.875 22.9431C325.818 22.9431 328.29 24.9773 329.291 29.0455C330.042 32.0498 330.418 35.6173 330.418 39.7481L329.949 51.6712C329.949 56.4905 331.013 59.4635 333.141 60.5901C334.205 61.1534 334.737 61.967 334.737 63.031C334.737 64.8461 333.453 66.5047 330.887 68.0068C328.384 69.4463 325.724 70.1661 322.907 70.1661C320.091 70.1661 318.464 69.1021 318.025 66.9741C317.9 66.4108 317.838 64.9713 317.838 62.6555L318.401 47.7282C318.464 47.1023 318.495 46.2573 318.495 45.1933C318.495 39.6855 317.337 36.9316 315.021 36.9316C313.519 36.9316 312.361 37.8392 311.548 39.6542C310.796 41.4067 310.39 43.0653 310.327 44.63C310.264 46.1947 310.233 48.1976 310.233 50.6385C310.233 53.0795 310.264 55.2075 310.327 57.0225C310.452 58.8376 310.577 60.3084 310.703 61.435C310.828 62.499 310.89 63.1562 310.89 63.4066C310.89 65.2842 310.077 66.8489 308.449 68.1007C306.885 69.3525 304.538 69.9783 301.408 69.9783C298.341 69.9783 296.808 68.9769 296.808 66.9741L297.183 64.8148C298.06 60.7466 298.498 54.1122 298.498 44.9117C298.498 39.4039 297.309 36.65 294.93 36.65C293.366 36.65 292.176 37.5262 291.363 39.2787C290.549 41.0312 290.142 42.7837 290.142 44.5361Z" fill="#433E3E"/>
<path d="M347.122 40.3114C347.122 40.687 347.248 40.9999 347.498 41.2503C347.748 41.5632 348.061 41.7197 348.437 41.7197C352.004 41.4067 354.383 39.7168 355.572 36.65C355.885 35.9615 356.104 35.1479 356.229 34.2091C356.166 32.0185 355.29 30.9232 353.6 30.9232C351.66 30.9232 350.158 31.862 349.094 33.7396C348.093 35.6173 347.435 37.8079 347.122 40.3114ZM353.506 22.286C357.7 22.286 360.954 23.35 363.27 25.478C365.649 27.606 366.838 30.8293 366.838 35.1479C366.838 39.4665 365.117 43.034 361.674 45.8505C358.294 48.667 354.007 50.0752 348.812 50.0752C348.061 50.0752 347.686 50.4508 347.686 51.2018C347.686 52.7039 348.218 54.0183 349.282 55.1449C350.408 56.2089 351.91 56.7409 353.788 56.7409C355.728 56.7409 357.45 55.8647 358.952 54.1122C360.516 52.3597 361.862 51.4835 362.989 51.4835C364.178 51.4835 365.117 51.9842 365.805 52.9856C366.494 53.987 366.838 55.4265 366.838 57.3042C366.838 59.1193 366.368 60.9656 365.43 62.8433C364.553 64.6583 363.489 66.0353 362.238 66.9741C360.986 67.9129 359.578 68.664 358.013 69.2273C355.697 70.1035 353.225 70.5416 350.596 70.5416C348.03 70.5416 345.62 69.9158 343.367 68.664C341.114 67.4122 339.361 65.7223 338.11 63.5943C335.669 59.3383 334.448 54.6442 334.448 49.5119C334.448 44.3171 335.074 39.8107 336.326 35.9928C337.578 32.1749 339.706 28.9516 342.71 26.3229C345.777 23.6316 349.376 22.286 353.506 22.286Z" fill="#433E3E"/>
<path d="M247.045 9.0485L246.857 13.5549C246.857 15.1822 247.201 16.0897 247.89 16.2775C248.641 16.4652 249.361 16.5591 250.049 16.5591C250.738 16.5591 251.77 16.4965 253.147 16.3713C254.462 16.3713 255.119 17.2163 255.119 18.9062C255.119 22.0982 252.834 24.5704 248.265 26.3229C247.64 26.5733 247.201 27.1366 246.951 28.0128C246.576 31.8307 246.388 36.3058 246.388 41.438C246.388 46.5703 246.576 49.95 246.951 51.5773C247.264 53.0795 248.391 53.987 250.331 54.2999C250.769 54.2999 251.176 54.519 251.551 54.9571C252.24 55.7708 252.584 56.5844 252.584 57.3981C252.584 58.1491 252.521 58.9002 252.396 59.6513C252.271 60.3397 251.958 61.3411 251.457 62.6555C251.019 63.9073 250.425 65.0965 249.674 66.223C248.985 67.287 247.921 68.2259 246.482 69.0395C245.042 69.8532 243.415 70.26 241.6 70.26C238.47 70.26 236.217 68.4136 234.84 64.7209C234.34 63.2814 234.089 61.5602 234.089 59.5574L234.84 34.3029C234.84 31.2361 234.652 28.7326 234.277 26.7923C233.964 24.8521 232.775 23.037 230.709 21.3471C229.833 20.7212 229.395 19.845 229.395 18.7184C229.395 17.5918 229.958 16.4652 231.085 15.3386C234.527 13.2106 237.688 9.86215 240.567 5.29319C241.443 4.10401 242.539 3.50942 243.853 3.50942C245.981 3.50942 247.045 5.35578 247.045 9.0485Z" stroke="#F7F7F7" stroke-width="4.46104" mask="url(#path-10-outside-2_314_1912)"/>
<path d="M258.427 37.7766C258.427 36.7752 258.176 35.8364 257.676 34.9601C257.238 34.0839 256.643 33.3015 255.892 32.613C255.141 31.9246 254.765 31.1735 254.765 30.3599C254.765 28.2319 256.393 26.3542 259.647 24.7269C262.902 23.037 265.624 22.1921 267.815 22.1921C270.068 22.1921 271.226 23.3187 271.289 25.5718C271.289 27.1366 271.132 29.953 270.819 34.0213C270.569 38.0269 270.444 41.751 270.444 45.1933C270.444 53.5176 271.195 58.7437 272.697 60.8717C273.573 61.3724 274.011 62.1548 274.011 63.2188C274.011 65.2842 272.853 66.9115 270.538 68.1007C268.284 69.2899 265.718 69.8845 262.839 69.8845C259.021 69.8845 257.112 68.6014 257.112 66.0353C257.112 65.9101 257.206 65.1903 257.394 63.876C258.27 58.8689 258.708 53.2672 258.708 47.071L258.427 37.7766ZM272.228 7.9219C272.228 10.2377 271.101 12.1153 268.848 13.5549C266.657 14.9318 264.529 15.6203 262.464 15.6203C260.398 15.6203 258.771 15.2448 257.582 14.4937C256.455 13.68 255.892 12.616 255.892 11.3017C255.892 8.92332 257.019 7.01437 259.272 5.57484C261.525 4.07272 263.653 3.32166 265.656 3.32166C267.721 3.32166 269.317 3.72848 270.444 4.54213C271.633 5.35578 272.228 6.48237 272.228 7.9219Z" stroke="#F7F7F7" stroke-width="4.46104" mask="url(#path-10-outside-2_314_1912)"/>
<path d="M290.142 44.5361L289.955 51.5773C289.955 55.9585 290.048 59.0254 290.236 60.7778C290.424 62.4677 290.518 63.5317 290.518 63.9699C290.518 66.0353 289.798 67.5687 288.358 68.5701C285.98 70.1974 283.007 71.0111 279.44 71.0111C276.874 71.0111 275.59 69.9158 275.59 67.7252L275.778 66.223C277.406 58.5873 278.219 49.0112 278.219 37.4949C278.219 36.4935 278 35.586 277.562 34.7723C277.124 33.9587 276.435 33.2076 275.497 32.5192C274.808 31.8933 274.464 31.2048 274.464 30.4537C274.464 28.4509 276.122 26.5107 279.44 24.633C282.757 22.7554 285.354 21.8165 287.232 21.8165C289.172 21.8165 290.205 22.8492 290.33 24.9147C290.455 25.7909 290.549 26.6984 290.612 27.6373C290.737 28.0754 290.956 28.2944 291.269 28.2944C291.331 28.2944 291.519 28.2006 291.832 28.0128C292.646 26.761 294.023 25.6031 295.963 24.5391C297.966 23.4751 299.906 22.9431 301.784 22.9431C305.977 22.9431 308.7 25.0085 309.952 29.1394C310.077 29.3272 310.233 29.421 310.421 29.421C310.609 29.421 310.828 29.2646 311.078 28.9516C313.456 24.946 317.055 22.9431 321.875 22.9431C325.818 22.9431 328.29 24.9773 329.291 29.0455C330.042 32.0498 330.418 35.6173 330.418 39.7481L329.949 51.6712C329.949 56.4905 331.013 59.4635 333.141 60.5901C334.205 61.1534 334.737 61.967 334.737 63.031C334.737 64.8461 333.453 66.5047 330.887 68.0068C328.384 69.4463 325.724 70.1661 322.907 70.1661C320.091 70.1661 318.464 69.1021 318.025 66.9741C317.9 66.4108 317.838 64.9713 317.838 62.6555L318.401 47.7282C318.464 47.1023 318.495 46.2573 318.495 45.1933C318.495 39.6855 317.337 36.9316 315.021 36.9316C313.519 36.9316 312.361 37.8392 311.548 39.6542C310.796 41.4067 310.39 43.0653 310.327 44.63C310.264 46.1947 310.233 48.1976 310.233 50.6385C310.233 53.0795 310.264 55.2075 310.327 57.0225C310.452 58.8376 310.577 60.3084 310.703 61.435C310.828 62.499 310.89 63.1562 310.89 63.4066C310.89 65.2842 310.077 66.8489 308.449 68.1007C306.885 69.3525 304.538 69.9783 301.408 69.9783C298.341 69.9783 296.808 68.9769 296.808 66.9741L297.183 64.8148C298.06 60.7466 298.498 54.1122 298.498 44.9117C298.498 39.4039 297.309 36.65 294.93 36.65C293.366 36.65 292.176 37.5262 291.363 39.2787C290.549 41.0312 290.142 42.7837 290.142 44.5361Z" stroke="#F7F7F7" stroke-width="4.46104" mask="url(#path-10-outside-2_314_1912)"/>
<path d="M347.122 40.3114C347.122 40.687 347.248 40.9999 347.498 41.2503C347.748 41.5632 348.061 41.7197 348.437 41.7197C352.004 41.4067 354.383 39.7168 355.572 36.65C355.885 35.9615 356.104 35.1479 356.229 34.2091C356.166 32.0185 355.29 30.9232 353.6 30.9232C351.66 30.9232 350.158 31.862 349.094 33.7396C348.093 35.6173 347.435 37.8079 347.122 40.3114ZM353.506 22.286C357.7 22.286 360.954 23.35 363.27 25.478C365.649 27.606 366.838 30.8293 366.838 35.1479C366.838 39.4665 365.117 43.034 361.674 45.8505C358.294 48.667 354.007 50.0752 348.812 50.0752C348.061 50.0752 347.686 50.4508 347.686 51.2018C347.686 52.7039 348.218 54.0183 349.282 55.1449C350.408 56.2089 351.91 56.7409 353.788 56.7409C355.728 56.7409 357.45 55.8647 358.952 54.1122C360.516 52.3597 361.862 51.4835 362.989 51.4835C364.178 51.4835 365.117 51.9842 365.805 52.9856C366.494 53.987 366.838 55.4265 366.838 57.3042C366.838 59.1193 366.368 60.9656 365.43 62.8433C364.553 64.6583 363.489 66.0353 362.238 66.9741C360.986 67.9129 359.578 68.664 358.013 69.2273C355.697 70.1035 353.225 70.5416 350.596 70.5416C348.03 70.5416 345.62 69.9158 343.367 68.664C341.114 67.4122 339.361 65.7223 338.11 63.5943C335.669 59.3383 334.448 54.6442 334.448 49.5119C334.448 44.3171 335.074 39.8107 336.326 35.9928C337.578 32.1749 339.706 28.9516 342.71 26.3229C345.777 23.6316 349.376 22.286 353.506 22.286Z" stroke="#F7F7F7" stroke-width="4.46104" mask="url(#path-10-outside-2_314_1912)"/>
<defs>
<clipPath id="clip0_314_1912">
<rect width="100.723" height="100.723" fill="white" transform="translate(0 0.236938)"/>
</clipPath>
</defs>
</svg>
